<?xml version="1.0" encoding="UTF-8" standalone="no"?> <!-- Created with Vectornator (http://vectornator.io/) --><!DOCTYPE svg PUBLIC "-//W3C//DTD SVG 1.1//EN" "http://www.w3.org/Graphics/SVG/1.1/DTD/svg11.dtd">
<svg height="100%" stroke-miterlimit="10" style="fill-rule:nonzero;clip-rule:evenodd;stroke-linecap:round;stroke-linejoin:round;" version="1.1" viewBox="0 0 1024 1024" width="100%" xml:space="preserve" xmlns="http://www.w3.org/2000/svg" xmlns:vectornator="http://vectornator.io" xmlns:xlink="http://www.w3.org/1999/xlink">
<metadata>
<vectornator:setting key="IsTimeLapseWatermarkDisabled" value="false"/>
<vectornator:setting key="UndoHistoryDisabled" value="true"/>
<vectornator:setting key="VNDimensionsVisible" value="true"/>
<vectornator:setting key="VNSnapToGuides" value="true"/>
<vectornator:setting key="WDCMYKEnabledKey" value="false"/>
<vectornator:setting key="WDDisplayWhiteBackground" value="false"/>
<vectornator:setting key="WDDynamicGuides" value="false"/>
<vectornator:setting key="WDGuidesVisible" value="true"/>
<vectornator:setting key="WDIsolateActiveLayer" value="false"/>
<vectornator:setting key="WDOutlineMode" value="false"/>
<vectornator:setting key="WDRulersVisible" value="true"/>
<vectornator:setting key="WDSnapToEdges" value="false"/>
<vectornator:setting key="WDSnapToGrid" value="false"/>
<vectornator:setting key="WDSnapToPoints" value="false"/>
<vectornator:setting key="WDUnits" value="Points"/>
</metadata>
<defs>
<path d="M273.817 507.062L513.772 507.062L513.772 507.062L513.772 598.835L513.772 598.835L273.817 598.835L273.817 598.835L273.817 507.062L273.817 507.062Z" fill-rule="evenodd" id="Fill"/>
<path d="M273.817 507.062L513.772 507.062L513.772 507.062L513.772 598.835L513.772 598.835L273.817 598.835L273.817 598.835L273.817 507.062L273.817 507.062Z" fill-rule="evenodd" id="Fill_2"/>
<path d="M273.817 507.062L513.772 507.062L513.772 507.062L513.772 598.835L513.772 598.835L273.817 598.835L273.817 598.835L273.817 507.062L273.817 507.062Z" fill-rule="evenodd" id="Fill_3"/>
<path d="M273.817 507.062L513.772 507.062L513.772 507.062L513.772 598.835L513.772 598.835L273.817 598.835L273.817 598.835L273.817 507.062L273.817 507.062Z" fill-rule="evenodd" id="Fill_4"/>
<path d="M273.817 507.062L513.772 507.062L513.772 507.062L513.772 598.835L513.772 598.835L273.817 598.835L273.817 598.835L273.817 507.062L273.817 507.062Z" fill-rule="evenodd" id="Fill_5"/>
<path d="M316.689 410.375L449.1 410.375L449.1 410.375L449.1 506.206L449.1 506.206L316.689 506.206L316.689 506.206L316.689 410.375L316.689 410.375Z" fill-rule="evenodd" id="Fill_6"/>
<path d="M316.689 410.375L449.1 410.375L449.1 410.375L449.1 506.206L449.1 506.206L316.689 506.206L316.689 506.206L316.689 410.375L316.689 410.375Z" fill-rule="evenodd" id="Fill_7"/>
<path d="M316.689 410.375L449.1 410.375L449.1 410.375L449.1 506.206L449.1 506.206L316.689 506.206L316.689 506.206L316.689 410.375L316.689 410.375Z" fill-rule="evenodd" id="Fill_8"/>
<path d="M565.611 409.962L698.022 409.962L698.022 409.962L698.022 505.793L698.022 505.793L565.611 505.793L565.611 505.793L565.611 409.962L565.611 409.962Z" fill-rule="evenodd" id="Fill_9"/>
<path d="M565.611 409.962L698.022 409.962L698.022 409.962L698.022 505.793L698.022 505.793L565.611 505.793L565.611 505.793L565.611 409.962L565.611 409.962Z" fill-rule="evenodd" id="Fill_10"/>
<path d="M565.611 409.962L698.022 409.962L698.022 409.962L698.022 505.793L698.022 505.793L565.611 505.793L565.611 505.793L565.611 409.962L565.611 409.962Z" fill-rule="evenodd" id="Fill_11"/>
<path d="M571.087 508.137L703.499 508.137L703.499 508.137L703.499 587.546L703.499 587.546L571.087 587.546L571.087 587.546L571.087 508.137L571.087 508.137Z" fill-rule="evenodd" id="Fill_12"/>
<path d="M571.087 508.137L703.499 508.137L703.499 508.137L703.499 587.546L703.499 587.546L571.087 587.546L571.087 587.546L571.087 508.137L571.087 508.137Z" fill-rule="evenodd" id="Fill_13"/>
<path d="M571.087 508.137L703.499 508.137L703.499 508.137L703.499 587.546L703.499 587.546L571.087 587.546L571.087 587.546L571.087 508.137L571.087 508.137Z" fill-rule="evenodd" id="Fill_14"/>
<path d="M312.793 711.406L715.671 711.406L715.671 711.406L715.671 786.829L715.671 786.829L312.793 786.829L312.793 786.829L312.793 711.406L312.793 711.406Z" fill-rule="evenodd" id="Fill_15"/>
<path d="M312.793 711.406L715.671 711.406L715.671 711.406L715.671 786.829L715.671 786.829L312.793 786.829L312.793 786.829L312.793 711.406L312.793 711.406Z" fill-rule="evenodd" id="Fill_16"/>
<path d="M312.793 711.406L715.671 711.406L715.671 711.406L715.671 786.829L715.671 786.829L312.793 786.829L312.793 786.829L312.793 711.406L312.793 711.406Z" fill-rule="evenodd" id="Fill_17"/>
<path d="M312.793 711.406L715.671 711.406L715.671 711.406L715.671 786.829L715.671 786.829L312.793 786.829L312.793 786.829L312.793 711.406L312.793 711.406Z" fill-rule="evenodd" id="Fill_18"/>
<path d="M312.793 711.406L715.671 711.406L715.671 711.406L715.671 786.829L715.671 786.829L312.793 786.829L312.793 786.829L312.793 711.406L312.793 711.406Z" fill-rule="evenodd" id="Fill_19"/>
<path d="M312.793 711.406L715.671 711.406L715.671 711.406L715.671 786.829L715.671 786.829L312.793 786.829L312.793 786.829L312.793 711.406L312.793 711.406Z" fill-rule="evenodd" id="Fill_20"/>
<path d="M312.793 711.406L715.671 711.406L715.671 711.406L715.671 786.829L715.671 786.829L312.793 786.829L312.793 786.829L312.793 711.406L312.793 711.406Z" fill-rule="evenodd" id="Fill_21"/>
<path d="M312.793 711.406L715.671 711.406L715.671 711.406L715.671 786.829L715.671 786.829L312.793 786.829L312.793 786.829L312.793 711.406L312.793 711.406Z" fill-rule="evenodd" id="Fill_22"/>
<path d="M312.793 711.406L715.671 711.406L715.671 711.406L715.671 786.829L715.671 786.829L312.793 786.829L312.793 786.829L312.793 711.406L312.793 711.406Z" fill-rule="evenodd" id="Fill_23"/>
<path d="M312.793 711.406L715.671 711.406L715.671 711.406L715.671 786.829L715.671 786.829L312.793 786.829L312.793 786.829L312.793 711.406L312.793 711.406Z" fill-rule="evenodd" id="Fill_24"/>
</defs>
<g id="Layer-2" vectornator:layerName="Layer 2">
<g opacity="1">
<g opacity="1">
<g opacity="1">
<path d="M512 1012C788.142 1012 1012 788.142 1012 512.001C1012 235.858 788.142 12 512 12C483.546 12 455.646 14.3782 428.488 18.9453C331.259 35.2938 243.554 79.7032 173.984 143.56C74.4137 234.957 12 366.189 12 512.001C12 788.142 235.858 1012 512 1012Z" fill="none" fill-rule="evenodd" opacity="1" stroke="#000080" stroke-linecap="butt" stroke-linejoin="miter" stroke-width="1.44297"/>
<path d="M512 891.033C721.333 891.033 891.032 721.334 891.032 512.001C891.032 302.666 721.333 132.97 512 132.97C302.667 132.97 132.968 302.666 132.968 512.001C132.968 721.334 302.667 891.033 512 891.033Z" fill="none" fill-rule="evenodd" opacity="1" stroke="#000080" stroke-linecap="butt" stroke-linejoin="miter" stroke-width="1.44297"/>
</g>
<g opacity="1">
<path d="M44.1831 457.926C48.7309 458.044 52.9154 457.186 56.53 455.929L56.5128 456.606C55.0312 457.728 53.0358 459.999 52.9196 464.448L50.406 560.124L60.9488 560.401L62.8604 487.75L84.9156 488.329C90.2376 488.469 97.5033 488.273 99.9417 487.561L100.127 487.856L95.0735 495.954C92.4825 495.111 89.6871 494.651 86.5908 494.569C74.6911 494.257 65.5697 502.439 65.2536 514.53C64.9956 524.303 71.6807 531.545 79.9034 531.76C85.4167 531.904 90.7192 529.044 92.6072 523.576L86.1585 514.693C85.1264 517.183 83.4513 518.299 81.4194 518.248C79.0992 518.185 77.4005 516.495 77.4714 513.788C77.5682 510.014 80.9269 507.49 86.1521 507.625C93.7941 507.825 98.9978 512.416 98.7785 520.735C98.443 533.506 84.9781 541.283 66.9781 544.683L72.4635 556.929C94.2823 551.886 110.362 540.499 110.874 520.957C111.076 513.315 108.919 506.967 104.969 502.505L119.023 479.833L110.446 470.993L107.515 475.659L63.2087 474.496L63.37 468.305C63.5313 462.21 65.4514 459.066 74.9319 459.315L117.983 460.446L118.339 446.902L63.9699 445.474L64.2236 435.8L53.6787 435.523L53.425 445.197L43.5574 444.936L43.2155 457.9L44.1831 457.926Z" fill="#000000" fill-rule="evenodd" opacity="1" stroke="none"/>
<path d="M63.6689 368.187C56.3536 374.642 51.3994 383.482 49.662 391.621C47.9676 399.57 51.0683 404.98 58.0717 406.477L63.37 407.606L65.3891 398.142L75.7061 400.344L73.687 409.808L126.876 421.159L124.07 434.314L70.8787 422.963L68.8596 432.428L58.5426 430.226L60.5617 420.761L54.5065 419.469C42.2027 416.843 34.4488 405.888 37.9602 389.419C40.8309 375.982 48.2149 365.484 55.8548 358.902L63.6689 368.187Z" fill="#000000" fill-rule="evenodd" opacity="1" stroke="none"/>
<path d="M95.6713 337.535L85.6683 334.191L65.2966 395.134L75.3018 398.478L76.8651 393.797L78.8863 394.472C83.9695 389.948 92.4781 387.69 100.281 389.38C100.032 395.009 102.935 399.448 107.799 401.075C113.306 402.916 117.623 399.768 119.189 395.087C120.354 391.599 119.623 387.071 116.077 383.333C122.509 377.829 131.66 375.175 140.289 375.61L144.188 363.955L92.6051 346.712L95.6713 337.535ZM118.69 368.492C114.009 369.989 108.956 373.197 105.341 377.601C94.6929 374.655 85.8166 377.096 82.3869 378.807L81.929 378.652L88.4937 359.012L101.159 363.246C113.276 367.295 118.63 368.064 118.63 368.064L118.69 368.492Z" fill="#000000" fill-rule="evenodd" opacity="1" stroke="none"/>
<path d="M152.623 353.946C148.215 351.727 147.013 347.224 149.015 343.246C151.015 339.27 155.303 337.636 159.711 339.853C164.121 342.072 165.452 346.532 163.452 350.508C161.452 354.486 157.034 356.163 152.623 353.946ZM113.101 302.871L96.9249 335.032L87.5024 330.291L113.983 277.642L123.405 282.379L119.058 291.025L158.655 310.941L163.291 307.965L167.29 319.617L128.452 344.93L118.855 340.105C116.705 334.256 113.28 319.316 116.299 304.477L113.101 302.871ZM127.626 310.175C126.741 318.613 128.321 327.1 129.525 330.086L146.648 318.875L146.82 318.529C144.313 318.135 138.088 315.437 132.813 312.783L127.626 310.175Z" fill="#000000" fill-rule="evenodd" opacity="1" stroke="none"/>
<path d="M113.469 263.007C117.301 265.46 121.326 266.888 125.072 267.677L124.709 268.247C122.857 268.445 119.976 269.354 117.578 273.104L115.437 276.448L124.322 282.133L124.53 281.809C127.818 276.674 131.086 274.975 139.077 280.089L175.347 303.303L182.65 291.891L136.843 262.573L142.059 254.421L133.176 248.733L127.958 256.885L119.645 251.563L112.652 262.486L113.469 263.007Z" fill="#000000" fill-rule="evenodd" opacity="1" stroke="none"/>
<path d="M164.699 224.872L142.24 253.006L133.996 246.424L170.765 200.365L179.009 206.947L172.973 214.51L207.612 242.164L212.762 240.21L214.272 252.432L171.049 269.193L162.652 262.491C161.756 256.324 161.482 241.001 167.499 227.106L164.699 224.872ZM177.407 235.015C174.799 243.087 174.597 251.718 175.16 254.892L194.225 247.45L194.465 247.149C192.094 246.243 186.559 242.319 181.944 238.638L177.407 235.015Z" fill="#000000" fill-rule="evenodd" opacity="1" stroke="none"/>
<path d="M173.26 185.952C176.502 189.141 180.149 191.366 183.654 192.91L183.179 193.394C181.329 193.205 178.321 193.506 175.201 196.68L172.419 199.51L179.943 206.904L180.213 206.629C184.488 202.279 188.038 201.29 194.801 207.939L225.517 238.122L235.015 228.459L196.222 190.339L203.006 183.434L195.483 176.044L188.698 182.944L181.658 176.024L172.569 185.275L173.26 185.952Z" fill="#000000" fill-rule="evenodd" opacity="1" stroke="none"/>
<path d="M276.703 192.233L267.364 180.869C261.773 174.063 255.641 165.075 252.983 157.113L241.247 158.992C236.809 166.393 234.052 176.302 233.931 183.163L221.09 167.537L250.175 143.637L243.479 135.488L196.822 173.825L203.52 181.974L210.623 176.138L233.291 203.728L246.111 199.208C244.818 190.625 245.79 179.306 247.766 173.173C248.781 176.85 251.368 182.74 256.959 189.545L266.235 200.834L276.703 192.233Z" fill="#000000" fill-rule="evenodd" opacity="1" stroke="none"/>
<path d="M351.551 68.2638C341.978 66.3952 331.949 67.8531 324.438 71.4333C317.1 74.9318 314.698 80.6859 317.779 87.1517L320.112 92.0436L328.847 87.8785L333.386 97.3999L324.649 101.565L348.055 150.66L335.91 156.448L312.509 107.353L303.772 111.519L299.233 101.995L307.97 97.8321L305.303 92.2414C299.891 80.8837 303.854 68.0595 319.052 60.8131C331.457 54.8999 344.281 54.3623 354.155 56.4094L351.551 68.2638Z" fill="#000000" fill-rule="evenodd" opacity="1" stroke="none"/>
<path d="M354.908 103.812C360.849 117.473 372.009 126.383 383.657 122.786C389.944 120.844 391.748 116.843 390.665 113.329C390.121 111.574 389.31 110.912 388.768 110.471L380.808 111.916C372.172 113.471 367.702 110.798 365.93 105.068C363.533 97.2989 367.201 89.1773 371.252 83.2662L335.93 94.1766L332.818 84.0984L418.902 57.5125L422.013 67.5886L390.392 77.3551C393.662 81.7159 400.601 84.8381 411.421 81.4987L414.472 80.5547L421.88 88.801C420.343 95.9592 421.319 104.369 423.691 112.043L427.46 124.248L414.7 128.19L410.645 115.058C408.531 108.218 407.392 100.264 409.215 94.0283C396.488 96.4387 387.474 91.5254 382.909 86.2508C379.15 91.463 378.017 95.6625 378.845 98.3439C379.217 99.5459 380.083 100.391 383.251 99.819L393.701 97.9095C397.814 100.081 401.717 103.535 403.431 109.082C406.172 117.959 401.837 129.832 387.413 134.286C369.474 139.827 352.672 128.71 344.479 111.691L354.908 103.812Z" fill="#000000" fill-rule="evenodd" opacity="1" stroke="none"/>
<path d="M438.398 113.43C439.207 118.494 443.976 121.945 449.135 121.12C454.581 120.249 458.035 115.481 457.224 110.418C456.336 104.874 451.571 101.423 446.124 102.294C440.964 103.12 437.51 107.887 438.398 113.43Z" fill="#000000" fill-rule="evenodd" opacity="1" stroke="none"/>
<path d="M492.357 107.569C483.868 104.911 478.804 99.2341 477.886 88.7236C476.951 78.0238 479.718 68.5519 482.615 61.6948L489.556 61.0862L488.64 50.5779L471.766 52.0551C465.733 66.3759 463.673 79.4753 464.574 89.7923C466.032 106.468 475.321 116.051 487.115 118.711L492.357 107.569Z" fill="#000000" fill-rule="evenodd" opacity="1" stroke="none"/>
<path d="M540.99 96.4409C545.103 95.2411 548.32 92.1661 548.477 88.0097C548.649 83.464 545.02 79.5484 538.072 78.899L537.055 105.784L542.052 109.36L532.471 116.843L496.084 90.5771L496.522 78.9721C504.379 73.5556 514.047 68.8874 525.431 67.4768L525.676 60.9981L491.925 59.7208L492.325 49.1802L567.464 52.0229L567.064 62.5634L538.73 61.4905L538.515 67.1973C553.952 68.7498 561.218 78.9033 560.837 88.9601C560.54 96.7935 556.04 103.113 548.948 106.233L540.99 96.4409ZM508.953 85.739L524.704 96.8903L525.091 96.9032C524.693 92.0479 524.764 85.0767 524.958 79.9526L524.981 79.3721C518.735 80.587 513.516 82.9093 508.953 85.739Z" fill="#000000" fill-rule="evenodd" opacity="1" stroke="none"/>
<path d="M567.591 110.456C566.77 115.518 570.21 120.294 575.369 121.13C580.813 122.014 585.587 118.574 586.41 113.51C587.309 107.971 583.869 103.197 578.424 102.311C573.265 101.475 568.492 104.915 567.591 110.456Z" fill="#000000" fill-rule="evenodd" opacity="1" stroke="none"/>
<path d="M683.518 52.9088C683.112 53.5753 682.667 54.3301 682.351 55.0354C678.852 62.8 680.53 73.2137 695.704 80.0516L709.734 86.3712C715.469 88.9537 717.744 91.678 715.598 96.443C715.478 96.7075 715.36 96.972 715.241 97.2365L666.888 75.4564L662.555 85.0724L687.174 96.1613L681.886 107.897C678.231 116.015 680.039 123.306 688.423 127.082C693.629 129.426 699.764 129.007 703.58 128.071C703.632 129.368 703.34 130.723 702.785 131.959C700.121 137.87 692.401 140.868 683.579 136.894C673.786 132.481 666.447 120.259 674.913 101.466L662.162 98.9051C653.952 117.602 659.149 139.048 678.65 147.832C694.62 155.029 709.193 149.069 714.837 136.539C718.097 129.303 716.938 121.036 713.487 115.976C706.395 117.346 697.626 117.961 695.246 116.886C694.01 116.331 693.276 115.363 694.349 112.981L699.439 101.688L730.143 115.52L734.476 105.902L726.975 102.524C727.302 102.034 727.541 101.505 727.78 100.976C732.472 90.5642 726.345 81.5417 716.727 77.2089L700.845 70.055C693.257 66.6361 693.16 62.1356 694.752 58.6048C695.111 57.8114 695.556 57.0567 696.091 56.3428L683.518 52.9088Z" fill="#000000" fill-rule="evenodd" opacity="1" stroke="none"/>
<path d="M789.368 170.421L787.194 167.309C781.93 159.71 781.704 156.21 784.134 152.832L784.36 152.518L812.803 172.967L818.962 164.402L741.879 108.986L735.723 117.55L742.322 122.294L723.625 148.303C718.312 155.689 719.333 164.052 728.528 170.659C737.406 177.044 748.872 176.347 756.383 170.543L751.241 177.695C745.932 185.079 746.637 193.216 755.516 199.6C767.775 208.412 784.17 203.511 791.118 193.848C797.048 185.597 794.967 178.379 789.368 170.421ZM774.245 167.415C774.69 169.283 775.584 171.356 777.857 174.659L779.491 177.026C782.024 180.634 782.835 183.484 780.689 186.47C776.395 192.442 766.99 193.424 762.902 190.487C760.702 188.907 760.528 186.993 761.715 185.344L767.024 177.955C771.656 171.513 773.931 167.189 773.931 167.189L774.245 167.415ZM743.803 141.953C744.246 143.822 745.141 145.895 747.414 149.198L748.59 150.879C750.841 154.046 751.914 156.367 750.05 158.96C746.887 163.359 739.527 164.148 735.518 161.265C732.848 159.347 732.91 157.603 734.267 155.715L736.583 152.494C741.214 146.052 743.489 141.728 743.489 141.728L743.803 141.953ZM758.466 144.269L756.752 141.846C752.125 135.182 750.908 132.4 752.301 129.469L774.46 145.398L763.048 161.271C764.663 155.876 762.788 150.359 758.466 144.269Z" fill="#000000" fill-rule="evenodd" opacity="1" stroke="none"/>
<path d="M908.639 257.681C908.376 247.929 904.768 238.462 899.636 231.91C894.621 225.513 888.48 224.423 882.844 228.837L878.578 232.181L884.547 239.799L876.243 246.304L870.274 238.685L827.464 272.229L819.168 261.641L861.98 228.097L856.009 220.479L864.313 213.974L870.282 221.593L875.157 217.772C885.059 210.014 898.44 211.087 908.826 224.341C917.302 235.159 920.62 247.555 920.775 257.638L908.639 257.681Z" fill="#000000" fill-rule="evenodd" opacity="1" stroke="none"/>
<path d="M896.657 277.467L877.544 246.959L886.48 241.36L917.775 291.3L908.834 296.901L903.697 288.7L866.139 312.235L866.278 317.744L854.241 315.121L852.732 268.787L861.836 263.082C867.949 264.276 882.502 269.09 893.623 279.368L896.657 277.467ZM882.881 286.099C876.125 280.966 868.048 277.919 864.868 277.401L865.58 297.854L865.784 298.181C867.422 296.241 872.957 292.317 877.959 289.182L882.881 286.099Z" fill="#000000" fill-rule="evenodd" opacity="1" stroke="none"/>
<path d="M880.92 367.103L894.346 361.098C902.386 357.502 912.675 353.961 921.054 353.496L922.345 341.683C916.373 335.449 907.546 330.173 900.96 328.244L919.422 319.985L934.793 354.348L944.424 350.041L919.764 294.919L910.135 299.224L913.89 307.618L881.294 322.199L882.27 335.757C890.888 336.778 901.549 340.702 906.942 344.227C903.13 344.235 896.765 345.175 888.725 348.77L875.387 354.737L880.92 367.103Z" fill="#000000" fill-rule="evenodd" opacity="1" stroke="none"/>
<path d="M937.424 364.701L934.319 355.232L944.342 351.944L954.02 381.461L943.998 384.748L943.125 382.082C941.648 377.575 936.732 375.012 930.111 377.182C921.097 380.138 917.053 387.677 907.306 390.872C899.397 393.466 889.951 391.369 883.126 385.153L887.622 373.7C893.899 378.872 898.973 379.753 903.297 378.338C912.217 375.412 915.836 367.503 925.4 364.368C930.733 362.618 934.614 363.585 937.057 364.822L937.424 364.701Z" fill="#000000" fill-rule="evenodd" opacity="1" stroke="none"/>
<path d="M965.23 389.356C960.817 390.468 957.02 392.421 953.878 394.61L953.713 393.954C954.835 392.472 956.145 389.748 955.059 385.43L954.089 381.583L943.862 384.159L943.955 384.536C945.443 390.447 944.443 393.995 935.246 396.31L893.484 406.827L896.793 419.965L949.535 406.683L951.898 416.067L962.127 413.491L959.764 404.105L969.334 401.695L966.167 389.12L965.23 389.356Z" fill="#000000" fill-rule="evenodd" opacity="1" stroke="none"/>
<path d="M911.339 460.547C910.408 458.414 909.72 455.864 909.353 452.692C907.667 438.275 915.801 428.653 927.817 427.253C940.312 425.795 948.565 433.893 949.677 443.408C950.595 451.29 946.774 456.12 943.45 457.677L943.495 458.062C947.836 458.528 952.079 462.321 952.706 467.703C953.156 471.548 951.93 474.419 951.251 475.279L951.309 475.76L960.439 474.694L953.878 418.462L964.354 417.239L973.585 496.349L963.107 497.571L961.987 487.959L907.966 494.264L906.42 480.996L938.523 477.253C940.248 476.173 941.519 473.688 941.181 470.804C940.721 466.861 937.523 464.506 932.621 465.08L929.546 465.437L928.109 453.133L931.187 452.776C936.76 452.125 938.381 449.306 937.999 446.037C937.618 442.769 934.749 439.89 929.653 440.483C923.405 441.212 920.184 446.169 920.878 452.127C921.104 454.049 921.725 456.023 922.684 457.567L911.339 460.547Z" fill="#000000" fill-rule="evenodd" opacity="1" stroke="none"/>
<path d="M904.545 508.09C899.999 507.877 896.851 511.025 896.657 515.181C896.466 519.241 899.315 522.572 903.859 522.785C908.499 523 911.449 519.94 911.641 515.88C911.834 511.724 909.185 508.307 904.545 508.09ZM961.561 521.505L960.718 539.582L942.06 538.712C936.743 538.462 928.021 538.54 923.155 538.991L923.175 538.604L934.704 519.865L942.596 531.375L951.685 531.799L961.174 521.488L961.561 521.505ZM904.405 546.349L912.81 555.172L915.631 550.751L960.099 552.826L959.647 562.491L970.184 562.984L973.046 501.697L962.507 501.205L962.193 507.971L958.422 507.795L948.118 518.94L939.863 506.929L929.133 506.428L904.405 546.349Z" fill="#000000" fill-rule="evenodd" opacity="1" stroke="none"/>
</g>
<path d="M806.469 328.717C806.333 328.717 806.333 328.717 806.469 328.717L806.469 328.717L766.026 328.717L766.026 314.964C766.297 309.517 762.758 304.614 757.447 303.116C729.532 295.764 700.665 292.087 671.797 292.223C624.272 292.223 559.592 302.98 511.66 351.593C464.135 302.436 398.909 292.223 351.523 292.223C322.654 292.087 293.786 295.764 265.872 303.116C260.696 304.614 257.157 309.517 257.294 314.964L257.294 328.581L217.396 328.581C210.859 328.581 205.548 333.89 205.548 340.427L205.548 719.798C205.548 726.333 210.859 731.644 217.396 731.644C219.437 731.644 221.481 731.1 223.249 730.145C224.475 729.601 343.217 664.648 509.074 706.454L510.841 706.454L511.931 706.454C512.886 706.589 513.839 706.589 514.791 706.454C681.054 664.24 799.796 729.193 800.614 730.145C804.29 732.326 808.785 732.326 812.459 730.145C816.136 728.105 818.317 724.155 818.452 719.934L818.452 340.7C818.317 334.028 813.006 328.717 806.469 328.717ZM229.242 701.007L229.242 352.548L257.565 352.548L257.565 650.487C257.43 657.021 262.741 662.47 269.275 662.47C269.957 662.47 270.501 662.47 271.183 662.335C295.694 658.52 320.613 656.615 345.395 656.342C379.847 655.798 414.161 660.971 446.843 671.729C373.174 662.741 298.143 672.819 229.242 701.007ZM345.533 632.648C323.882 632.648 302.366 634.147 280.85 636.869L280.85 324.36C304 319.185 327.556 316.598 351.25 316.462C395.643 316.462 456.919 326.674 499.539 374.608L499.948 670.503C475.301 654.435 427.099 632.648 345.533 632.648ZM523.779 374.743C566.264 327.218 627.541 316.598 672.068 316.598C695.762 316.733 719.318 319.322 742.468 324.496L742.468 637.007C721.09 634.282 699.712 632.786 678.197 632.786C597.174 632.786 548.834 654.572 523.779 670.641L523.779 374.743ZM794.485 701.007C725.447 672.819 650.28 662.606 576.34 671.729C609.158 660.971 643.607 655.798 678.197 656.342C703.251 656.48 728.171 658.385 752.953 662.199C759.49 663.152 765.48 658.658 766.433 652.259C766.57 651.575 766.57 651.033 766.57 650.351L766.57 352.548L794.894 352.548L794.485 701.007Z" fill="#000000" fill-rule="evenodd" opacity="1" stroke="none"/>
<g opacity="1">
<g opacity="1">
<g opacity="1" vectornator:mask="#Fill">
<clipPath id="ClipPath">
<use overflow="#visible" xlink:href="#Fill"/>
</clipPath>
<g clip-path="url(#ClipPath)">
<path d="M360.148 524.739C360.148 527.618 360.714 529.988 361.277 531.457L360.939 531.457C360.318 530.723 359.075 529.481 356.366 529.481L301.495 529.481L301.495 534.673L343.664 534.673L343.664 548.448C343.664 551.723 343.834 555.843 344.23 558.159L344.06 558.214L338.075 554.32C338.697 552.682 339.035 550.82 339.035 548.844C339.035 542.126 334.463 537.101 327.857 537.101C322.269 537.101 318.542 540.939 318.542 545.569C318.542 548.562 320.125 551.441 323.002 552.57L327.294 549.295C325.77 548.618 325.036 547.433 325.036 546.078C325.036 544.214 326.277 542.974 328.309 542.974C330.962 542.974 332.769 545.173 332.769 548.788C332.769 553.529 329.889 556.972 324.697 556.972C316.624 556.972 311.883 548.9 309.681 538.288L303.867 540.997C306.858 553.585 313.463 562.73 324.697 562.73C328.986 562.73 332.487 561.375 334.971 559.062L348.294 567.585L352.583 563.407L350.044 561.827L350.044 534.673L354.841 534.673C358.172 534.673 359.922 535.86 359.922 540.546L359.922 566.738L366.358 566.738L366.358 534.673L372.454 534.673L372.454 529.481L366.358 529.481L366.358 523.778L360.148 523.778L360.148 524.739Z" fill="#000000" fill-rule="evenodd" opacity="1" stroke="none"/>
</g>
</g>
<g opacity="1" vectornator:mask="#Fill_2">
<clipPath id="ClipPath_2">
<use overflow="#visible" xlink:href="#Fill_2"/>
</clipPath>
<g clip-path="url(#ClipPath_2)">
<path d="M406.835 534.673L406.835 529.481L370.196 529.481L370.196 534.673L373.189 534.673L373.189 535.691C376.406 537.553 379.793 542.238 380.077 547.715C376.972 548.448 375.107 550.764 375.107 553.473C375.107 556.352 377.253 557.933 379.793 557.933C381.769 557.933 383.971 556.69 385.214 553.811C390.011 556.182 393.623 561.489 394.81 566.738L400.792 566.738L400.792 534.673L406.835 534.673ZM394.81 554.884C393.004 552.119 389.899 549.295 386.173 548.11C386.003 541.391 382.786 536.594 381.092 534.957L381.092 534.673L394.527 534.673L394.527 544.384C394.527 550.65 394.978 553.811 394.978 554.828L394.81 554.884Z" fill="#000000" fill-rule="evenodd" opacity="1" stroke="none"/>
</g>
</g>
<g opacity="1" vectornator:mask="#Fill_3">
<clipPath id="ClipPath_3">
<use overflow="#visible" xlink:href="#Fill_3"/>
</clipPath>
<g clip-path="url(#ClipPath_3)">
<path d="M410.899 524.739C410.899 527.618 411.462 529.988 412.028 531.457L411.688 531.457C411.069 530.723 409.826 529.481 407.116 529.481L404.575 529.481L404.575 534.673L405.592 534.673C408.923 534.673 410.673 535.86 410.673 540.546L410.673 566.738L417.109 566.738L417.109 534.673L423.205 534.673L423.205 529.481L417.109 529.481L417.109 523.778L410.899 523.778L410.899 524.739Z" fill="#000000" fill-rule="evenodd" opacity="1" stroke="none"/>
</g>
</g>
<g opacity="1" vectornator:mask="#Fill_4">
<clipPath id="ClipPath_4">
<use overflow="#visible" xlink:href="#Fill_4"/>
</clipPath>
<g clip-path="url(#ClipPath_4)">
<path d="M466.728 555.901C469.1 555.054 471.02 552.908 471.02 550.254C471.02 547.093 468.479 544.61 463.793 544.384L463.793 561.657L466.561 563.577L461.987 567.36L440.987 552.23L440.987 546.642C445.559 543.029 451.147 540.036 457.527 539.077L457.527 534.673L437.543 534.673L437.543 529.481L480.447 529.481L480.447 534.673L463.793 534.673L463.793 538.74C472.543 539.133 477.002 544.666 477.002 550.424C477.002 554.94 474.577 558.61 470.794 560.528L466.728 555.901ZM447.139 549.633L457.753 557.481L457.979 557.481C457.641 554.206 457.527 550.254 457.527 547.037L457.527 544.891C453.519 545.683 449.963 547.601 447.139 549.633Z" fill="#000000" fill-rule="evenodd" opacity="1" stroke="none"/>
</g>
</g>
<g opacity="1" vectornator:mask="#Fill_5">
<clipPath id="ClipPath_5">
<use overflow="#visible" xlink:href="#Fill_5"/>
</clipPath>
<g clip-path="url(#ClipPath_5)">
<path d="M438.672 562.9C433.704 560.812 431.165 556.69 431.165 550.368C431.165 544.214 433.197 538.682 435.625 534.673L439.8 534.673L439.8 529.481L420.947 529.481L420.947 534.673L428.737 534.673C426.535 538.795 424.785 544.384 424.785 550.312C424.785 559.513 429.133 565.779 435.681 568.037L438.672 562.9Z" fill="#000000" fill-rule="evenodd" opacity="1" stroke="none"/>
</g>
</g>
</g>
<g opacity="1">
<g opacity="1" vectornator:mask="#Fill_6">
<clipPath id="ClipPath_6">
<use overflow="#visible" xlink:href="#Fill_6"/>
</clipPath>
<g clip-path="url(#ClipPath_6)">
<path d="M348.769 440.696C350.068 439.511 352.495 437.817 356.108 437.817C359.438 437.817 361.866 439.23 363.502 441.543L356.164 446.399C354.583 443.124 351.704 441.262 348.769 440.696ZM344.479 444.818C345.778 444.93 346.681 445.27 347.528 445.721C349.39 446.455 350.633 447.809 351.422 449.56L346.285 452.946L349.334 457.632L365.704 446.736C366.156 448.487 366.326 450.407 366.326 452.383L366.326 459.1C366.326 461.414 366.607 464.181 367.059 465.818L366.833 465.818C365.253 464.011 363.391 463.22 360.567 463.22C358.649 463.22 354.809 463.334 352.721 463.334C347.81 463.334 346.681 459.833 346.681 456.503L340.641 457.915C340.753 463.73 344.027 468.811 352.155 468.811C354.301 468.811 358.028 468.753 360.342 468.753C364.406 468.753 366.212 470.617 366.496 473.778L372.366 473.778L372.366 437.987L378.406 437.987L378.406 432.794L372.366 432.794L372.366 427.091L366.212 427.091L366.212 428.616C366.212 431.551 366.496 435.843 367.455 438.157L367.229 438.271C365.534 435.673 362.262 432.342 355.712 432.342C349.22 432.342 344.027 436.295 341.488 439.907L344.479 444.818Z" fill="#000000" fill-rule="evenodd" opacity="1" stroke="none"/>
</g>
</g>
<g opacity="1" vectornator:mask="#Fill_7">
<clipPath id="ClipPath_7">
<use overflow="#visible" xlink:href="#Fill_7"/>
</clipPath>
<g clip-path="url(#ClipPath_7)">
<path d="M378.688 445.551C381.737 456.673 388.454 468.301 402.059 468.301C412.784 468.301 418.147 461.979 418.147 454.245C418.147 448.826 415.212 444.367 413.068 442.504L408.213 442.504C406.293 447.979 404.375 450.181 402.003 450.181C400.197 450.181 399.294 449.164 399.294 447.527C399.294 446.455 399.689 445.27 400.253 444.423L394.213 443.575C393.705 444.423 393.084 445.891 393.084 447.923C393.084 452.213 396.133 455.714 401.551 455.714C406.351 455.714 409.116 452.664 410.415 449.334L410.641 449.334C411.318 450.351 411.939 451.875 411.939 454.019C411.939 458.535 408.665 462.261 402.173 462.261C391.389 462.261 386.422 451.424 384.278 442.73L378.688 445.551ZM421.536 437.987L421.536 432.794L376.148 432.794L376.148 437.987L421.536 437.987Z" fill="#000000" fill-rule="evenodd" opacity="1" stroke="none"/>
</g>
</g>
<g opacity="1" vectornator:mask="#Fill_8">
<clipPath id="ClipPath_8">
<use overflow="#visible" xlink:href="#Fill_8"/>
</clipPath>
<g clip-path="url(#ClipPath_8)">
<path d="M399.801 484.899C396.98 484.899 395.116 483.261 395.116 480.891C395.116 478.294 396.922 476.657 399.915 476.657C401.721 476.657 403.528 477.165 405.278 478.012C405.052 481.85 403.246 484.899 399.801 484.899ZM416.567 487.946L420.859 484.559C414.819 477.73 407.592 471.52 398.954 471.52C393.479 471.52 389.076 475.244 389.076 480.891C389.076 485.972 393.14 489.98 399.631 489.98C405.899 489.98 409.286 485.688 410.019 481.229C412.221 483.093 414.423 485.462 416.567 487.946Z" fill="#000000" fill-rule="evenodd" opacity="1" stroke="none"/>
</g>
</g>
</g>
<g opacity="1">
<g opacity="1" vectornator:mask="#Fill_9">
<clipPath id="ClipPath_9">
<use overflow="#visible" xlink:href="#Fill_9"/>
</clipPath>
<g clip-path="url(#ClipPath_9)">
<path d="M600.484 437.576L600.709 437.576C600.935 442.827 602.572 447.454 606.072 450.052L599.243 449.375C597.434 449.149 595.912 448.697 595.912 447.003C595.912 444.182 598.112 439.89 600.484 437.576ZM616.742 466.987C621.935 466.987 624.702 463.375 624.702 459.593C624.702 456.374 622.612 454.342 620.128 453.664L620.128 453.439C622.5 452.591 624.081 450.503 624.081 447.738C624.081 443.786 621.146 440.567 616.12 440.567C612.678 440.567 610.136 441.98 608.444 444.238C607.315 442.487 606.58 440.341 606.412 437.576L628.089 437.576L628.089 432.383L576.379 432.383L576.379 437.576L593.259 437.576C591.564 440.06 589.814 444.012 589.814 447.624C589.814 452.084 592.919 454.286 597.66 454.793L603.533 455.359C603.814 455.98 604.154 456.658 604.154 457.898C604.154 460.44 602.008 462.64 597.886 462.64C590.547 462.64 585.524 455.301 584.847 446.27L579.144 448.246C580.273 459.197 587.444 468.512 598 468.512C603.249 468.512 606.805 466.366 608.67 463.375C610.476 465.577 613.129 466.987 616.742 466.987ZM618.492 448.076C618.492 450.108 617.193 451.351 614.992 451.351L613.807 451.351L613.807 456.036L615.047 456.036C617.533 456.036 619.114 457.109 619.114 459.141C619.114 460.777 617.871 461.962 616.009 461.962C612.282 461.962 610.024 458.631 610.024 453.608C610.024 447.964 612.79 445.536 615.443 445.536C617.363 445.536 618.492 446.551 618.492 448.076Z" fill="#000000" fill-rule="evenodd" opacity="1" stroke="none"/>
</g>
</g>
<g opacity="1" vectornator:mask="#Fill_10">
<clipPath id="ClipPath_10">
<use overflow="#visible" xlink:href="#Fill_10"/>
</clipPath>
<g clip-path="url(#ClipPath_10)">
<path d="M632.153 427.64C632.153 430.519 632.718 432.891 633.282 434.359L632.944 434.359C632.323 433.624 631.08 432.383 628.37 432.383L625.831 432.383L625.831 437.576L626.846 437.576C630.177 437.576 631.927 438.761 631.927 443.446L631.927 469.641L638.363 469.641L638.363 437.576L644.459 437.576L644.459 432.383L638.363 432.383L638.363 426.681L632.153 426.681L632.153 427.64Z" fill="#000000" fill-rule="evenodd" opacity="1" stroke="none"/>
</g>
</g>
<g opacity="1" vectornator:mask="#Fill_11">
<clipPath id="ClipPath_11">
<use overflow="#visible" xlink:href="#Fill_11"/>
</clipPath>
<g clip-path="url(#ClipPath_11)">
<path d="M654 457.617C652.871 456.769 652.137 455.471 652.137 453.89C652.137 451.351 653.83 449.882 656.767 449.882C664.162 449.882 669.073 460.608 669.073 468.963L669.073 469.641L675.565 469.641L675.565 437.576L681.605 437.576L681.605 432.383L642.259 432.383L642.259 437.576L669.073 437.576L669.073 442.657C669.073 447.229 669.411 450.389 669.58 451.858L669.355 451.858C666.815 447.343 662.411 443.956 656.427 443.956C649.991 443.956 645.588 447.624 645.588 453.834C645.588 456.599 646.661 458.631 648.185 460.044L654 457.617Z" fill="#000000" fill-rule="evenodd" opacity="1" stroke="none"/>
</g>
</g>
</g>
<g opacity="1">
<g opacity="1" vectornator:mask="#Fill_12">
<clipPath id="ClipPath_12">
<use overflow="#visible" xlink:href="#Fill_12"/>
</clipPath>
<g clip-path="url(#ClipPath_12)">
<path d="M619.481 567.815L619.481 558.105C619.481 553.138 620.103 547.379 621.683 543.032L616.546 540.041C611.691 541.903 606.328 546.195 603.677 549.467L603.677 535.751L625.917 535.751L625.917 530.556L591.483 530.556L591.483 535.751L597.183 535.751L597.183 556.75L603.393 559.122C606.386 554.492 610.958 549.807 614.796 547.323C613.893 549.693 612.99 553.364 612.99 558.105L612.99 567.815L619.481 567.815Z" fill="#000000" fill-rule="evenodd" opacity="1" stroke="none"/>
</g>
</g>
<g opacity="1" vectornator:mask="#Fill_13">
<clipPath id="ClipPath_13">
<use overflow="#visible" xlink:href="#Fill_13"/>
</clipPath>
<g clip-path="url(#ClipPath_13)">
<path d="M629.983 525.814C629.983 528.693 630.547 531.065 631.112 532.532L630.772 532.532C630.151 531.799 628.91 530.556 626.201 530.556L623.659 530.556L623.659 535.751L624.676 535.751C628.007 535.751 629.757 536.935 629.757 541.621L629.757 567.815L636.191 567.815L636.191 535.751L642.289 535.751L642.289 530.556L636.191 530.556L636.191 524.855L629.983 524.855L629.983 525.814Z" fill="#000000" fill-rule="evenodd" opacity="1" stroke="none"/>
</g>
</g>
<g opacity="1" vectornator:mask="#Fill_14">
<clipPath id="ClipPath_14">
<use overflow="#visible" xlink:href="#Fill_14"/>
</clipPath>
<g clip-path="url(#ClipPath_14)">
<path d="M649.684 534.678L653.862 538.967C655.498 537.217 657.644 535.751 660.128 535.751C662.611 535.751 664.532 537.105 664.532 539.759C664.532 542.806 661.82 545.347 655.724 546.646L658.885 551.839C660.298 551.499 661.594 551.048 662.781 550.54C664.983 551.557 667.297 553.589 667.297 556.58C667.297 559.573 665.377 561.831 661.764 561.831C655.498 561.831 650.247 554.153 648.215 544.274L642.401 546.646C644.773 556.073 650.869 567.815 661.82 567.815C669.499 567.815 673.677 562.676 673.677 556.862C673.677 551.951 670.683 548.96 667.804 547.209C669.669 545.289 670.797 542.806 670.797 539.871C670.797 533.661 665.716 530.048 660.014 530.048C655.387 530.048 652.056 532.08 649.684 534.678Z" fill="#000000" fill-rule="evenodd" opacity="1" stroke="none"/>
</g>
</g>
</g>
<g opacity="1">
<g opacity="1" vectornator:mask="#Fill_15">
<clipPath id="ClipPath_15">
<use overflow="#visible" xlink:href="#Fill_15"/>
</clipPath>
<g clip-path="url(#ClipPath_15)">
<path d="M324.2 747.277L320.394 751.792C322.652 754.826 326.2 756.503 329.554 756.503C334.072 756.503 337.039 753.988 338.587 750.179C339.103 751.341 339.748 752.375 340.458 753.213C338.007 755.02 336.652 757.729 336.652 760.761C336.652 764.18 338.265 767.276 341.555 768.695L346.586 765.018C344.845 764.18 344.006 762.89 344.006 761.341C344.006 758.955 345.812 757.471 348.328 757.471C351.878 757.471 353.942 759.858 353.942 763.341C353.942 768.502 349.62 771.471 340.974 771.471L336.652 771.471L336.652 777.471C342.393 778.051 343.877 779.083 357.619 787.536L362.586 782.567L358.006 779.857C353.813 777.406 351.556 776.374 349.231 775.858L349.231 775.6C355.942 774.697 361.167 770.891 361.167 763.341C361.167 759.277 359.619 755.923 356.91 753.73C358.651 751.857 359.619 749.276 359.619 746.18C359.619 744.954 359.49 743.793 359.232 742.503L365.812 742.503L365.812 736.568L318.394 736.568L318.394 742.503L334.975 742.503C334.459 746.502 333.04 750.437 329.554 750.437C327.425 750.437 325.813 749.083 324.2 747.277ZM352.781 745.599C352.781 748.309 351.62 750.502 348.586 750.502C344.716 750.502 342.651 746.825 342.458 742.503L352.33 742.503C352.652 743.277 352.781 744.374 352.781 745.599Z" fill="#000000" fill-rule="evenodd" opacity="1" stroke="none"/>
</g>
</g>
<g opacity="1" vectornator:mask="#Fill_16">
<clipPath id="ClipPath_16">
<use overflow="#visible" xlink:href="#Fill_16"/>
</clipPath>
<g clip-path="url(#ClipPath_16)">
<path d="M370.459 731.147C370.459 734.437 371.104 737.149 371.749 738.826L371.362 738.826C370.652 737.987 369.233 736.568 366.134 736.568L363.232 736.568L363.232 742.503L364.393 742.503C368.201 742.503 370.201 743.858 370.201 749.212L370.201 779.148L377.554 779.148L377.554 742.503L384.523 742.503L384.523 736.568L377.554 736.568L377.554 730.051L370.459 730.051L370.459 731.147Z" fill="#000000" fill-rule="evenodd" opacity="1" stroke="none"/>
</g>
</g>
<g opacity="1" vectornator:mask="#Fill_17">
<clipPath id="ClipPath_17">
<use overflow="#visible" xlink:href="#Fill_17"/>
</clipPath>
<g clip-path="url(#ClipPath_17)">
<path d="M412.135 745.599C413.619 744.245 416.393 742.31 420.523 742.31C425.297 742.31 428.651 744.761 430.651 748.567L421.491 754.697C419.749 749.47 416.457 746.567 412.135 745.599ZM440.136 779.148L440.136 742.503L447.103 742.503L447.103 736.568L440.136 736.568L440.136 730.051L432.78 730.051L432.78 731.986C432.78 735.34 432.973 739.6 434.134 742.89L433.941 743.019C432.006 740.052 427.619 736.052 420.072 736.052C411.942 736.052 406.071 740.761 403.104 745.019L406.716 750.244C407.555 750.244 408.265 750.373 408.974 750.566C413.232 751.47 415.038 755.084 416.135 758.245L410.135 762.245L413.683 767.599L432.586 754.826C432.78 756.116 432.844 757.536 432.844 758.955L432.844 779.148L440.136 779.148Z" fill="#000000" fill-rule="evenodd" opacity="1" stroke="none"/>
</g>
</g>
<g opacity="1" vectornator:mask="#Fill_18">
<clipPath id="ClipPath_18">
<use overflow="#visible" xlink:href="#Fill_18"/>
</clipPath>
<g clip-path="url(#ClipPath_18)">
<path d="M423.62 730.567C418.717 726.632 412.006 723.987 405.555 723.987C399.489 723.987 396.264 727.471 396.264 732.502L396.264 736.568L403.168 736.568L403.168 742.503L396.264 742.503L396.264 779.148L388.91 779.148L388.91 742.503L381.941 742.503L381.941 736.568L388.91 736.568L388.91 731.986C388.91 723.987 394.716 717.405 405.426 717.405C414.844 717.405 422.91 721.342 427.813 725.342L423.62 730.567Z" fill="#000000" fill-rule="evenodd" opacity="1" stroke="none"/>
</g>
</g>
<g opacity="1" vectornator:mask="#Fill_19">
<clipPath id="ClipPath_19">
<use overflow="#visible" xlink:href="#Fill_19"/>
</clipPath>
<g clip-path="url(#ClipPath_19)">
<path d="M470.395 764.438C467.296 763.019 465.103 759.729 465.103 755.729C465.103 750.05 469.36 745.986 475.684 745.986C483.941 745.986 488.523 752.246 488.523 760.051C488.523 769.988 481.748 776.696 471.814 776.696C458.458 776.696 451.231 765.276 448.135 750.05L454.846 747.083C457.104 759.858 462.2 770.117 471.749 770.117C477.813 770.117 481.296 765.47 481.296 759.922C481.296 755.665 479.555 752.633 476.2 752.633C474.071 752.633 472.459 753.988 472.459 756.245C472.459 757.923 473.426 759.406 475.104 760.116L470.395 764.438ZM492.652 736.568L492.652 742.503L444.522 742.503L444.522 736.568L492.652 736.568Z" fill="#000000" fill-rule="evenodd" opacity="1" stroke="none"/>
</g>
</g>
<g opacity="1" vectornator:mask="#Fill_20">
<clipPath id="ClipPath_20">
<use overflow="#visible" xlink:href="#Fill_20"/>
</clipPath>
<g clip-path="url(#ClipPath_20)">
<path d="M512.781 749.083C512.781 752.05 515.167 754.439 518.199 754.439C521.296 754.439 523.685 752.05 523.685 749.083C523.685 745.922 521.296 743.535 518.199 743.535C515.167 743.535 512.781 745.922 512.781 749.083ZM512.781 773.987C512.781 776.955 515.167 779.341 518.199 779.341C521.296 779.341 523.685 776.955 523.685 773.987C523.685 770.826 521.296 768.437 518.199 768.437C515.167 768.437 512.781 770.826 512.781 773.987Z" fill="#000000" fill-rule="evenodd" opacity="1" stroke="none"/>
</g>
</g>
<g opacity="1" vectornator:mask="#Fill_21">
<clipPath id="ClipPath_21">
<use overflow="#visible" xlink:href="#Fill_21"/>
</clipPath>
<g clip-path="url(#ClipPath_21)">
<path d="M569.038 764.373C569.038 768.631 566.651 772.439 561.104 772.439C556.975 772.439 554.909 770.504 554.909 768.115C554.909 766.567 555.747 765.276 557.104 764.696L553.361 759.729C550.135 760.89 547.49 763.406 547.49 768.115C547.49 774.374 552.651 779.148 561.233 779.148C571.812 779.148 576.265 771.987 576.265 764.373C576.265 748.373 558.007 748.954 558.007 738.633C558.007 737.02 558.33 736.052 558.394 735.859L551.167 737.149C550.974 737.858 550.845 738.826 550.845 739.794C550.845 752.762 569.038 753.084 569.038 764.373Z" fill="#000000" fill-rule="evenodd" opacity="1" stroke="none"/>
</g>
</g>
<g opacity="1" vectornator:mask="#Fill_22">
<clipPath id="ClipPath_22">
<use overflow="#visible" xlink:href="#Fill_22"/>
</clipPath>
<g clip-path="url(#ClipPath_22)">
<path d="M611.62 763.664C611.62 767.921 609.233 771.084 605.683 772.826C606.264 770.955 606.393 769.276 606.393 767.663C606.393 760.374 601.167 755.536 593.556 755.536C585.812 755.536 581.103 760.761 581.103 768.179C581.103 774.632 584.845 778.954 590.521 779.47L592.781 773.342C589.554 773.213 587.941 771.213 587.941 767.986C587.941 764.244 590.263 761.793 593.814 761.793C597.426 761.793 600.2 763.986 600.2 768.76C600.2 770.826 599.619 773.471 598.329 775.535L602.07 779.47C611.555 779.083 618.716 773.342 618.716 763.599C618.716 745.083 591.362 746.825 591.362 737.858C591.362 736.568 591.685 735.601 591.685 735.407L584.458 736.697C584.264 737.407 584.2 738.374 584.2 739.342C584.2 752.568 611.62 750.695 611.62 763.664Z" fill="#000000" fill-rule="evenodd" opacity="1" stroke="none"/>
</g>
</g>
<g opacity="1" vectornator:mask="#Fill_23">
<clipPath id="ClipPath_23">
<use overflow="#visible" xlink:href="#Fill_23"/>
</clipPath>
<g clip-path="url(#ClipPath_23)">
<path d="M628.394 739.02L631.684 744.761C632.394 743.987 633.619 743.342 634.78 743.342C636.716 743.342 637.296 744.696 637.296 747.341L637.296 753.278C637.296 758.632 640.328 762.309 645.878 762.309C649.619 762.309 652.264 760.632 654.651 758.568C655.167 759.471 655.425 760.954 655.425 762.116C655.425 767.599 651.361 771.278 644.652 771.278C637.103 771.278 629.168 765.47 629.039 752.181L622.006 753.794C622.264 766.76 631.103 777.922 644.652 777.922C655.748 777.922 662.523 771.407 662.523 761.793C662.523 756.503 659.62 751.921 656.651 750.05C652.458 753.536 649.103 755.6 646.846 755.6C645.491 755.6 644.717 754.891 644.717 752.955L644.717 747.083C644.717 739.923 640.522 736.568 634.974 736.568C632.394 736.568 629.749 737.729 628.394 739.02Z" fill="#000000" fill-rule="evenodd" opacity="1" stroke="none"/>
</g>
</g>
<g opacity="1" vectornator:mask="#Fill_24">
<clipPath id="ClipPath_24">
<use overflow="#visible" xlink:href="#Fill_24"/>
</clipPath>
<g clip-path="url(#ClipPath_24)">
<path d="M679.878 757.6C676.263 757.6 673.49 756.052 673.49 752.373C673.49 747.47 678.007 743.342 682.587 743.342C685.361 743.342 686.716 744.825 686.716 747.341L686.716 755.665C685.103 756.632 682.781 757.6 679.878 757.6ZM686.716 768.566C686.716 775.729 690.715 779.148 696.459 779.148C699.039 779.148 701.748 777.987 703.039 776.696L699.749 770.955C699.104 771.729 697.813 772.374 696.652 772.374C694.717 772.374 693.876 771.02 693.876 768.373L693.876 746.889C693.876 740.955 690.393 736.568 682.91 736.568C673.038 736.568 666.394 744.374 666.394 752.762C666.394 760.309 671.877 764.244 679.168 764.244C682.458 764.244 684.974 763.47 686.716 762.503L686.716 768.566Z" fill="#000000" fill-rule="evenodd" opacity="1" stroke="none"/>
</g>
</g>
</g>
</g>
<g opacity="1">
<path d="M93.7447 689.037L88.0572 671.404L72.3645 681.257L79.3422 664.091L60.9875 661.552L77.3661 652.889L64.9397 639.146L83.0557 643.036L82.3697 624.52L93.7447 639.146L105.122 624.52L104.434 643.036L122.55 639.146L110.123 652.889L126.5 661.552L108.147 664.091L115.125 681.257L99.4321 671.404L93.7447 689.037Z" fill="#000000" fill-rule="evenodd" opacity="1" stroke="none"/>
<path d="M923.551 693.61L917.863 675.976L902.171 685.826L909.148 668.663L890.796 666.123L907.174 657.46L894.746 643.718L912.862 647.607L912.176 629.094L923.551 643.718L934.928 629.094L934.242 647.607L952.356 643.718L939.929 657.46L956.306 666.123L937.953 668.663L944.931 685.826L929.238 675.976L923.551 693.61Z" fill="#000000" fill-rule="evenodd" opacity="1" stroke="none"/>
</g>
</g>
<g opacity="1">
<path d="M450.724 939.998C458.076 943.671 462.514 948.202 461.408 956.712C460.116 966.679 449.892 976.89 437.248 975.25C428.092 974.061 424.308 968.296 425.295 960.677L429.619 927.37L421.919 926.37L423.065 917.537L470.313 923.669L469.167 932.503L439.828 928.694L439.788 929.019C439.334 932.505 440.904 935.014 447.862 938.556L450.724 939.998ZM437.953 943.778C437.953 943.778 437.996 947.905 437.134 954.549L436.145 962.168C435.924 963.871 436.82 965.223 439.089 965.518C443.303 966.064 449.902 961.563 450.702 955.405C451.102 952.326 449.356 950.533 446.03 948.866L443.864 947.761C440.852 946.215 439.357 945.032 438.278 943.821L437.953 943.778Z" fill="#000000" fill-rule="evenodd" opacity="1" stroke="none"/>
<path d="M446.593 906.418C441.488 905.753 438.459 903.055 437.11 898.842L428.896 901.814C430.7 908.228 436.708 913.374 445.542 914.522C454.457 915.679 461.415 912.213 464.797 906.471L457.613 901.502C455.235 905.231 451.618 907.069 446.593 906.418ZM442.774 895.208C442.396 898.126 444.105 900.821 447.266 901.231C450.345 901.631 452.687 899.462 453.065 896.544C453.444 893.628 451.745 890.852 448.666 890.452C445.505 890.041 443.153 892.29 442.774 895.208Z" fill="#000000" fill-rule="evenodd" opacity="1" stroke="none"/>
<path d="M476.626 916.907C476.131 920.715 476.49 924.306 477.235 927.452L476.669 927.378C475.854 926.037 474.119 924.164 470.39 923.68L467.068 923.248L465.922 932.081L466.247 932.126C471.351 932.789 473.826 934.674 472.796 942.617L468.115 978.679L479.462 980.152L485.371 934.608L493.475 935.659L494.622 926.826L486.517 925.774L487.59 917.507L476.731 916.098L476.626 916.907Z" fill="#000000" fill-rule="evenodd" opacity="1" stroke="none"/>
<path d="M526.766 979.32L526.493 966.902C526.327 959.467 526.942 950.298 529.329 943.626L520.558 938.751C513.748 941.353 506.751 946.494 503.089 950.99L502.713 933.913L534.494 933.212L534.296 924.306L483.315 925.432L483.513 934.339L491.274 934.167L491.94 964.314L502.812 967.997C506.431 961.624 512.978 954.612 517.49 951.571C516.247 954.541 514.892 959.802 515.056 967.236L515.329 979.574L526.766 979.32Z" fill="#000000" fill-rule="evenodd" opacity="1" stroke="none"/>
<path d="M542.257 934.371C543.974 932.69 546.647 930.774 550.845 930.103C556.25 929.238 560.375 931.23 563.385 935.053L554.38 943.441C551.462 938.115 547.424 935.117 542.257 934.371ZM583.774 971.519L576.532 926.166L584.602 924.878L583.198 916.081L575.128 917.371L573.814 909.14L562.514 910.944L562.811 912.8C563.275 915.705 563.959 919.982 566.929 925.63L566.712 925.83C563.789 923.069 557.579 919.427 548.542 920.872C538.373 922.495 531.529 929.38 528.452 935.498L534.827 942.26C536.13 942.134 537.3 942.196 538.319 942.361C542.908 943.118 545.49 946.845 547.267 950.201L540.994 956.003L547.677 963.129L567.705 943.959C568.109 945.466 568.436 946.987 568.707 948.681L572.636 973.295L583.774 971.519Z" fill="#000000" fill-rule="evenodd" opacity="1" stroke="none"/>
<path d="M569.892 994.839C566.019 995.456 563.45 993.88 562.946 990.734C562.394 987.263 564.572 984.846 568.526 984.214C570.464 983.907 572.545 983.986 574.599 984.406L574.777 985.534C575.513 990.136 573.603 994.247 569.892 994.839L569.892 994.839ZM596.342 997.234L602.651 990.104C597.015 985.375 591.063 981.279 584.941 978.697L582.996 966.513L572.021 968.264L573.18 975.527C570.576 975.282 567.862 975.385 565.198 975.809C557.048 977.11 551.146 983.681 552.524 992.314C553.76 1000.06 560.953 1005.2 570.96 1003.61C580.886 1002.02 585.01 996.23 585.728 989.33C589.221 991.504 592.803 994.241 596.342 997.234Z" fill="#000000" fill-rule="evenodd" opacity="1" stroke="none"/>
<path d="M596.196 971.741C597.398 975.731 600.993 977.465 604.593 976.381C608.192 975.297 610.153 971.891 608.951 967.9C607.749 963.909 604.257 962.23 600.658 963.314C597.058 964.397 594.996 967.75 596.196 971.741ZM604.545 917.848L575.437 926.615L572.868 918.085L620.522 903.734L623.092 912.262L615.267 914.619L626.059 950.457L630.577 951.571L625.758 960.789L587.683 951.689L585.066 943.002C587.401 938.289 594.568 927.51 605.418 920.743L604.545 917.848ZM608.504 930.995C602.819 935.352 598.535 941.25 597.404 943.725L614.222 947.707L614.533 947.612C613.319 945.845 611.355 940.463 609.919 935.689L608.504 930.995Z" fill="#000000" fill-rule="evenodd" opacity="1" stroke="none"/>
</g>
</g>
</g>
</svg>
