<?xml version="1.0" encoding="UTF-8" standalone="no"?>
<svg height="100%" stroke-miterlimit="10" style="fill-rule:nonzero;clip-rule:evenodd;stroke-linecap:round;stroke-linejoin:round;" version="1.1" viewBox="0 0 929 340" width="100%" xml:space="preserve" xmlns="http://www.w3.org/2000/svg" xmlns:vectornator="http://vectornator.io" xmlns:xlink="http://www.w3.org/1999/xlink">
<metadata>
<vectornator:setting key="IsTimeLapseWatermarkDisabled" value="false"/>
<vectornator:setting key="UndoHistoryDisabled" value="true"/>
<vectornator:setting key="VNDimensionsVisible" value="true"/>
<vectornator:setting key="VNSnapToGuides" value="true"/>
<vectornator:setting key="WDCMYKEnabledKey" value="false"/>
<vectornator:setting key="WDDisplayWhiteBackground" value="false"/>
<vectornator:setting key="WDDynamicGuides" value="false"/>
<vectornator:setting key="WDGuidesVisible" value="true"/>
<vectornator:setting key="WDIsolateActiveLayer" value="false"/>
<vectornator:setting key="WDOutlineMode" value="false"/>
<vectornator:setting key="WDRulersVisible" value="true"/>
<vectornator:setting key="WDSnapToEdges" value="false"/>
<vectornator:setting key="WDSnapToGrid" value="false"/>
<vectornator:setting key="WDSnapToPoints" value="false"/>
<vectornator:setting key="WDUnits" value="Pixels"/>
</metadata>
<defs>
<path d="M91.5032 168.349L172.562 168.349L172.562 168.349L172.562 199.03L172.562 199.03L91.5032 199.03L91.5032 199.03L91.5032 168.349L91.5032 168.349Z" fill-rule="evenodd" id="Fill"/>
<path d="M91.5032 168.349L172.562 168.349L172.562 168.349L172.562 199.03L172.562 199.03L91.5032 199.03L91.5032 199.03L91.5032 168.349L91.5032 168.349Z" fill-rule="evenodd" id="Fill_2"/>
<path d="M91.5032 168.349L172.562 168.349L172.562 168.349L172.562 199.03L172.562 199.03L91.5032 199.03L91.5032 199.03L91.5032 168.349L91.5032 168.349Z" fill-rule="evenodd" id="Fill_3"/>
<path d="M91.5032 168.349L172.562 168.349L172.562 168.349L172.562 199.03L172.562 199.03L91.5032 199.03L91.5032 199.03L91.5032 168.349L91.5032 168.349Z" fill-rule="evenodd" id="Fill_4"/>
<path d="M91.5032 168.349L172.562 168.349L172.562 168.349L172.562 199.03L172.562 199.03L91.5032 199.03L91.5032 199.03L91.5032 168.349L91.5032 168.349Z" fill-rule="evenodd" id="Fill_5"/>
<path d="M105.985 136.026L150.714 136.026L150.714 136.026L150.714 168.063L150.714 168.063L105.985 168.063L105.985 168.063L105.985 136.026L105.985 136.026Z" fill-rule="evenodd" id="Fill_6"/>
<path d="M105.985 136.026L150.714 136.026L150.714 136.026L150.714 168.063L150.714 168.063L105.985 168.063L105.985 168.063L105.985 136.026L105.985 136.026Z" fill-rule="evenodd" id="Fill_7"/>
<path d="M105.985 136.026L150.714 136.026L150.714 136.026L150.714 168.063L150.714 168.063L105.985 168.063L105.985 168.063L105.985 136.026L105.985 136.026Z" fill-rule="evenodd" id="Fill_8"/>
<path d="M190.073 135.887L234.802 135.887L234.802 135.887L234.802 167.925L234.802 167.925L190.073 167.925L190.073 167.925L190.073 135.887L190.073 135.887Z" fill-rule="evenodd" id="Fill_9"/>
<path d="M190.073 135.887L234.802 135.887L234.802 135.887L234.802 167.925L234.802 167.925L190.073 167.925L190.073 167.925L190.073 135.887L190.073 135.887Z" fill-rule="evenodd" id="Fill_10"/>
<path d="M190.073 135.887L234.802 135.887L234.802 135.887L234.802 167.925L234.802 167.925L190.073 167.925L190.073 167.925L190.073 135.887L190.073 135.887Z" fill-rule="evenodd" id="Fill_11"/>
<path d="M191.923 168.709L236.652 168.709L236.652 168.709L236.652 195.256L236.652 195.256L191.923 195.256L191.923 195.256L191.923 168.709L191.923 168.709Z" fill-rule="evenodd" id="Fill_12"/>
<path d="M191.923 168.709L236.652 168.709L236.652 168.709L236.652 195.256L236.652 195.256L191.923 195.256L191.923 195.256L191.923 168.709L191.923 168.709Z" fill-rule="evenodd" id="Fill_13"/>
<path d="M191.923 168.709L236.652 168.709L236.652 168.709L236.652 195.256L236.652 195.256L191.923 195.256L191.923 195.256L191.923 168.709L191.923 168.709Z" fill-rule="evenodd" id="Fill_14"/>
<path d="M104.67 236.664L240.763 236.664L240.763 236.664L240.763 261.879L240.763 261.879L104.67 261.879L104.67 261.879L104.67 236.664L104.67 236.664Z" fill-rule="evenodd" id="Fill_15"/>
<path d="M104.67 236.664L240.763 236.664L240.763 236.664L240.763 261.879L240.763 261.879L104.67 261.879L104.67 261.879L104.67 236.664L104.67 236.664Z" fill-rule="evenodd" id="Fill_16"/>
<path d="M104.67 236.664L240.763 236.664L240.763 236.664L240.763 261.879L240.763 261.879L104.67 261.879L104.67 261.879L104.67 236.664L104.67 236.664Z" fill-rule="evenodd" id="Fill_17"/>
<path d="M104.67 236.664L240.763 236.664L240.763 236.664L240.763 261.879L240.763 261.879L104.67 261.879L104.67 261.879L104.67 236.664L104.67 236.664Z" fill-rule="evenodd" id="Fill_18"/>
<path d="M104.67 236.664L240.763 236.664L240.763 236.664L240.763 261.879L240.763 261.879L104.67 261.879L104.67 261.879L104.67 236.664L104.67 236.664Z" fill-rule="evenodd" id="Fill_19"/>
<path d="M104.67 236.664L240.763 236.664L240.763 236.664L240.763 261.879L240.763 261.879L104.67 261.879L104.67 261.879L104.67 236.664L104.67 236.664Z" fill-rule="evenodd" id="Fill_20"/>
<path d="M104.67 236.664L240.763 236.664L240.763 236.664L240.763 261.879L240.763 261.879L104.67 261.879L104.67 261.879L104.67 236.664L104.67 236.664Z" fill-rule="evenodd" id="Fill_21"/>
<path d="M104.67 236.664L240.763 236.664L240.763 236.664L240.763 261.879L240.763 261.879L104.67 261.879L104.67 261.879L104.67 236.664L104.67 236.664Z" fill-rule="evenodd" id="Fill_22"/>
<path d="M104.67 236.664L240.763 236.664L240.763 236.664L240.763 261.879L240.763 261.879L104.67 261.879L104.67 261.879L104.67 236.664L104.67 236.664Z" fill-rule="evenodd" id="Fill_23"/>
<path d="M104.67 236.664L240.763 236.664L240.763 236.664L240.763 261.879L240.763 261.879L104.67 261.879L104.67 261.879L104.67 236.664L104.67 236.664Z" fill-rule="evenodd" id="Fill_24"/>
<path d="M371.829 75.7878L925.94 75.7878L925.94 75.7878L925.94 264.212L925.94 264.212L371.829 264.212L371.829 264.212L371.829 75.7878L371.829 75.7878Z" fill-rule="evenodd" id="Fill_25"/>
<path d="M371.829 75.7878L925.94 75.7878L925.94 75.7878L925.94 264.212L925.94 264.212L371.829 264.212L371.829 264.212L371.829 75.7878L371.829 75.7878Z" fill-rule="evenodd" id="Fill_26"/>
<path d="M371.829 75.7878L925.94 75.7878L925.94 75.7878L925.94 264.212L925.94 264.212L371.829 264.212L371.829 264.212L371.829 75.7878L371.829 75.7878Z" fill-rule="evenodd" id="Fill_27"/>
<path d="M371.829 75.7878L925.94 75.7878L925.94 75.7878L925.94 264.212L925.94 264.212L371.829 264.212L371.829 264.212L371.829 75.7878L371.829 75.7878Z" fill-rule="evenodd" id="Fill_28"/>
<path d="M371.829 75.7878L925.94 75.7878L925.94 75.7878L925.94 264.212L925.94 264.212L371.829 264.212L371.829 264.212L371.829 75.7878L371.829 75.7878Z" fill-rule="evenodd" id="Fill_29"/>
<path d="M371.829 75.7878L925.94 75.7878L925.94 75.7878L925.94 264.212L925.94 264.212L371.829 264.212L371.829 264.212L371.829 75.7878L371.829 75.7878Z" fill-rule="evenodd" id="Fill_30"/>
<path d="M371.829 75.7878L925.94 75.7878L925.94 75.7878L925.94 264.212L925.94 264.212L371.829 264.212L371.829 264.212L371.829 75.7878L371.829 75.7878Z" fill-rule="evenodd" id="Fill_31"/>
<path d="M371.829 75.7878L925.94 75.7878L925.94 75.7878L925.94 264.212L925.94 264.212L371.829 264.212L371.829 264.212L371.829 75.7878L371.829 75.7878Z" fill-rule="evenodd" id="Fill_32"/>
<path d="M371.829 75.7878L925.94 75.7878L925.94 75.7878L925.94 264.212L925.94 264.212L371.829 264.212L371.829 264.212L371.829 75.7878L371.829 75.7878Z" fill-rule="evenodd" id="Fill_33"/>
<path d="M371.829 75.7878L925.94 75.7878L925.94 75.7878L925.94 264.212L925.94 264.212L371.829 264.212L371.829 264.212L371.829 75.7878L371.829 75.7878Z" fill-rule="evenodd" id="Fill_34"/>
<path d="M371.829 75.7878L925.94 75.7878L925.94 75.7878L925.94 264.212L925.94 264.212L371.829 264.212L371.829 264.212L371.829 75.7878L371.829 75.7878Z" fill-rule="evenodd" id="Fill_35"/>
<path d="M371.829 75.7878L925.94 75.7878L925.94 75.7878L925.94 264.212L925.94 264.212L371.829 264.212L371.829 264.212L371.829 75.7878L371.829 75.7878Z" fill-rule="evenodd" id="Fill_36"/>
<path d="M371.829 75.7878L925.94 75.7878L925.94 75.7878L925.94 264.212L925.94 264.212L371.829 264.212L371.829 264.212L371.829 75.7878L371.829 75.7878Z" fill-rule="evenodd" id="Fill_37"/>
<path d="M371.829 75.7878L925.94 75.7878L925.94 75.7878L925.94 264.212L925.94 264.212L371.829 264.212L371.829 264.212L371.829 75.7878L371.829 75.7878Z" fill-rule="evenodd" id="Fill_38"/>
<path d="M371.829 75.7878L925.94 75.7878L925.94 75.7878L925.94 264.212L925.94 264.212L371.829 264.212L371.829 264.212L371.829 75.7878L371.829 75.7878Z" fill-rule="evenodd" id="Fill_39"/>
<path d="M371.829 75.7878L925.94 75.7878L925.94 75.7878L925.94 264.212L925.94 264.212L371.829 264.212L371.829 264.212L371.829 75.7878L371.829 75.7878Z" fill-rule="evenodd" id="Fill_40"/>
<path d="M371.829 75.7878L925.94 75.7878L925.94 75.7878L925.94 264.212L925.94 264.212L371.829 264.212L371.829 264.212L371.829 75.7878L371.829 75.7878Z" fill-rule="evenodd" id="Fill_41"/>
<path d="M371.829 75.7878L925.94 75.7878L925.94 75.7878L925.94 264.212L925.94 264.212L371.829 264.212L371.829 264.212L371.829 75.7878L371.829 75.7878Z" fill-rule="evenodd" id="Fill_42"/>
<path d="M371.829 75.7878L925.94 75.7878L925.94 75.7878L925.94 264.212L925.94 264.212L371.829 264.212L371.829 264.212L371.829 75.7878L371.829 75.7878Z" fill-rule="evenodd" id="Fill_43"/>
<path d="M371.829 75.7878L925.94 75.7878L925.94 75.7878L925.94 264.212L925.94 264.212L371.829 264.212L371.829 264.212L371.829 75.7878L371.829 75.7878Z" fill-rule="evenodd" id="Fill_44"/>
<path d="M371.829 75.7878L925.94 75.7878L925.94 75.7878L925.94 264.212L925.94 264.212L371.829 264.212L371.829 264.212L371.829 75.7878L371.829 75.7878Z" fill-rule="evenodd" id="Fill_45"/>
<path d="M371.829 75.7878L925.94 75.7878L925.94 75.7878L925.94 264.212L925.94 264.212L371.829 264.212L371.829 264.212L371.829 75.7878L371.829 75.7878Z" fill-rule="evenodd" id="Fill_46"/>
<path d="M371.829 75.7878L925.94 75.7878L925.94 75.7878L925.94 264.212L925.94 264.212L371.829 264.212L371.829 264.212L371.829 75.7878L371.829 75.7878Z" fill-rule="evenodd" id="Fill_47"/>
</defs>
<g id="Layer-1" vectornator:layerName="Layer 1">
<g opacity="1">
<g opacity="1">
<g opacity="1">
<path d="M171.962 337.156C265.244 337.156 340.865 262.317 340.865 170C340.865 77.6826 265.244 2.84384 171.962 2.84384C162.351 2.84384 152.926 3.63931 143.752 5.16534C110.907 10.6313 81.2797 25.4778 57.7794 46.8256C24.1439 77.3807 3.05992 121.253 3.05992 170C3.05992 262.317 78.6805 337.156 171.962 337.156Z" fill="none" fill-rule="evenodd" opacity="1" stroke="#000080" stroke-linecap="butt" stroke-linejoin="miter" stroke-width="1.44297"/>
<path d="M171.962 296.715C242.676 296.715 300.001 239.982 300.001 170C300.001 100.018 242.676 43.2858 171.962 43.2858C101.249 43.2858 43.9234 100.018 43.9234 170C43.9234 239.982 101.249 296.715 171.962 296.715Z" fill="none" fill-rule="evenodd" opacity="1" stroke="#000080" stroke-linecap="butt" stroke-linejoin="miter" stroke-width="1.44297"/>
</g>
<g opacity="1">
<path d="M13.9313 151.923C15.4683 151.962 16.8811 151.675 18.1022 151.255L18.0962 151.481C17.5965 151.857 16.9218 152.616 16.8831 154.102L16.0336 186.088L19.5955 186.181L20.2413 161.893L27.6909 162.087C29.4892 162.133 31.9432 162.068 32.7669 161.83L32.8295 161.928L31.1226 164.635C30.2473 164.354 29.3034 164.2 28.2572 164.172C24.2373 164.068 21.1563 166.803 21.049 170.846C20.9626 174.113 23.2209 176.534 25.9979 176.606C27.8608 176.654 29.6521 175.698 30.29 173.87L28.1111 170.901C27.7624 171.733 27.1971 172.106 26.5105 172.088C25.7266 172.068 25.1524 171.502 25.1762 170.598C25.209 169.336 26.3436 168.493 28.1092 168.538C30.6904 168.605 32.448 170.139 32.3744 172.92C32.2612 177.19 27.7127 179.789 21.6322 180.926L23.4852 185.02C30.8553 183.334 36.287 179.528 36.4599 172.994C36.5284 170.44 35.8002 168.318 34.4658 166.826L39.213 159.246L36.3158 156.291L35.3253 157.851L20.3585 157.462L20.4132 155.393C20.4678 153.354 21.1166 152.303 24.3188 152.387L38.8613 152.765L38.9825 148.237L20.6158 147.759L20.7013 144.525L17.1394 144.433L17.054 147.667L13.7206 147.579L13.6044 151.914L13.9313 151.923Z" fill="#000000" fill-rule="evenodd" opacity="1" stroke="none"/>
<path d="M20.5145 121.922C18.0426 124.079 16.3694 127.035 15.7822 129.756C15.21 132.413 16.2572 134.222 18.6228 134.722L20.4132 135.1L21.0947 131.936L24.5801 132.672L23.8985 135.836L41.8658 139.631L40.9179 144.029L22.9497 140.233L22.2671 143.399L18.7827 142.662L19.4643 139.498L17.4186 139.065C13.2626 138.188 10.6436 134.526 11.8299 129.019C12.7996 124.528 15.2934 121.018 17.8746 118.818L20.5145 121.922Z" fill="#000000" fill-rule="evenodd" opacity="1" stroke="none"/>
<path d="M31.3243 111.674L27.9452 110.556L21.0639 130.931L24.444 132.048L24.9715 130.483L25.6541 130.708C27.3719 129.196 30.2463 128.442 32.8821 129.006C32.7977 130.888 33.7783 132.372 35.4216 132.917C37.2815 133.531 38.7401 132.479 39.2686 130.915C39.6631 129.749 39.4157 128.235 38.2175 126.985C40.3903 125.145 43.4823 124.258 46.3973 124.403L47.7138 120.507L30.289 114.742L31.3243 111.674ZM39.1007 122.023C37.519 122.524 35.8121 123.596 34.591 125.068C30.9944 124.084 27.9959 124.899 26.8374 125.472L26.6824 125.42L28.9 118.854L33.1782 120.27C37.2716 121.623 39.0799 121.881 39.0799 121.881L39.1007 122.023Z" fill="#000000" fill-rule="evenodd" opacity="1" stroke="none"/>
<path d="M50.5632 117.161C49.0739 116.419 48.6686 114.913 49.3442 113.584C50.0198 112.254 51.4684 111.708 52.9577 112.449C54.447 113.191 54.8971 114.682 54.2215 116.011C53.5459 117.341 52.0536 117.901 50.5632 117.161ZM37.213 100.085L31.7485 110.838L28.5652 109.252L37.5101 91.651L40.6934 93.235L39.2249 96.1249L52.601 102.784L54.1668 101.788L55.518 105.684L42.3983 114.146L39.1564 112.534C38.4301 110.578 37.2726 105.583 38.293 100.622L37.213 100.085ZM42.1191 102.528C41.8201 105.348 42.3536 108.186 42.7609 109.184L48.5444 105.436L48.603 105.32C47.7555 105.189 45.6531 104.286 43.8707 103.399L42.1191 102.528Z" fill="#000000" fill-rule="evenodd" opacity="1" stroke="none"/>
<path d="M37.3372 86.7582C38.6308 87.5782 39.9909 88.0561 41.2567 88.3196L41.1335 88.5104C40.5086 88.5763 39.5349 88.8811 38.7252 90.1348L38.0019 91.2517L41.0024 93.1524L41.0729 93.0442C42.1837 91.3275 43.2875 90.7601 45.987 92.469L58.2394 100.23L60.7063 96.4149L45.2329 86.6137L46.9944 83.888L43.9939 81.9864L42.2314 84.712L39.4226 82.9323L37.061 86.5842L37.3372 86.7582Z" fill="#000000" fill-rule="evenodd" opacity="1" stroke="none"/>
<path d="M54.6427 74.0091L47.056 83.4151L44.2711 81.2145L56.6914 65.8165L59.4763 68.0171L57.4376 70.545L69.1385 79.7907L70.8782 79.1369L71.3879 83.2233L56.7878 88.827L53.9512 86.5861C53.6482 84.5242 53.5558 79.4013 55.5886 74.7564L54.6427 74.0091ZM58.9358 77.4004C58.0546 80.0995 57.986 82.9844 58.1768 84.0454L64.6159 81.5577L64.6974 81.4574C63.8966 81.1545 62.0268 79.8428 60.4679 78.6118L58.9358 77.4004Z" fill="#000000" fill-rule="evenodd" opacity="1" stroke="none"/>
<path d="M57.534 60.9984C58.6298 62.0643 59.8618 62.8087 61.0451 63.3249L60.8852 63.4861C60.2602 63.4232 59.2438 63.5235 58.1907 64.5844L57.2498 65.5304L59.7923 68.0023L59.8837 67.9109C61.3273 66.4566 62.5265 66.1262 64.8107 68.3484L75.1872 78.4388L78.3954 75.2087L65.2915 62.4645L67.5827 60.1568L65.0412 57.6858L62.7501 59.9926L60.3715 57.6789L57.3015 60.7713L57.534 60.9984Z" fill="#000000" fill-rule="evenodd" opacity="1" stroke="none"/>
<path d="M92.4779 63.0977L89.3234 59.2984C87.4347 57.0241 85.3631 54.0192 84.465 51.3565L80.5007 51.9848C79.0015 54.4597 78.0705 57.7723 78.0298 60.0653L73.692 54.8422L83.5161 46.8521L81.2548 44.1275L65.4942 56.9434L67.7565 59.6681L70.1559 57.7173L77.8132 66.9413L82.144 65.4301C81.7069 62.5599 82.0357 58.7763 82.7034 56.7261C83.0462 57.9552 83.9195 59.9237 85.8082 62.199L88.9419 65.9738L92.4779 63.0977Z" fill="#000000" fill-rule="evenodd" opacity="1" stroke="none"/>
<path d="M117.763 21.6538C114.529 21.0285 111.141 21.5162 108.603 22.7128C106.124 23.8829 105.312 25.8062 106.354 27.9684L107.142 29.6036L110.092 28.2113L111.625 31.3941L108.675 32.7864L116.581 49.1992L112.479 51.1343L104.573 34.7215L101.622 36.1138L100.088 32.93L103.04 31.5387L102.139 29.6695C100.311 25.8721 101.649 21.585 106.784 19.1622C110.974 17.1858 115.307 17.0059 118.642 17.6903L117.763 21.6538Z" fill="#000000" fill-rule="evenodd" opacity="1" stroke="none"/>
<path d="M118.896 33.5376C120.903 38.1049 124.673 41.0833 128.607 39.8807C130.731 39.2318 131.341 37.8935 130.975 36.7195C130.791 36.1325 130.517 35.9113 130.334 35.7638L127.645 36.2475C124.728 36.7667 123.218 35.8729 122.619 33.9575C121.809 31.3607 123.048 28.6449 124.417 26.6695L112.485 30.3164L111.434 26.9468L140.514 18.059L141.565 21.4277L130.882 24.6931C131.987 26.1503 134.331 27.1946 137.986 26.0786L139.017 25.7629L141.519 28.519C141.001 30.9123 141.33 33.7235 142.131 36.2898L143.405 40.3694L139.094 41.687L137.724 37.2977C137.011 35.0106 136.625 32.3518 137.241 30.2673C132.942 31.0726 129.897 29.4305 128.355 27.6665C127.085 29.4089 126.703 30.813 126.982 31.7097C127.108 32.1119 127.4 32.3941 128.47 32.2024L132 31.5642C133.39 32.2909 134.708 33.4452 135.288 35.2997C136.214 38.2672 134.749 42.2367 129.877 43.7253C123.816 45.5778 118.14 41.861 115.373 36.1718L118.896 33.5376Z" fill="#000000" fill-rule="evenodd" opacity="1" stroke="none"/>
<path d="M147.1 36.7529C147.372 38.4461 148.984 39.5995 150.726 39.3242C152.566 39.0331 153.733 37.4393 153.459 35.7461C153.159 33.8926 151.549 32.7392 149.709 33.0303C147.966 33.3066 146.8 34.8995 147.1 36.7529Z" fill="#000000" fill-rule="evenodd" opacity="1" stroke="none"/>
<path d="M165.328 34.7933C162.459 33.9054 160.749 32.0077 160.438 28.4935C160.122 24.9163 161.057 21.7502 162.036 19.4572L164.381 19.2537L164.072 15.7404L158.372 16.235C156.333 21.0226 155.637 25.4021 155.941 28.8504C156.434 34.4255 159.572 37.629 163.556 38.5189L165.328 34.7933Z" fill="#000000" fill-rule="evenodd" opacity="1" stroke="none"/>
<path d="M181.756 31.0736C183.145 30.6724 184.232 29.6439 184.284 28.2545C184.343 26.7354 183.117 25.4257 180.77 25.2093L180.426 34.1964L182.114 35.3921L178.877 37.8935L166.586 29.1129L166.734 25.2339C169.388 23.4227 172.654 21.8623 176.5 21.3903L176.582 19.2242L165.181 18.7974L165.317 15.2734L190.699 16.2242L190.564 19.7482L180.992 19.3893L180.919 21.2969C186.134 21.8161 188.588 25.2103 188.46 28.5721C188.36 31.1916 186.84 33.3036 184.443 34.3469L181.756 31.0736ZM170.933 27.4954L176.254 31.224L176.385 31.2279C176.251 29.6046 176.274 27.2742 176.34 25.5613L176.348 25.3676C174.238 25.7737 172.475 26.5495 170.933 27.4954Z" fill="#000000" fill-rule="evenodd" opacity="1" stroke="none"/>
<path d="M190.741 35.7589C190.464 37.4511 191.627 39.0479 193.368 39.3272C195.208 39.6231 196.821 38.4727 197.099 36.7795C197.402 34.928 196.24 33.3321 194.401 33.0362C192.658 32.7559 191.045 33.9064 190.741 35.7589Z" fill="#000000" fill-rule="evenodd" opacity="1" stroke="none"/>
<path d="M229.902 16.5202C229.765 16.7434 229.615 16.9951 229.507 17.2311C228.326 19.8269 228.892 23.3087 234.018 25.5948L238.758 27.7068C240.696 28.5702 241.464 29.4817 240.74 31.0745C240.699 31.163 240.658 31.2506 240.618 31.339L224.284 24.0579L222.821 27.2732L231.137 30.9802L229.351 34.9034C228.117 37.6172 228.727 40.0548 231.559 41.3173C233.318 42.101 235.39 41.9603 236.679 41.6477C236.697 42.0813 236.598 42.5346 236.411 42.9475C235.51 44.9239 232.903 45.9259 229.923 44.5975C226.614 43.1226 224.135 39.0361 226.996 32.753L222.688 31.8976C219.915 38.1482 221.67 45.3172 228.258 48.2543C233.653 50.6603 238.576 48.6672 240.482 44.4785C241.583 42.0597 241.192 39.2957 240.026 37.6045C237.63 38.0627 234.668 38.2682 233.864 37.9083C233.446 37.7224 233.198 37.3999 233.561 36.6025L235.28 32.8277L245.653 37.4521L247.116 34.2368L244.583 33.107C244.693 32.9428 244.773 32.7668 244.854 32.5898C246.438 29.109 244.37 26.0923 241.12 24.644L235.756 22.2526C233.193 21.1091 233.16 19.6047 233.697 18.4248C233.818 18.1593 233.969 17.9066 234.149 17.6686L229.902 16.5202Z" fill="#000000" fill-rule="evenodd" opacity="1" stroke="none"/>
<path d="M265.659 55.8058L264.924 54.7655C263.146 52.2247 263.069 51.0546 263.891 49.9258L263.967 49.8206L273.575 56.6573L275.656 53.794L249.617 35.2672L247.537 38.1305L249.767 39.7165L243.451 48.4116C241.656 50.8806 242 53.677 245.107 55.8854C248.106 58.0201 251.978 57.7871 254.516 55.8471L252.779 58.2374C250.986 60.7064 251.224 63.4262 254.224 65.5608C258.364 68.5067 263.903 66.8686 266.25 63.6376C268.254 60.8795 267.55 58.4665 265.659 55.8058ZM260.55 54.8009C260.701 55.4253 261.003 56.1185 261.771 57.2227L262.322 58.0142C263.178 59.2207 263.452 60.1725 262.727 61.1715C261.276 63.1676 258.1 63.496 256.719 62.5147C255.976 61.9857 255.917 61.3465 256.317 60.7949L258.111 58.3249C259.675 56.1706 260.444 54.7252 260.444 54.7252L260.55 54.8009ZM250.267 46.2887C250.417 46.9131 250.719 47.6063 251.487 48.7105L251.884 49.2729C252.644 50.3319 253.007 51.1077 252.377 51.974C251.309 53.445 248.822 53.7085 247.468 52.7449C246.566 52.1038 246.588 51.5207 247.046 50.8894L247.827 49.8128C249.392 47.6594 250.161 46.213 250.161 46.213L250.267 46.2887ZM255.22 47.0635L254.641 46.2533C253.078 44.0252 252.667 43.095 253.138 42.1147L260.622 47.4401L256.768 52.7468C257.314 50.9435 256.68 49.0989 255.22 47.0635Z" fill="#000000" fill-rule="evenodd" opacity="1" stroke="none"/>
<path d="M305.949 84.9775C305.86 81.718 304.641 78.5528 302.908 76.3621C301.214 74.2234 299.139 73.8596 297.235 75.3355L295.795 76.4525L297.811 79.0002L295.006 81.1742L292.989 78.6275L278.528 89.8417L275.725 86.302L290.187 75.0877L288.17 72.5411L290.976 70.3661L292.992 72.9137L294.638 71.6355C297.984 69.0426 302.504 69.4005 306.012 73.8321C308.876 77.4486 309.996 81.5931 310.049 84.9637L305.949 84.9775Z" fill="#000000" fill-rule="evenodd" opacity="1" stroke="none"/>
<path d="M301.902 91.5929L295.445 81.3935L298.463 79.5213L309.036 96.2173L306.015 98.0904L304.28 95.3481L291.592 103.216L291.64 105.058L287.573 104.181L287.064 88.6903L290.138 86.7838C292.204 87.183 297.12 88.7926 300.877 92.2281L301.902 91.5929ZM297.248 94.4779C294.965 92.7621 292.237 91.7434 291.163 91.5703L291.403 98.408L291.473 98.5181C292.026 97.8692 293.896 96.5575 295.585 95.5093L297.248 94.4779Z" fill="#000000" fill-rule="evenodd" opacity="1" stroke="none"/>
<path d="M296.586 121.559L301.121 119.551C303.837 118.35 307.313 117.166 310.144 117.011L310.579 113.061C308.562 110.977 305.58 109.213 303.356 108.568L309.592 105.807L314.784 117.295L318.037 115.855L309.707 97.4267L306.455 98.8662L307.723 101.672L296.712 106.548L297.042 111.079C299.953 111.422 303.554 112.733 305.376 113.911C304.088 113.914 301.938 114.228 299.222 115.43L294.717 117.425L296.586 121.559Z" fill="#000000" fill-rule="evenodd" opacity="1" stroke="none"/>
<path d="M315.673 120.757L314.624 117.591L318.009 116.491L321.279 126.359L317.893 127.458L317.599 126.567C317.099 125.061 315.439 124.203 313.203 124.929C310.157 125.917 308.791 128.437 305.499 129.506C302.827 130.372 299.636 129.671 297.331 127.593L298.85 123.765C300.97 125.493 302.684 125.788 304.145 125.315C307.158 124.337 308.38 121.693 311.611 120.645C313.412 120.06 314.724 120.383 315.548 120.796L315.673 120.757Z" fill="#000000" fill-rule="evenodd" opacity="1" stroke="none"/>
<path d="M325.066 128.999C323.575 129.37 322.293 130.023 321.231 130.755L321.175 130.535C321.554 130.041 321.996 129.129 321.63 127.686L321.302 126.4L317.847 127.261L317.879 127.387C318.382 129.363 318.044 130.549 314.937 131.324L300.83 134.839L301.948 139.231L319.764 134.791L320.562 137.929L324.017 137.067L323.22 133.93L326.453 133.123L325.383 128.92L325.066 128.999Z" fill="#000000" fill-rule="evenodd" opacity="1" stroke="none"/>
<path d="M306.862 152.799C306.547 152.086 306.314 151.233 306.19 150.172C305.621 145.352 308.369 142.136 312.428 141.668C316.648 141.18 319.436 143.888 319.812 147.069C320.122 149.704 318.831 151.319 317.708 151.839L317.723 151.968C319.19 152.124 320.623 153.392 320.835 155.191C320.987 156.476 320.573 157.436 320.343 157.724L320.363 157.885L323.447 157.528L321.231 138.729L324.77 138.32L327.888 164.768L324.349 165.176L323.971 161.963L305.721 164.071L305.2 159.635L316.044 158.384C316.626 158.023 317.056 157.192 316.942 156.227C316.786 154.91 315.706 154.122 314.05 154.314L313.012 154.434L312.526 150.32L313.566 150.201C315.449 149.983 315.996 149.041 315.867 147.948C315.738 146.855 314.769 145.893 313.048 146.091C310.937 146.335 309.849 147.991 310.084 149.984C310.159 150.627 310.37 151.286 310.694 151.803L306.862 152.799Z" fill="#000000" fill-rule="evenodd" opacity="1" stroke="none"/>
<path d="M304.566 168.693C303.031 168.621 301.967 169.674 301.902 171.064C301.838 172.421 302.799 173.534 304.334 173.606C305.902 173.677 306.899 172.655 306.963 171.297C307.029 169.908 306.134 168.765 304.566 168.693ZM323.827 173.178L323.541 179.221L317.239 178.93C315.443 178.847 312.496 178.872 310.853 179.023L310.859 178.894L314.755 172.629L317.42 176.477L320.49 176.619L323.695 173.172L323.827 173.178ZM304.519 181.484L307.359 184.432L308.311 182.955L323.333 183.649L323.18 186.88L326.74 187.044L327.706 166.556L324.147 166.391L324.04 168.653L322.767 168.594L319.285 172.321L316.496 168.305L312.872 168.137L304.519 181.484Z" fill="#000000" fill-rule="evenodd" opacity="1" stroke="none"/>
</g>
<path d="M271.435 108.726C271.389 108.726 271.389 108.726 271.435 108.726L271.435 108.726L257.774 108.726L257.774 104.129C257.865 102.308 256.67 100.669 254.876 100.167C245.446 97.7099 235.694 96.4808 225.943 96.526C209.889 96.526 188.039 100.122 171.848 116.374C155.793 99.9399 133.76 96.526 117.753 96.526C108 96.4808 98.2484 97.7099 88.8187 100.167C87.071 100.669 85.8748 102.308 85.9215 104.129L85.9215 108.681L72.4441 108.681C70.2354 108.681 68.4411 110.456 68.4411 112.641L68.4411 239.469C68.4411 241.654 70.2354 243.43 72.4441 243.43C73.1336 243.43 73.8241 243.248 74.4212 242.928C74.8345 242.746 114.947 221.032 170.974 235.008L171.571 235.008L171.94 235.008C172.261 235.053 172.583 235.053 172.905 235.008C229.07 220.896 269.182 242.611 269.458 242.928C270.7 243.658 272.218 243.658 273.459 242.928C274.701 242.247 275.438 240.926 275.484 239.515L275.484 112.732C275.438 110.501 273.644 108.726 271.435 108.726ZM76.4451 233.187L76.4451 116.693L86.0129 116.693L86.0129 216.297C85.9672 218.482 87.7615 220.304 89.9692 220.304C90.1997 220.304 90.3825 220.304 90.613 220.259C98.8932 218.984 107.312 218.346 115.682 218.255C127.32 218.073 138.912 219.803 149.952 223.4C125.066 220.395 99.7208 223.764 76.4451 233.187ZM115.729 210.334C108.415 210.334 101.148 210.835 93.8788 211.745L93.8788 107.27C101.699 105.54 109.656 104.674 117.66 104.629C132.657 104.629 153.355 108.043 167.753 124.068L167.891 222.989C159.566 217.618 143.283 210.334 115.729 210.334ZM175.942 124.114C190.293 108.225 210.993 104.674 226.034 104.674C234.038 104.72 241.995 105.586 249.816 107.315L249.816 211.791C242.594 210.88 235.372 210.38 228.105 210.38C200.734 210.38 184.406 217.664 175.942 223.036L175.942 124.114ZM267.387 233.187C244.066 223.764 218.674 220.349 193.697 223.4C204.783 219.803 216.421 218.073 228.105 218.255C236.569 218.301 244.986 218.938 253.358 220.214C255.566 220.532 257.589 219.03 257.911 216.89C257.958 216.661 257.958 216.48 257.958 216.252L257.958 116.693L267.525 116.693L267.387 233.187Z" fill="#000000" fill-rule="evenodd" opacity="1" stroke="none"/>
<g opacity="1">
<g opacity="1">
<g opacity="1" vectornator:mask="#Fill">
<clipPath id="ClipPath">
<use overflow="#visible" xlink:href="#Fill"/>
</clipPath>
<g clip-path="url(#ClipPath)">
<path d="M120.666 174.259C120.666 175.221 120.857 176.014 121.047 176.504L120.933 176.504C120.723 176.26 120.304 175.844 119.388 175.844L100.852 175.844L100.852 177.58L115.098 177.58L115.098 182.185C115.098 183.28 115.156 184.658 115.289 185.431L115.231 185.45L113.21 184.148C113.42 183.601 113.534 182.978 113.534 182.317C113.534 180.072 111.99 178.391 109.759 178.391C107.871 178.391 106.612 179.674 106.612 181.222C106.612 182.223 107.147 183.186 108.118 183.563L109.568 182.468C109.053 182.242 108.805 181.845 108.805 181.393C108.805 180.77 109.224 180.355 109.911 180.355C110.807 180.355 111.417 181.09 111.417 182.299C111.417 183.884 110.445 185.034 108.691 185.034C105.963 185.034 104.362 182.336 103.619 178.788L101.654 179.694C102.665 183.902 104.896 186.959 108.691 186.959C110.139 186.959 111.322 186.507 112.161 185.733L116.662 188.583L118.11 187.187L117.253 186.658L117.253 177.58L118.873 177.58C119.999 177.58 120.59 177.977 120.59 179.544L120.59 188.3L122.764 188.3L122.764 177.58L124.823 177.58L124.823 175.844L122.764 175.844L122.764 173.938L120.666 173.938L120.666 174.259Z" fill="#000000" fill-rule="evenodd" opacity="1" stroke="none"/>
</g>
</g>
<g opacity="1" vectornator:mask="#Fill_2">
<clipPath id="ClipPath_2">
<use overflow="#visible" xlink:href="#Fill_2"/>
</clipPath>
<g clip-path="url(#ClipPath_2)">
<path d="M136.437 177.58L136.437 175.844L124.061 175.844L124.061 177.58L125.071 177.58L125.071 177.92C126.158 178.543 127.303 180.109 127.398 181.94C126.349 182.185 125.72 182.96 125.72 183.865C125.72 184.828 126.444 185.356 127.303 185.356C127.97 185.356 128.713 184.941 129.134 183.978C130.754 184.771 131.974 186.545 132.376 188.3L134.396 188.3L134.396 177.58L136.437 177.58ZM132.376 184.337C131.766 183.412 130.716 182.468 129.458 182.073C129.4 179.826 128.313 178.222 127.741 177.674L127.741 177.58L132.279 177.58L132.279 180.827C132.279 182.921 132.432 183.978 132.432 184.317L132.376 184.337Z" fill="#000000" fill-rule="evenodd" opacity="1" stroke="none"/>
</g>
</g>
<g opacity="1" vectornator:mask="#Fill_3">
<clipPath id="ClipPath_3">
<use overflow="#visible" xlink:href="#Fill_3"/>
</clipPath>
<g clip-path="url(#ClipPath_3)">
<path d="M137.81 174.259C137.81 175.221 138 176.014 138.191 176.504L138.077 176.504C137.867 176.26 137.448 175.844 136.533 175.844L135.674 175.844L135.674 177.58L136.017 177.58C137.143 177.58 137.734 177.977 137.734 179.544L137.734 188.3L139.908 188.3L139.908 177.58L141.967 177.58L141.967 175.844L139.908 175.844L139.908 173.938L137.81 173.938L137.81 174.259Z" fill="#000000" fill-rule="evenodd" opacity="1" stroke="none"/>
</g>
</g>
<g opacity="1" vectornator:mask="#Fill_4">
<clipPath id="ClipPath_4">
<use overflow="#visible" xlink:href="#Fill_4"/>
</clipPath>
<g clip-path="url(#ClipPath_4)">
<path d="M156.67 184.676C157.471 184.393 158.119 183.676 158.119 182.788C158.119 181.732 157.261 180.902 155.678 180.827L155.678 186.601L156.613 187.243L155.068 188.507L147.974 183.449L147.974 181.581C149.518 180.374 151.406 179.373 153.561 179.052L153.561 177.58L146.811 177.58L146.811 175.844L161.304 175.844L161.304 177.58L155.678 177.58L155.678 178.939C158.634 179.071 160.14 180.92 160.14 182.845C160.14 184.356 159.321 185.582 158.043 186.224L156.67 184.676ZM150.052 182.581L153.637 185.205L153.714 185.205C153.6 184.11 153.561 182.788 153.561 181.714L153.561 180.996C152.208 181.26 151.006 181.902 150.052 182.581Z" fill="#000000" fill-rule="evenodd" opacity="1" stroke="none"/>
</g>
</g>
<g opacity="1" vectornator:mask="#Fill_5">
<clipPath id="ClipPath_5">
<use overflow="#visible" xlink:href="#Fill_5"/>
</clipPath>
<g clip-path="url(#ClipPath_5)">
<path d="M147.191 187.016C145.514 186.318 144.656 184.941 144.656 182.827C144.656 180.77 145.342 178.92 146.162 177.58L147.573 177.58L147.573 175.844L141.204 175.844L141.204 177.58L143.836 177.58C143.092 178.958 142.501 180.827 142.501 182.808C142.501 185.885 143.969 187.979 146.181 188.734L147.191 187.016Z" fill="#000000" fill-rule="evenodd" opacity="1" stroke="none"/>
</g>
</g>
</g>
<g opacity="1">
<g opacity="1" vectornator:mask="#Fill_6">
<clipPath id="ClipPath_6">
<use overflow="#visible" xlink:href="#Fill_6"/>
</clipPath>
<g clip-path="url(#ClipPath_6)">
<path d="M116.822 146.163C117.261 145.766 118.081 145.2 119.302 145.2C120.426 145.2 121.247 145.672 121.799 146.446L119.32 148.069C118.786 146.974 117.813 146.351 116.822 146.163ZM115.373 147.54C115.812 147.577 116.117 147.692 116.403 147.842C117.032 148.088 117.452 148.54 117.719 149.125L115.983 150.258L117.013 151.824L122.544 148.181C122.696 148.766 122.753 149.408 122.753 150.069L122.753 152.315C122.753 153.089 122.849 154.014 123.001 154.561L122.924 154.561C122.391 153.957 121.762 153.692 120.808 153.692C120.16 153.692 118.862 153.731 118.157 153.731C116.498 153.731 116.117 152.56 116.117 151.447L114.077 151.919C114.114 153.863 115.22 155.562 117.966 155.562C118.692 155.562 119.95 155.542 120.731 155.542C122.104 155.542 122.714 156.165 122.811 157.222L124.793 157.222L124.793 145.257L126.834 145.257L126.834 143.521L124.793 143.521L124.793 141.614L122.714 141.614L122.714 142.123C122.714 143.105 122.811 144.54 123.135 145.313L123.058 145.351C122.486 144.483 121.38 143.369 119.167 143.369C116.975 143.369 115.22 144.691 114.363 145.898L115.373 147.54Z" fill="#000000" fill-rule="evenodd" opacity="1" stroke="none"/>
</g>
</g>
<g opacity="1" vectornator:mask="#Fill_7">
<clipPath id="ClipPath_7">
<use overflow="#visible" xlink:href="#Fill_7"/>
</clipPath>
<g clip-path="url(#ClipPath_7)">
<path d="M126.929 147.785C127.959 151.504 130.229 155.391 134.824 155.391C138.447 155.391 140.258 153.278 140.258 150.692C140.258 148.88 139.267 147.39 138.543 146.767L136.903 146.767C136.254 148.597 135.607 149.334 134.805 149.334C134.195 149.334 133.89 148.993 133.89 148.446C133.89 148.088 134.023 147.692 134.214 147.408L132.173 147.125C132.002 147.408 131.792 147.899 131.792 148.578C131.792 150.012 132.822 151.183 134.653 151.183C136.273 151.183 137.208 150.163 137.646 149.049L137.723 149.049C137.951 149.39 138.162 149.9 138.162 150.617C138.162 152.126 137.055 153.372 134.862 153.372C131.219 153.372 129.542 149.749 128.818 146.842L126.929 147.785ZM141.403 145.257L141.403 143.521L126.071 143.521L126.071 145.257L141.403 145.257Z" fill="#000000" fill-rule="evenodd" opacity="1" stroke="none"/>
</g>
</g>
<g opacity="1" vectornator:mask="#Fill_8">
<clipPath id="ClipPath_8">
<use overflow="#visible" xlink:href="#Fill_8"/>
</clipPath>
<g clip-path="url(#ClipPath_8)">
<path d="M134.061 160.94C133.108 160.94 132.478 160.392 132.478 159.6C132.478 158.732 133.089 158.184 134.099 158.184C134.709 158.184 135.32 158.354 135.912 158.637C135.835 159.92 135.225 160.94 134.061 160.94ZM139.725 161.959L141.174 160.826C139.134 158.543 136.693 156.467 133.775 156.467C131.926 156.467 130.438 157.712 130.438 159.6C130.438 161.299 131.811 162.638 134.004 162.638C136.121 162.638 137.265 161.204 137.513 159.713C138.256 160.336 139.001 161.128 139.725 161.959Z" fill="#000000" fill-rule="evenodd" opacity="1" stroke="none"/>
</g>
</g>
</g>
<g opacity="1">
<g opacity="1" vectornator:mask="#Fill_9">
<clipPath id="ClipPath_9">
<use overflow="#visible" xlink:href="#Fill_9"/>
</clipPath>
<g clip-path="url(#ClipPath_9)">
<path d="M201.853 145.119L201.929 145.119C202.005 146.874 202.558 148.421 203.741 149.29L201.434 149.063C200.823 148.988 200.308 148.837 200.308 148.271C200.308 147.328 201.051 145.893 201.853 145.119ZM207.344 154.952C209.099 154.952 210.034 153.744 210.034 152.479C210.034 151.403 209.328 150.724 208.489 150.498L208.489 150.422C209.29 150.139 209.824 149.441 209.824 148.517C209.824 147.195 208.833 146.119 207.135 146.119C205.972 146.119 205.113 146.591 204.542 147.346C204.16 146.761 203.912 146.044 203.855 145.119L211.178 145.119L211.178 143.383L193.71 143.383L193.71 145.119L199.412 145.119C198.84 145.949 198.249 147.271 198.249 148.478C198.249 149.97 199.298 150.705 200.899 150.875L202.882 151.064C202.978 151.272 203.092 151.499 203.092 151.913C203.092 152.763 202.368 153.498 200.975 153.498C198.496 153.498 196.799 151.044 196.57 148.026L194.644 148.687C195.026 152.347 197.448 155.461 201.014 155.461C202.787 155.461 203.988 154.744 204.618 153.744C205.228 154.48 206.124 154.952 207.344 154.952ZM207.936 148.63C207.936 149.309 207.498 149.724 206.753 149.724L206.353 149.724L206.353 151.29L206.772 151.29C207.612 151.29 208.146 151.649 208.146 152.329C208.146 152.875 207.726 153.272 207.097 153.272C205.838 153.272 205.075 152.159 205.075 150.479C205.075 148.592 206.01 147.78 206.906 147.78C207.555 147.78 207.936 148.119 207.936 148.63Z" fill="#000000" fill-rule="evenodd" opacity="1" stroke="none"/>
</g>
</g>
<g opacity="1" vectornator:mask="#Fill_10">
<clipPath id="ClipPath_10">
<use overflow="#visible" xlink:href="#Fill_10"/>
</clipPath>
<g clip-path="url(#ClipPath_10)">
<path d="M212.551 141.798C212.551 142.759 212.741 143.553 212.932 144.044L212.818 144.044C212.608 143.798 212.188 143.383 211.273 143.383L210.416 143.383L210.416 145.119L210.758 145.119C211.883 145.119 212.474 145.516 212.474 147.082L212.474 155.839L214.648 155.839L214.648 145.119L216.708 145.119L216.708 143.383L214.648 143.383L214.648 141.476L212.551 141.476L212.551 141.798Z" fill="#000000" fill-rule="evenodd" opacity="1" stroke="none"/>
</g>
</g>
<g opacity="1" vectornator:mask="#Fill_11">
<clipPath id="ClipPath_11">
<use overflow="#visible" xlink:href="#Fill_11"/>
</clipPath>
<g clip-path="url(#ClipPath_11)">
<path d="M219.931 151.819C219.549 151.536 219.302 151.102 219.302 150.574C219.302 149.724 219.873 149.233 220.866 149.233C223.363 149.233 225.023 152.819 225.023 155.613L225.023 155.839L227.215 155.839L227.215 145.119L229.256 145.119L229.256 143.383L215.964 143.383L215.964 145.119L225.023 145.119L225.023 146.817C225.023 148.346 225.137 149.402 225.194 149.894L225.118 149.894C224.26 148.384 222.772 147.252 220.75 147.252C218.577 147.252 217.089 148.478 217.089 150.555C217.089 151.479 217.452 152.159 217.966 152.63L219.931 151.819Z" fill="#000000" fill-rule="evenodd" opacity="1" stroke="none"/>
</g>
</g>
</g>
<g opacity="1">
<g opacity="1" vectornator:mask="#Fill_12">
<clipPath id="ClipPath_12">
<use overflow="#visible" xlink:href="#Fill_12"/>
</clipPath>
<g clip-path="url(#ClipPath_12)">
<path d="M208.27 188.66L208.27 185.414C208.27 183.753 208.48 181.828 209.014 180.374L207.279 179.375C205.639 179.997 203.827 181.432 202.931 182.526L202.931 177.94L210.444 177.94L210.444 176.203L198.812 176.203L198.812 177.94L200.737 177.94L200.737 184.96L202.836 185.753C203.846 184.205 205.391 182.639 206.688 181.809C206.383 182.602 206.078 183.829 206.078 185.414L206.078 188.66L208.27 188.66Z" fill="#000000" fill-rule="evenodd" opacity="1" stroke="none"/>
</g>
</g>
<g opacity="1" vectornator:mask="#Fill_13">
<clipPath id="ClipPath_13">
<use overflow="#visible" xlink:href="#Fill_13"/>
</clipPath>
<g clip-path="url(#ClipPath_13)">
<path d="M211.817 174.618C211.817 175.581 212.008 176.374 212.199 176.864L212.085 176.864C211.874 176.619 211.456 176.203 210.54 176.203L209.681 176.203L209.681 177.94L210.025 177.94C211.151 177.94 211.742 178.336 211.742 179.903L211.742 188.66L213.915 188.66L213.915 177.94L215.974 177.94L215.974 176.203L213.915 176.203L213.915 174.298L211.817 174.298L211.817 174.618Z" fill="#000000" fill-rule="evenodd" opacity="1" stroke="none"/>
</g>
</g>
<g opacity="1" vectornator:mask="#Fill_14">
<clipPath id="ClipPath_14">
<use overflow="#visible" xlink:href="#Fill_14"/>
</clipPath>
<g clip-path="url(#ClipPath_14)">
<path d="M218.473 177.581L219.884 179.016C220.437 178.431 221.162 177.94 222.001 177.94C222.84 177.94 223.489 178.393 223.489 179.28C223.489 180.299 222.573 181.148 220.513 181.583L221.581 183.318C222.058 183.205 222.496 183.054 222.897 182.885C223.641 183.225 224.423 183.903 224.423 184.903C224.423 185.904 223.774 186.66 222.554 186.66C220.437 186.66 218.663 184.092 217.976 180.789L216.012 181.583C216.814 184.734 218.873 188.66 222.573 188.66C225.167 188.66 226.578 186.942 226.578 184.998C226.578 183.356 225.566 182.356 224.594 181.771C225.223 181.129 225.605 180.299 225.605 179.317C225.605 177.242 223.889 176.033 221.963 176.033C220.4 176.033 219.274 176.713 218.473 177.581Z" fill="#000000" fill-rule="evenodd" opacity="1" stroke="none"/>
</g>
</g>
</g>
<g opacity="1">
<g opacity="1" vectornator:mask="#Fill_15">
<clipPath id="ClipPath_15">
<use overflow="#visible" xlink:href="#Fill_15"/>
</clipPath>
<g clip-path="url(#ClipPath_15)">
<path d="M108.523 248.656L107.237 250.165C108 251.18 109.198 251.74 110.331 251.74C111.857 251.74 112.859 250.9 113.383 249.626C113.557 250.015 113.775 250.36 114.015 250.641C113.186 251.245 112.729 252.15 112.729 253.164C112.729 254.307 113.274 255.342 114.386 255.816L116.084 254.587C115.496 254.307 115.213 253.875 115.213 253.358C115.213 252.56 115.823 252.064 116.674 252.064C117.873 252.064 118.569 252.862 118.569 254.026C118.569 255.752 117.11 256.744 114.189 256.744L112.729 256.744L112.729 258.75C114.669 258.944 115.169 259.289 119.812 262.115L121.489 260.454L119.942 259.548C118.527 258.728 117.764 258.383 116.979 258.211L116.979 258.125C119.245 257.823 121.01 256.551 121.01 254.026C121.01 252.668 120.488 251.547 119.572 250.813C120.161 250.187 120.488 249.324 120.488 248.289C120.488 247.879 120.444 247.492 120.357 247.06L122.579 247.06L122.579 245.076L106.561 245.076L106.561 247.06L112.163 247.06C111.988 248.397 111.509 249.713 110.331 249.713C109.613 249.713 109.067 249.26 108.523 248.656ZM118.178 248.095C118.178 249.001 117.785 249.734 116.76 249.734C115.453 249.734 114.756 248.505 114.691 247.06L118.025 247.06C118.134 247.319 118.178 247.685 118.178 248.095Z" fill="#000000" fill-rule="evenodd" opacity="1" stroke="none"/>
</g>
</g>
<g opacity="1" vectornator:mask="#Fill_16">
<clipPath id="ClipPath_16">
<use overflow="#visible" xlink:href="#Fill_16"/>
</clipPath>
<g clip-path="url(#ClipPath_16)">
<path d="M124.149 243.264C124.149 244.364 124.367 245.27 124.585 245.831L124.454 245.831C124.215 245.551 123.735 245.076 122.689 245.076L121.708 245.076L121.708 247.06L122.1 247.06C123.386 247.06 124.062 247.513 124.062 249.303L124.062 259.311L126.547 259.311L126.547 247.06L128.9 247.06L128.9 245.076L126.547 245.076L126.547 242.897L124.149 242.897L124.149 243.264Z" fill="#000000" fill-rule="evenodd" opacity="1" stroke="none"/>
</g>
</g>
<g opacity="1" vectornator:mask="#Fill_17">
<clipPath id="ClipPath_17">
<use overflow="#visible" xlink:href="#Fill_17"/>
</clipPath>
<g clip-path="url(#ClipPath_17)">
<path d="M138.228 248.095C138.728 247.642 139.666 246.995 141.061 246.995C142.674 246.995 143.807 247.815 144.482 249.087L141.388 251.137C140.8 249.389 139.688 248.419 138.228 248.095ZM147.686 259.311L147.686 247.06L150.04 247.06L150.04 245.076L147.686 245.076L147.686 242.897L145.201 242.897L145.201 243.544C145.201 244.666 145.267 246.089 145.659 247.19L145.594 247.232C144.94 246.241 143.459 244.904 140.908 244.904C138.162 244.904 136.179 246.478 135.176 247.901L136.397 249.648C136.681 249.648 136.92 249.691 137.16 249.756C138.598 250.058 139.208 251.266 139.579 252.322L137.552 253.66L138.75 255.45L145.136 251.18C145.201 251.612 145.223 252.085 145.223 252.56L145.223 259.311L147.686 259.311Z" fill="#000000" fill-rule="evenodd" opacity="1" stroke="none"/>
</g>
</g>
<g opacity="1" vectornator:mask="#Fill_18">
<clipPath id="ClipPath_18">
<use overflow="#visible" xlink:href="#Fill_18"/>
</clipPath>
<g clip-path="url(#ClipPath_18)">
<path d="M142.107 243.07C140.451 241.754 138.184 240.87 136.005 240.87C133.955 240.87 132.866 242.034 132.866 243.717L132.866 245.076L135.198 245.076L135.198 247.06L132.866 247.06L132.866 259.311L130.383 259.311L130.383 247.06L128.028 247.06L128.028 245.076L130.383 245.076L130.383 243.544C130.383 240.87 132.343 238.67 135.961 238.67C139.143 238.67 141.868 239.985 143.523 241.323L142.107 243.07Z" fill="#000000" fill-rule="evenodd" opacity="1" stroke="none"/>
</g>
</g>
<g opacity="1" vectornator:mask="#Fill_19">
<clipPath id="ClipPath_19">
<use overflow="#visible" xlink:href="#Fill_19"/>
</clipPath>
<g clip-path="url(#ClipPath_19)">
<path d="M157.908 254.393C156.862 253.918 156.12 252.819 156.12 251.482C156.12 249.583 157.559 248.224 159.695 248.224C162.484 248.224 164.032 250.318 164.032 252.926C164.032 256.249 161.743 258.491 158.388 258.491C153.876 258.491 151.435 254.673 150.389 249.583L152.656 248.591C153.418 252.862 155.14 256.292 158.366 256.292C160.413 256.292 161.591 254.738 161.591 252.884C161.591 251.46 161.003 250.446 159.869 250.446C159.15 250.446 158.605 250.9 158.605 251.654C158.605 252.215 158.932 252.711 159.498 252.948L157.908 254.393ZM165.427 245.076L165.427 247.06L149.169 247.06L149.169 245.076L165.427 245.076Z" fill="#000000" fill-rule="evenodd" opacity="1" stroke="none"/>
</g>
</g>
<g opacity="1" vectornator:mask="#Fill_20">
<clipPath id="ClipPath_20">
<use overflow="#visible" xlink:href="#Fill_20"/>
</clipPath>
<g clip-path="url(#ClipPath_20)">
<path d="M172.227 249.26C172.227 250.252 173.032 251.05 174.057 251.05C175.103 251.05 175.91 250.252 175.91 249.26C175.91 248.203 175.103 247.405 174.057 247.405C173.032 247.405 172.227 248.203 172.227 249.26ZM172.227 257.586C172.227 258.578 173.032 259.375 174.057 259.375C175.103 259.375 175.91 258.578 175.91 257.586C175.91 256.529 175.103 255.73 174.057 255.73C173.032 255.73 172.227 256.529 172.227 257.586Z" fill="#000000" fill-rule="evenodd" opacity="1" stroke="none"/>
</g>
</g>
<g opacity="1" vectornator:mask="#Fill_21">
<clipPath id="ClipPath_21">
<use overflow="#visible" xlink:href="#Fill_21"/>
</clipPath>
<g clip-path="url(#ClipPath_21)">
<path d="M191.23 254.372C191.23 255.794 190.424 257.068 188.55 257.068C187.156 257.068 186.457 256.421 186.457 255.622C186.457 255.105 186.74 254.673 187.198 254.48L185.935 252.819C184.845 253.207 183.952 254.048 183.952 255.622C183.952 257.715 185.694 259.311 188.593 259.311C192.167 259.311 193.671 256.917 193.671 254.372C193.671 249.023 187.504 249.216 187.504 245.766C187.504 245.227 187.613 244.904 187.635 244.839L185.193 245.27C185.128 245.507 185.084 245.831 185.084 246.154C185.084 250.49 191.23 250.598 191.23 254.372Z" fill="#000000" fill-rule="evenodd" opacity="1" stroke="none"/>
</g>
</g>
<g opacity="1" vectornator:mask="#Fill_22">
<clipPath id="ClipPath_22">
<use overflow="#visible" xlink:href="#Fill_22"/>
</clipPath>
<g clip-path="url(#ClipPath_22)">
<path d="M205.615 254.135C205.615 255.557 204.808 256.615 203.609 257.198C203.805 256.572 203.849 256.011 203.849 255.471C203.849 253.034 202.084 251.417 199.512 251.417C196.896 251.417 195.306 253.164 195.306 255.644C195.306 257.801 196.57 259.246 198.487 259.419L199.251 257.37C198.16 257.326 197.616 256.659 197.616 255.579C197.616 254.328 198.401 253.509 199.6 253.509C200.82 253.509 201.757 254.242 201.757 255.838C201.757 256.529 201.561 257.413 201.125 258.103L202.389 259.419C205.593 259.289 208.011 257.37 208.011 254.113C208.011 247.922 198.771 248.505 198.771 245.507C198.771 245.076 198.88 244.752 198.88 244.687L196.439 245.119C196.374 245.356 196.352 245.679 196.352 246.003C196.352 250.425 205.615 249.798 205.615 254.135Z" fill="#000000" fill-rule="evenodd" opacity="1" stroke="none"/>
</g>
</g>
<g opacity="1" vectornator:mask="#Fill_23">
<clipPath id="ClipPath_23">
<use overflow="#visible" xlink:href="#Fill_23"/>
</clipPath>
<g clip-path="url(#ClipPath_23)">
<path d="M211.281 245.896L212.393 247.815C212.632 247.556 213.046 247.34 213.438 247.34C214.092 247.34 214.288 247.793 214.288 248.677L214.288 250.662C214.288 252.452 215.313 253.681 217.188 253.681C218.451 253.681 219.345 253.121 220.15 252.431C220.325 252.732 220.413 253.228 220.413 253.616C220.413 255.45 219.04 256.679 216.773 256.679C214.223 256.679 211.542 254.738 211.499 250.296L209.123 250.835C209.21 255.169 212.196 258.902 216.773 258.902C220.521 258.902 222.81 256.723 222.81 253.509C222.81 251.74 221.829 250.208 220.826 249.583C219.41 250.748 218.276 251.438 217.514 251.438C217.056 251.438 216.795 251.202 216.795 250.555L216.795 248.591C216.795 246.198 215.377 245.076 213.503 245.076C212.632 245.076 211.739 245.464 211.281 245.896Z" fill="#000000" fill-rule="evenodd" opacity="1" stroke="none"/>
</g>
</g>
<g opacity="1" vectornator:mask="#Fill_24">
<clipPath id="ClipPath_24">
<use overflow="#visible" xlink:href="#Fill_24"/>
</clipPath>
<g clip-path="url(#ClipPath_24)">
<path d="M228.673 252.107C227.452 252.107 226.515 251.59 226.515 250.36C226.515 248.721 228.041 247.34 229.588 247.34C230.525 247.34 230.982 247.837 230.982 248.677L230.982 251.46C230.437 251.784 229.654 252.107 228.673 252.107ZM230.982 255.774C230.982 258.168 232.333 259.311 234.274 259.311C235.145 259.311 236.061 258.922 236.496 258.491L235.385 256.572C235.167 256.831 234.732 257.046 234.339 257.046C233.685 257.046 233.401 256.594 233.401 255.709L233.401 248.526C233.401 246.543 232.225 245.076 229.696 245.076C226.362 245.076 224.118 247.685 224.118 250.49C224.118 253.013 225.969 254.328 228.432 254.328C229.544 254.328 230.394 254.07 230.982 253.746L230.982 255.774Z" fill="#000000" fill-rule="evenodd" opacity="1" stroke="none"/>
</g>
</g>
</g>
</g>
<g opacity="1">
<path d="M30.6735 229.185L28.753 223.291L23.4514 226.584L25.8081 220.846L19.6084 219.997L25.1414 217.101L20.9437 212.507L27.0629 213.807L26.8314 207.617L30.6735 212.507L34.5165 207.617L34.285 213.807L40.4043 212.507L36.2065 217.101L41.7386 219.997L35.5389 220.846L37.8966 226.584L32.595 223.291L30.6735 229.185Z" fill="#000000" fill-rule="evenodd" opacity="1" stroke="none"/>
<path d="M310.986 230.714L309.066 224.819L303.764 228.112L306.122 222.374L299.922 221.525L305.454 218.629L301.256 214.035L307.376 215.336L307.144 209.146L310.986 214.035L314.83 209.146L314.598 215.336L320.717 214.035L316.519 218.629L322.051 221.525L315.851 222.374L318.209 228.112L312.908 224.819L310.986 230.714Z" fill="#000000" fill-rule="evenodd" opacity="1" stroke="none"/>
</g>
<path d="M151.263 313.085C153.747 314.313 155.246 315.828 154.872 318.673C154.436 322.005 150.982 325.419 146.71 324.87C143.618 324.473 142.34 322.546 142.673 319.998L144.134 308.864L141.533 308.529L141.92 305.575L157.88 307.627L157.493 310.579L147.583 309.306L147.569 309.415C147.416 310.58 147.945 311.419 150.296 312.603L151.263 313.085ZM146.949 314.349C146.949 314.349 146.964 315.729 146.673 317.95L146.338 320.497C146.263 321.066 146.566 321.518 147.332 321.617C148.756 321.799 150.986 320.295 151.256 318.236C151.391 317.207 150.801 316.607 149.677 316.049L148.946 315.681C147.929 315.163 147.424 314.768 147.059 314.363L146.949 314.349Z" fill="#000000" fill-rule="evenodd" opacity="1" stroke="none"/>
<path d="M149.868 301.859C148.143 301.636 147.12 300.735 146.665 299.326L143.89 300.32C144.499 302.464 146.529 304.184 149.512 304.568C152.524 304.955 154.874 303.796 156.017 301.876L153.591 300.216C152.787 301.461 151.565 302.077 149.868 301.859ZM148.577 298.111C148.45 299.087 149.027 299.988 150.096 300.125C151.136 300.259 151.927 299.533 152.054 298.558C152.182 297.582 151.608 296.655 150.568 296.521C149.5 296.384 148.706 297.136 148.577 298.111Z" fill="#000000" fill-rule="evenodd" opacity="1" stroke="none"/>
<path d="M160.013 305.365C159.846 306.638 159.967 307.839 160.219 308.891L160.028 308.866C159.752 308.417 159.166 307.792 157.907 307.63L156.784 307.485L156.398 310.439L156.507 310.453C158.232 310.675 159.067 311.305 158.719 313.961L157.138 326.017L160.971 326.509L162.967 311.283L165.705 311.634L166.092 308.682L163.354 308.33L163.717 305.566L160.049 305.095L160.013 305.365Z" fill="#000000" fill-rule="evenodd" opacity="1" stroke="none"/>
<path d="M176.951 326.231L176.859 322.08C176.802 319.594 177.01 316.528 177.816 314.298L174.854 312.668C172.554 313.538 170.19 315.257 168.952 316.76L168.826 311.05L179.561 310.816L179.494 307.839L162.272 308.216L162.34 311.193L164.961 311.136L165.186 321.214L168.859 322.445C170.082 320.315 172.293 317.971 173.817 316.954C173.397 317.947 172.939 319.706 172.995 322.191L173.087 326.316L176.951 326.231Z" fill="#000000" fill-rule="evenodd" opacity="1" stroke="none"/>
<path d="M182.183 311.204C182.763 310.641 183.666 310.001 185.084 309.777C186.91 309.488 188.303 310.154 189.321 311.432L186.278 314.236C185.293 312.455 183.929 311.453 182.183 311.204ZM196.208 323.622L193.762 308.46L196.488 308.03L196.013 305.09L193.288 305.52L192.844 302.769L189.027 303.372L189.127 303.992C189.284 304.964 189.514 306.394 190.518 308.281L190.444 308.348C189.457 307.426 187.359 306.208 184.306 306.69C180.872 307.233 178.56 309.535 177.52 311.58L179.673 313.842C180.113 313.799 180.509 313.82 180.854 313.875C182.404 314.128 183.276 315.374 183.876 316.496L181.757 318.436L184.014 320.818L190.78 314.409C190.916 314.914 191.027 315.421 191.118 315.988L192.445 324.216L196.208 323.622Z" fill="#000000" fill-rule="evenodd" opacity="1" stroke="none"/>
<path d="M191.518 331.419C190.211 331.625 189.342 331.098 189.173 330.047C188.986 328.887 189.722 328.079 191.057 327.867C191.712 327.764 192.415 327.79 193.109 327.931L193.169 328.309C193.417 329.846 192.772 331.221 191.518 331.419L191.518 331.419ZM200.453 332.22L202.584 329.836C200.681 328.256 198.671 326.886 196.602 326.023L195.946 321.949L192.238 322.535L192.629 324.963C191.75 324.881 190.833 324.915 189.933 325.057C187.18 325.492 185.186 327.689 185.651 330.575C186.07 333.165 188.499 334.884 191.88 334.35C195.232 333.82 196.626 331.884 196.869 329.577C198.048 330.304 199.258 331.219 200.453 332.22Z" fill="#000000" fill-rule="evenodd" opacity="1" stroke="none"/>
<path d="M200.405 323.697C200.81 325.031 202.025 325.611 203.241 325.248C204.457 324.886 205.119 323.747 204.714 322.413C204.307 321.079 203.128 320.517 201.912 320.88C200.696 321.242 199.999 322.363 200.405 323.697ZM203.225 305.68L193.392 308.611L192.524 305.759L208.622 300.962L209.49 303.812L206.847 304.6L210.492 316.581L212.018 316.954L210.391 320.035L197.528 316.993L196.645 314.09C197.434 312.513 199.854 308.91 203.519 306.648L203.225 305.68ZM204.563 310.075C202.642 311.532 201.194 313.504 200.813 314.331L206.493 315.662L206.598 315.63C206.188 315.039 205.525 313.24 205.04 311.644L204.563 310.075Z" fill="#000000" fill-rule="evenodd" opacity="1" stroke="none"/>
</g>
<g opacity="1">
<g opacity="1" vectornator:mask="#Fill_25">
<clipPath id="ClipPath_25">
<use overflow="#visible" xlink:href="#Fill_25"/>
</clipPath>
<g clip-path="url(#ClipPath_25)">
<path d="M445.232 96.0334C445.232 99.2684 445.927 102.228 446.901 104.775L446.414 104.775C445.579 103.742 443.91 102.366 440.711 102.366L371.928 102.366L371.928 109.868L424.159 109.868L424.159 125.561C424.159 129.347 424.437 134.509 424.993 136.23L424.785 136.367L418.873 132.926C419.429 131.067 419.708 129.071 419.708 126.869C419.708 118.403 413.657 112.071 404.963 112.071C397.939 112.071 392.862 116.957 392.862 122.808C392.862 126.731 395.018 130.448 398.982 131.687L405.242 126.938C403.433 126.249 402.599 125.079 402.599 123.634C402.599 121.982 403.781 120.743 405.728 120.743C408.441 120.743 410.319 123.083 410.319 126.8C410.319 132.237 407.119 136.023 401.138 136.023C391.958 136.023 386.116 126.593 383.334 113.86L374.64 117.99C378.674 133.408 387.159 144.627 401.208 144.627C406.702 144.627 411.223 142.975 414.352 140.084L430.905 149.651L437.095 143.388L433.687 141.392L433.687 109.868L438.138 109.868C442.519 109.868 444.814 111.176 444.814 117.921L444.814 148.55L454.551 148.55L454.551 109.868L461.506 109.868L461.506 102.366L454.551 102.366L454.551 95.3451L445.232 95.3451L445.232 96.0334Z" fill="#000080" fill-rule="evenodd" opacity="1" stroke="none"/>
</g>
</g>
<g opacity="1" vectornator:mask="#Fill_26">
<clipPath id="ClipPath_26">
<use overflow="#visible" xlink:href="#Fill_26"/>
</clipPath>
<g clip-path="url(#ClipPath_26)">
<path d="M520.731 109.868L520.731 102.366L474.551 102.366L474.551 109.868L478.098 109.868L478.098 111.382C482.341 113.791 485.818 119.022 486.444 124.666C482.549 125.768 480.185 128.727 480.185 132.375C480.185 136.505 483.314 138.707 486.861 138.707C489.504 138.707 492.425 137.193 494.164 133.958C499.38 137.055 503.275 142.631 504.944 148.55L513.776 148.55L513.776 109.868L520.731 109.868ZM504.874 132.375C502.788 129.553 499.449 126.869 495.624 125.423C495.207 117.577 491.521 112.139 489.574 110.212L489.574 109.868L504.457 109.868L504.457 119.366C504.457 128.452 505.152 132.237 505.152 132.237L504.874 132.375Z" fill="#000080" fill-rule="evenodd" opacity="1" stroke="none"/>
</g>
</g>
<g opacity="1" vectornator:mask="#Fill_27">
<clipPath id="ClipPath_27">
<use overflow="#visible" xlink:href="#Fill_27"/>
</clipPath>
<g clip-path="url(#ClipPath_27)">
<path d="M498.128 96.7217C492.495 92.5919 485.54 90.4583 479.559 90.4583C473.717 90.4583 470.378 93.4179 470.378 98.5113L470.378 102.366L477.333 102.366L477.333 109.868L470.378 109.868L470.378 148.55L460.711 148.55L460.711 109.868L453.756 109.868L453.756 102.366L460.711 102.366L460.711 97.9606C460.711 89.0128 467.249 81.9923 479.35 81.9923C489.226 81.9923 497.711 85.5714 503.483 89.9076L498.128 96.7217Z" fill="#000080" fill-rule="evenodd" opacity="1" stroke="none"/>
</g>
</g>
<g opacity="1" vectornator:mask="#Fill_28">
<clipPath id="ClipPath_28">
<use overflow="#visible" xlink:href="#Fill_28"/>
</clipPath>
<g clip-path="url(#ClipPath_28)">
<path d="M518.824 151.303C518.824 147.793 521.327 145.59 524.527 145.59C527.726 145.59 530.16 147.793 530.16 151.303C530.16 154.813 527.726 157.085 524.527 157.085C521.327 157.085 518.824 154.813 518.824 151.303ZM538.853 109.868L512.981 109.868L512.981 102.366L555.336 102.366L555.336 109.868L548.381 109.868L548.381 141.392L551.789 143.388L545.6 149.651L516.807 133.063L516.807 125.423C519.867 122.188 528.352 115.237 538.853 112.415L538.853 109.868ZM538.853 121.431C533.15 123.565 528.213 127.282 526.682 129.002L539.41 136.298L539.688 136.298C539.132 134.578 538.853 129.76 538.853 125.561L538.853 121.431Z" fill="#000080" fill-rule="evenodd" opacity="1" stroke="none"/>
</g>
</g>
<g opacity="1" vectornator:mask="#Fill_29">
<clipPath id="ClipPath_29">
<use overflow="#visible" xlink:href="#Fill_29"/>
</clipPath>
<g clip-path="url(#ClipPath_29)">
<path d="M559.926 96.0334C559.926 99.2684 560.622 102.228 561.596 104.775L561.109 104.775C560.274 103.742 558.605 102.366 555.406 102.366L552.554 102.366L552.554 109.868L552.833 109.868C557.214 109.868 559.509 111.176 559.509 117.921L559.509 148.55L569.246 148.55L569.246 109.868L576.201 109.868L576.201 102.366L569.246 102.366L569.246 95.3451L559.926 95.3451L559.926 96.0334Z" fill="#000080" fill-rule="evenodd" opacity="1" stroke="none"/>
</g>
</g>
<g opacity="1" vectornator:mask="#Fill_30">
<clipPath id="ClipPath_30">
<use overflow="#visible" xlink:href="#Fill_30"/>
</clipPath>
<g clip-path="url(#ClipPath_30)">
<path d="M594.323 109.868L568.451 109.868L568.451 102.366L610.806 102.366L610.806 109.868L603.851 109.868L603.851 141.392L607.259 143.388L601.069 149.651L572.276 133.063L572.276 125.423C575.336 122.188 583.821 115.237 594.323 112.415L594.323 109.868ZM594.323 121.431C588.62 123.565 583.682 127.282 582.152 129.002L594.879 136.298L595.158 136.298C594.601 134.578 594.323 129.76 594.323 125.561L594.323 121.431Z" fill="#000080" fill-rule="evenodd" opacity="1" stroke="none"/>
</g>
</g>
<g opacity="1" vectornator:mask="#Fill_31">
<clipPath id="ClipPath_31">
<use overflow="#visible" xlink:href="#Fill_31"/>
</clipPath>
<g clip-path="url(#ClipPath_31)">
<path d="M615.396 96.0334C615.396 99.2684 616.092 102.228 617.065 104.775L616.578 104.775C615.744 103.742 614.075 102.366 610.875 102.366L608.024 102.366L608.024 109.868L608.302 109.868C612.684 109.868 614.979 111.176 614.979 117.921L614.979 148.55L624.715 148.55L624.715 109.868L631.67 109.868L631.67 102.366L624.715 102.366L624.715 95.3451L615.396 95.3451L615.396 96.0334Z" fill="#000080" fill-rule="evenodd" opacity="1" stroke="none"/>
</g>
</g>
<g opacity="1" vectornator:mask="#Fill_32">
<clipPath id="ClipPath_32">
<use overflow="#visible" xlink:href="#Fill_32"/>
</clipPath>
<g clip-path="url(#ClipPath_32)">
<path d="M659.877 148.55L659.877 138.088C659.877 131.824 660.572 124.116 662.728 118.54L655.356 114.273C649.514 116.338 643.464 120.537 640.264 124.253L640.264 109.868L667.319 109.868L667.319 102.366L623.921 102.366L623.921 109.868L630.528 109.868L630.528 135.266L639.708 138.57C642.907 133.27 648.61 127.488 652.505 125.01C651.392 127.488 650.14 131.893 650.14 138.157L650.14 148.55L659.877 148.55Z" fill="#000080" fill-rule="evenodd" opacity="1" stroke="none"/>
</g>
</g>
<g opacity="1" vectornator:mask="#Fill_33">
<clipPath id="ClipPath_33">
<use overflow="#visible" xlink:href="#Fill_33"/>
</clipPath>
<g clip-path="url(#ClipPath_33)">
<path d="M705.858 120.399C707.041 130.93 712.813 139.327 721.576 139.327C726.305 139.327 728.392 136.987 728.392 134.371C728.392 133.063 727.974 132.444 727.696 132.031L721.924 131.343C715.664 130.586 713.161 127.832 713.161 123.565C713.161 117.783 717.403 113.034 721.437 109.868L694.87 109.868L694.87 102.366L759.619 102.366L759.619 109.868L735.833 109.868C737.155 113.516 741.258 117.095 749.395 117.095L751.69 117.095L755.029 124.253C752.455 128.796 751.343 134.715 751.343 140.428L751.343 149.514L741.745 149.514L741.745 139.74C741.745 134.646 742.649 129.002 745.222 125.148C735.973 124.116 730.826 118.885 728.809 114.342C725.123 117.095 723.454 119.711 723.454 121.707C723.454 122.601 723.871 123.359 726.166 123.634L733.747 124.529C736.112 126.869 738.059 130.035 738.059 134.165C738.059 140.772 732.565 147.93 721.715 147.93C708.223 147.93 699.042 136.849 697.026 123.565L705.858 120.399Z" fill="#000080" fill-rule="evenodd" opacity="1" stroke="none"/>
</g>
</g>
<g opacity="1" vectornator:mask="#Fill_34">
<clipPath id="ClipPath_34">
<use overflow="#visible" xlink:href="#Fill_34"/>
</clipPath>
<g clip-path="url(#ClipPath_34)">
<path d="M718.446 96.7217C712.813 92.5919 705.858 90.4583 699.877 90.4583C694.035 90.4583 690.697 93.4179 690.697 98.5113L690.697 102.366L697.652 102.366L697.652 109.868L690.697 109.868L690.697 148.55L681.03 148.55L681.03 109.868L674.075 109.868L674.075 102.366L681.03 102.366L681.03 97.9606C681.03 89.0128 687.567 81.9923 699.668 81.9923C709.544 81.9923 718.029 85.5714 723.802 89.9076L718.446 96.7217Z" fill="#000080" fill-rule="evenodd" opacity="1" stroke="none"/>
</g>
</g>
<g opacity="1" vectornator:mask="#Fill_35">
<clipPath id="ClipPath_35">
<use overflow="#visible" xlink:href="#Fill_35"/>
</clipPath>
<g clip-path="url(#ClipPath_35)">
<path d="M756.668 142.562C756.668 146.21 759.659 149.169 763.414 149.169C767.378 149.169 770.369 146.21 770.369 142.562C770.369 138.57 767.378 135.61 763.414 135.61C759.659 135.61 756.668 138.57 756.668 142.562Z" fill="#000080" fill-rule="evenodd" opacity="1" stroke="none"/>
</g>
</g>
<g opacity="1" vectornator:mask="#Fill_36">
<clipPath id="ClipPath_36">
<use overflow="#visible" xlink:href="#Fill_36"/>
</clipPath>
<g clip-path="url(#ClipPath_36)">
<path d="M825.074 134.646C827.995 133.683 830.22 131.412 830.22 128.452C830.22 125.217 827.508 122.533 822.5 122.257L822.5 141.392L826.186 143.801L819.51 149.376L792.664 131.687L792.664 123.427C798.158 119.366 804.974 115.787 813.111 114.48L813.111 109.868L788.839 109.868L788.839 102.366L842.878 102.366L842.878 109.868L822.5 109.868L822.5 113.929C833.628 114.617 839.122 121.638 839.122 128.796C839.122 134.371 836.062 138.983 831.055 141.392L825.074 134.646ZM801.775 127.901L813.39 135.404L813.668 135.404C813.25 131.962 813.111 127.006 813.111 123.359L813.111 122.946C808.66 123.978 804.974 125.768 801.775 127.901Z" fill="#000080" fill-rule="evenodd" opacity="1" stroke="none"/>
</g>
</g>
<g opacity="1" vectornator:mask="#Fill_37">
<clipPath id="ClipPath_37">
<use overflow="#visible" xlink:href="#Fill_37"/>
</clipPath>
<g clip-path="url(#ClipPath_37)">
<path d="M790.717 142.975C784.805 140.566 781.536 136.23 781.536 128.727C781.536 121.087 784.11 114.548 786.613 109.868L791.621 109.868L791.621 102.366L779.45 102.366C774.234 112.139 771.939 121.294 771.939 128.658C771.939 140.566 777.99 147.93 786.266 150.546L790.717 142.975Z" fill="#000080" fill-rule="evenodd" opacity="1" stroke="none"/>
</g>
</g>
<g opacity="1" vectornator:mask="#Fill_38">
<clipPath id="ClipPath_38">
<use overflow="#visible" xlink:href="#Fill_38"/>
</clipPath>
<g clip-path="url(#ClipPath_38)">
<path d="M839.927 142.562C839.927 146.21 842.918 149.169 846.673 149.169C850.637 149.169 853.628 146.21 853.628 142.562C853.628 138.57 850.637 135.61 846.673 135.61C842.918 135.61 839.927 138.57 839.927 142.562Z" fill="#000080" fill-rule="evenodd" opacity="1" stroke="none"/>
</g>
</g>
<g opacity="1" vectornator:mask="#Fill_39">
<clipPath id="ClipPath_39">
<use overflow="#visible" xlink:href="#Fill_39"/>
</clipPath>
<g clip-path="url(#ClipPath_39)">
<path d="M376.17 187.114C376.101 187.664 376.031 188.284 376.031 188.835C376.031 194.892 380.204 201.155 392.167 201.155L403.225 201.155C407.745 201.155 410.04 202.256 410.04 205.973C410.04 206.179 410.04 206.386 410.04 206.592L371.928 206.592L371.928 214.095L391.332 214.095L391.332 223.249C391.332 229.581 394.67 233.78 401.277 233.78C405.381 233.78 409.275 231.715 411.501 229.994C411.918 230.82 412.127 231.784 412.127 232.747C412.127 237.359 407.954 241.558 400.999 241.558C393.279 241.558 384.864 235.776 384.864 221.115L375.753 223.18C375.892 237.703 385.629 250.092 400.999 250.092C413.587 250.092 421.377 241.971 421.377 232.197C421.377 226.553 418.178 221.528 414.422 219.257C410.179 222.217 404.616 225.176 402.738 225.176C401.764 225.176 400.999 224.763 400.999 222.905L400.999 214.095L425.202 214.095L425.202 206.592L419.29 206.592C419.36 206.179 419.36 205.767 419.36 205.354C419.36 197.232 412.683 193.171 405.103 193.171L392.584 193.171C386.603 193.171 385.212 190.28 385.212 187.527C385.212 186.907 385.281 186.288 385.42 185.668L376.17 187.114Z" fill="#000080" fill-rule="evenodd" opacity="1" stroke="none"/>
</g>
</g>
<g opacity="1" vectornator:mask="#Fill_40">
<clipPath id="ClipPath_40">
<use overflow="#visible" xlink:href="#Fill_40"/>
</clipPath>
<g clip-path="url(#ClipPath_40)">
<path d="M479.877 222.354L477.303 221.46C471.044 219.257 469.444 217.33 469.444 214.37L469.444 214.095L494.621 214.095L494.621 206.592L426.394 206.592L426.394 214.095L432.236 214.095L432.236 236.877C432.236 243.347 436.34 247.752 444.477 247.752C452.336 247.752 458.734 242.59 460.681 236.12L460.681 242.384C460.681 248.853 464.506 253.259 472.365 253.259C483.215 253.259 490.726 243.622 490.726 235.157C490.726 227.929 486.484 224.626 479.877 222.354ZM469.792 226.897C470.835 227.792 472.226 228.618 474.939 229.581L476.886 230.27C479.877 231.302 481.546 232.61 481.546 235.225C481.546 240.456 476.469 244.93 472.852 244.93C470.905 244.93 470.001 243.898 470.001 242.452L470.001 235.982C470.001 230.338 469.514 226.897 469.514 226.897L469.792 226.897ZM441.347 224.832C442.39 225.727 443.781 226.553 446.494 227.516L447.885 227.998C450.527 228.893 452.127 229.788 452.127 232.059C452.127 235.914 448.163 239.424 444.616 239.424C442.251 239.424 441.556 238.391 441.556 236.74L441.556 233.918C441.556 228.274 441.069 224.832 441.069 224.832L441.347 224.832ZM450.875 220.083L448.858 219.395C443.364 217.467 441.486 216.366 441.069 214.095L460.681 214.095L460.681 227.998C459.36 224.213 455.952 221.804 450.875 220.083Z" fill="#000080" fill-rule="evenodd" opacity="1" stroke="none"/>
</g>
</g>
<g opacity="1" vectornator:mask="#Fill_41">
<clipPath id="ClipPath_41">
<use overflow="#visible" xlink:href="#Fill_41"/>
</clipPath>
<g clip-path="url(#ClipPath_41)">
<path d="M565.927 214.095L540.056 214.095L540.056 206.592L582.41 206.592L582.41 214.095L575.456 214.095L575.456 245.618L578.863 247.615L572.674 253.878L543.881 237.29L543.881 229.65C546.941 226.415 555.426 219.463 565.927 216.641L565.927 214.095ZM565.927 225.658C560.225 227.792 555.287 231.509 553.757 233.229L566.484 240.525L566.762 240.525C566.206 238.804 565.927 233.986 565.927 229.788L565.927 225.658Z" fill="#000080" fill-rule="evenodd" opacity="1" stroke="none"/>
</g>
</g>
<g opacity="1" vectornator:mask="#Fill_42">
<clipPath id="ClipPath_42">
<use overflow="#visible" xlink:href="#Fill_42"/>
</clipPath>
<g clip-path="url(#ClipPath_42)">
<path d="M563.632 200.948C557.999 196.819 551.044 194.685 545.063 194.685C539.221 194.685 535.883 197.645 535.883 202.738L535.883 206.592L542.838 206.592L542.838 214.095L535.883 214.095L535.883 252.777L526.215 252.777L526.215 214.095L519.261 214.095L519.261 206.592L526.215 206.592L526.215 202.187C526.215 193.24 532.753 186.219 544.854 186.219C554.73 186.219 563.215 189.798 568.988 194.134L563.632 200.948Z" fill="#000080" fill-rule="evenodd" opacity="1" stroke="none"/>
</g>
</g>
<g opacity="1" vectornator:mask="#Fill_43">
<clipPath id="ClipPath_43">
<use overflow="#visible" xlink:href="#Fill_43"/>
</clipPath>
<g clip-path="url(#ClipPath_43)">
<path d="M619.559 252.777L619.559 242.315C619.559 236.051 620.254 228.342 622.41 222.767L615.038 218.5C609.196 220.565 603.146 224.763 599.946 228.48L599.946 214.095L627.001 214.095L627.001 206.592L583.603 206.592L583.603 214.095L590.21 214.095L590.21 239.493L599.39 242.797C602.589 237.497 608.292 231.715 612.187 229.237C611.074 231.715 609.822 236.12 609.822 242.384L609.822 252.777L619.559 252.777Z" fill="#000080" fill-rule="evenodd" opacity="1" stroke="none"/>
</g>
</g>
<g opacity="1" vectornator:mask="#Fill_44">
<clipPath id="ClipPath_44">
<use overflow="#visible" xlink:href="#Fill_44"/>
</clipPath>
<g clip-path="url(#ClipPath_44)">
<path d="M631.382 214.095L624.219 214.095L624.219 206.592L646.544 206.592L646.544 214.095L644.527 214.095C641.119 214.095 638.267 216.848 638.267 221.804C638.267 228.549 642.51 232.954 642.51 240.25C642.51 246.169 638.963 252.088 633.19 255.323L626.375 249.748C631.313 246.651 633.051 243.416 633.051 240.181C633.051 233.505 628.461 229.306 628.461 222.148C628.461 218.156 629.991 215.747 631.382 214.37L631.382 214.095Z" fill="#000080" fill-rule="evenodd" opacity="1" stroke="none"/>
</g>
</g>
<g opacity="1" vectornator:mask="#Fill_45">
<clipPath id="ClipPath_45">
<use overflow="#visible" xlink:href="#Fill_45"/>
</clipPath>
<g clip-path="url(#ClipPath_45)">
<path d="M651.134 200.26C651.134 203.495 651.829 206.455 652.803 209.001L652.316 209.001C651.482 207.969 649.812 206.592 646.613 206.592L643.762 206.592L643.762 214.095L644.04 214.095C648.421 214.095 650.716 215.403 650.716 222.148L650.716 252.777L660.453 252.777L660.453 214.095L667.408 214.095L667.408 206.592L660.453 206.592L660.453 199.572L651.134 199.572L651.134 200.26Z" fill="#000080" fill-rule="evenodd" opacity="1" stroke="none"/>
</g>
</g>
<g opacity="1" vectornator:mask="#Fill_46">
<clipPath id="ClipPath_46">
<use overflow="#visible" xlink:href="#Fill_46"/>
</clipPath>
<g clip-path="url(#ClipPath_46)">
<path d="M695.098 247.615C693.498 248.096 691.621 248.372 689.326 248.372C678.893 248.372 672.704 241.833 672.704 233.229C672.704 224.281 679.172 219.119 686.057 219.119C691.76 219.119 694.889 222.217 695.724 224.694L696.002 224.694C696.698 221.666 699.758 218.982 703.653 218.982C706.434 218.982 708.382 220.083 708.938 220.634L709.286 220.634L709.286 214.095L668.6 214.095L668.6 206.592L725.838 206.592L725.838 214.095L718.884 214.095L718.884 252.777L709.286 252.777L709.286 229.788C708.66 228.48 706.991 227.379 704.904 227.379C702.053 227.379 700.106 229.444 700.106 232.954L700.106 235.157L691.203 235.157L691.203 232.954C691.203 228.962 689.326 227.585 686.961 227.585C684.596 227.585 682.301 229.375 682.301 233.023C682.301 237.497 685.57 240.181 689.882 240.181C691.273 240.181 692.734 239.906 693.916 239.355L695.098 247.615Z" fill="#000080" fill-rule="evenodd" opacity="1" stroke="none"/>
</g>
</g>
<g opacity="1" vectornator:mask="#Fill_47">
<clipPath id="ClipPath_47">
<use overflow="#visible" xlink:href="#Fill_47"/>
</clipPath>
<g clip-path="url(#ClipPath_47)">
<path d="M733.916 255.048C733.916 258.283 736.281 260.417 739.271 260.417C742.192 260.417 744.487 258.283 744.487 255.048C744.487 251.744 742.192 249.748 739.271 249.748C736.281 249.748 733.916 251.744 733.916 255.048ZM741.636 214.095L754.641 214.095L754.641 227.379C754.641 231.164 754.989 237.359 755.476 240.8L755.198 240.8L741.358 233.229L749.356 227.241L749.356 220.771L741.636 214.37L741.636 214.095ZM761.387 253.878L767.438 247.615L764.169 245.756L764.169 214.095L771.124 214.095L771.124 206.592L727.031 206.592L727.031 214.095L731.899 214.095L731.899 216.779L740.245 223.731L731.899 229.994L731.899 237.634L761.387 253.878Z" fill="#000080" fill-rule="evenodd" opacity="1" stroke="none"/>
</g>
</g>
</g>
</g>
</g>
</svg>
