<?xml version="1.0" encoding="UTF-8" standalone="no"?> <!-- Created with Vectornator (http://vectornator.io/) --><!DOCTYPE svg PUBLIC "-//W3C//DTD SVG 1.1//EN" "http://www.w3.org/Graphics/SVG/1.1/DTD/svg11.dtd">
<svg height="100%" stroke-miterlimit="10" style="fill-rule:nonzero;clip-rule:evenodd;stroke-linecap:round;stroke-linejoin:round;" version="1.1" viewBox="0 0 900 360" width="100%" xml:space="preserve" xmlns="http://www.w3.org/2000/svg" xmlns:vectornator="http://vectornator.io" xmlns:xlink="http://www.w3.org/1999/xlink">
<metadata>
<vectornator:setting key="IsTimeLapseWatermarkDisabled" value="false"/>
<vectornator:setting key="UndoHistoryDisabled" value="true"/>
<vectornator:setting key="VNDimensionsVisible" value="true"/>
<vectornator:setting key="VNSnapToGuides" value="true"/>
<vectornator:setting key="WDCMYKEnabledKey" value="false"/>
<vectornator:setting key="WDDisplayWhiteBackground" value="false"/>
<vectornator:setting key="WDDynamicGuides" value="false"/>
<vectornator:setting key="WDGuidesVisible" value="true"/>
<vectornator:setting key="WDIsolateActiveLayer" value="false"/>
<vectornator:setting key="WDOutlineMode" value="false"/>
<vectornator:setting key="WDRulersVisible" value="true"/>
<vectornator:setting key="WDSnapToEdges" value="false"/>
<vectornator:setting key="WDSnapToGrid" value="false"/>
<vectornator:setting key="WDSnapToPoints" value="false"/>
<vectornator:setting key="WDUnits" value="Pixels"/>
</metadata>
<defs>
<path d="M92.568 178.321L174.153 178.321L174.153 178.321L174.153 209.524L174.153 209.524L92.568 209.524L92.568 209.524L92.568 178.321L92.568 178.321Z" fill-rule="evenodd" id="Fill"/>
<path d="M92.568 178.321L174.153 178.321L174.153 178.321L174.153 209.524L174.153 209.524L92.568 209.524L92.568 209.524L92.568 178.321L92.568 178.321Z" fill-rule="evenodd" id="Fill_2"/>
<path d="M92.568 178.321L174.153 178.321L174.153 178.321L174.153 209.524L174.153 209.524L92.568 209.524L92.568 209.524L92.568 178.321L92.568 178.321Z" fill-rule="evenodd" id="Fill_3"/>
<path d="M92.568 178.321L174.153 178.321L174.153 178.321L174.153 209.524L174.153 209.524L92.568 209.524L92.568 209.524L92.568 178.321L92.568 178.321Z" fill-rule="evenodd" id="Fill_4"/>
<path d="M92.568 178.321L174.153 178.321L174.153 178.321L174.153 209.524L174.153 209.524L92.568 209.524L92.568 209.524L92.568 178.321L92.568 178.321Z" fill-rule="evenodd" id="Fill_5"/>
<path d="M107.144 145.448L152.164 145.448L152.164 145.448L152.164 178.03L152.164 178.03L107.144 178.03L107.144 178.03L107.144 145.448L107.144 145.448Z" fill-rule="evenodd" id="Fill_6"/>
<path d="M107.144 145.448L152.164 145.448L152.164 145.448L152.164 178.03L152.164 178.03L107.144 178.03L107.144 178.03L107.144 145.448L107.144 145.448Z" fill-rule="evenodd" id="Fill_7"/>
<path d="M107.144 145.448L152.164 145.448L152.164 145.448L152.164 178.03L152.164 178.03L107.144 178.03L107.144 178.03L107.144 145.448L107.144 145.448Z" fill-rule="evenodd" id="Fill_8"/>
<path d="M191.778 145.307L236.798 145.307L236.798 145.307L236.798 177.89L236.798 177.89L191.778 177.89L191.778 177.89L191.778 145.307L191.778 145.307Z" fill-rule="evenodd" id="Fill_9"/>
<path d="M191.778 145.307L236.798 145.307L236.798 145.307L236.798 177.89L236.798 177.89L191.778 177.89L191.778 177.89L191.778 145.307L191.778 145.307Z" fill-rule="evenodd" id="Fill_10"/>
<path d="M191.778 145.307L236.798 145.307L236.798 145.307L236.798 177.89L236.798 177.89L191.778 177.89L191.778 177.89L191.778 145.307L191.778 145.307Z" fill-rule="evenodd" id="Fill_11"/>
<path d="M193.64 178.687L238.66 178.687L238.66 178.687L238.66 205.686L238.66 205.686L193.64 205.686L193.64 205.686L193.64 178.687L193.64 178.687Z" fill-rule="evenodd" id="Fill_12"/>
<path d="M193.64 178.687L238.66 178.687L238.66 178.687L238.66 205.686L238.66 205.686L193.64 205.686L193.64 205.686L193.64 178.687L193.64 178.687Z" fill-rule="evenodd" id="Fill_13"/>
<path d="M193.64 178.687L238.66 178.687L238.66 178.687L238.66 205.686L238.66 205.686L193.64 205.686L193.64 205.686L193.64 178.687L193.64 178.687Z" fill-rule="evenodd" id="Fill_14"/>
<path d="M105.82 247.798L242.798 247.798L242.798 247.798L242.798 273.442L242.798 273.442L105.82 273.442L105.82 273.442L105.82 247.798L105.82 247.798Z" fill-rule="evenodd" id="Fill_15"/>
<path d="M105.82 247.798L242.798 247.798L242.798 247.798L242.798 273.442L242.798 273.442L105.82 273.442L105.82 273.442L105.82 247.798L105.82 247.798Z" fill-rule="evenodd" id="Fill_16"/>
<path d="M105.82 247.798L242.798 247.798L242.798 247.798L242.798 273.442L242.798 273.442L105.82 273.442L105.82 273.442L105.82 247.798L105.82 247.798Z" fill-rule="evenodd" id="Fill_17"/>
<path d="M105.82 247.798L242.798 247.798L242.798 247.798L242.798 273.442L242.798 273.442L105.82 273.442L105.82 273.442L105.82 247.798L105.82 247.798Z" fill-rule="evenodd" id="Fill_18"/>
<path d="M105.82 247.798L242.798 247.798L242.798 247.798L242.798 273.442L242.798 273.442L105.82 273.442L105.82 273.442L105.82 247.798L105.82 247.798Z" fill-rule="evenodd" id="Fill_19"/>
<path d="M105.82 247.798L242.798 247.798L242.798 247.798L242.798 273.442L242.798 273.442L105.82 273.442L105.82 273.442L105.82 247.798L105.82 247.798Z" fill-rule="evenodd" id="Fill_20"/>
<path d="M105.82 247.798L242.798 247.798L242.798 247.798L242.798 273.442L242.798 273.442L105.82 273.442L105.82 273.442L105.82 247.798L105.82 247.798Z" fill-rule="evenodd" id="Fill_21"/>
<path d="M105.82 247.798L242.798 247.798L242.798 247.798L242.798 273.442L242.798 273.442L105.82 273.442L105.82 273.442L105.82 247.798L105.82 247.798Z" fill-rule="evenodd" id="Fill_22"/>
<path d="M105.82 247.798L242.798 247.798L242.798 247.798L242.798 273.442L242.798 273.442L105.82 273.442L105.82 273.442L105.82 247.798L105.82 247.798Z" fill-rule="evenodd" id="Fill_23"/>
<path d="M105.82 247.798L242.798 247.798L242.798 247.798L242.798 273.442L242.798 273.442L105.82 273.442L105.82 273.442L105.82 247.798L105.82 247.798Z" fill-rule="evenodd" id="Fill_24"/>
<path d="M374.715 84.185L896.45 84.185L896.45 84.185L896.45 275.815L896.45 275.815L374.715 275.815L374.715 275.815L374.715 84.185L374.715 84.185Z" fill-rule="evenodd" id="Fill_25"/>
<path d="M374.715 84.185L896.45 84.185L896.45 84.185L896.45 275.815L896.45 275.815L374.715 275.815L374.715 275.815L374.715 84.185L374.715 84.185Z" fill-rule="evenodd" id="Fill_26"/>
<path d="M374.715 84.185L896.45 84.185L896.45 84.185L896.45 275.815L896.45 275.815L374.715 275.815L374.715 275.815L374.715 84.185L374.715 84.185Z" fill-rule="evenodd" id="Fill_27"/>
<path d="M374.715 84.185L896.45 84.185L896.45 84.185L896.45 275.815L896.45 275.815L374.715 275.815L374.715 275.815L374.715 84.185L374.715 84.185Z" fill-rule="evenodd" id="Fill_28"/>
<path d="M374.715 84.185L896.45 84.185L896.45 84.185L896.45 275.815L896.45 275.815L374.715 275.815L374.715 275.815L374.715 84.185L374.715 84.185Z" fill-rule="evenodd" id="Fill_29"/>
<path d="M374.715 84.185L896.45 84.185L896.45 84.185L896.45 275.815L896.45 275.815L374.715 275.815L374.715 275.815L374.715 84.185L374.715 84.185Z" fill-rule="evenodd" id="Fill_30"/>
<path d="M374.715 84.185L896.45 84.185L896.45 84.185L896.45 275.815L896.45 275.815L374.715 275.815L374.715 275.815L374.715 84.185L374.715 84.185Z" fill-rule="evenodd" id="Fill_31"/>
<path d="M374.715 84.185L896.45 84.185L896.45 84.185L896.45 275.815L896.45 275.815L374.715 275.815L374.715 275.815L374.715 84.185L374.715 84.185Z" fill-rule="evenodd" id="Fill_32"/>
<path d="M374.715 84.185L896.45 84.185L896.45 84.185L896.45 275.815L896.45 275.815L374.715 275.815L374.715 275.815L374.715 84.185L374.715 84.185Z" fill-rule="evenodd" id="Fill_33"/>
<path d="M374.715 84.185L896.45 84.185L896.45 84.185L896.45 275.815L896.45 275.815L374.715 275.815L374.715 275.815L374.715 84.185L374.715 84.185Z" fill-rule="evenodd" id="Fill_34"/>
<path d="M374.715 84.185L896.45 84.185L896.45 84.185L896.45 275.815L896.45 275.815L374.715 275.815L374.715 275.815L374.715 84.185L374.715 84.185Z" fill-rule="evenodd" id="Fill_35"/>
<path d="M374.715 84.185L896.45 84.185L896.45 84.185L896.45 275.815L896.45 275.815L374.715 275.815L374.715 275.815L374.715 84.185L374.715 84.185Z" fill-rule="evenodd" id="Fill_36"/>
<path d="M374.715 84.185L896.45 84.185L896.45 84.185L896.45 275.815L896.45 275.815L374.715 275.815L374.715 275.815L374.715 84.185L374.715 84.185Z" fill-rule="evenodd" id="Fill_37"/>
<path d="M374.715 84.185L896.45 84.185L896.45 84.185L896.45 275.815L896.45 275.815L374.715 275.815L374.715 275.815L374.715 84.185L374.715 84.185Z" fill-rule="evenodd" id="Fill_38"/>
<path d="M374.715 84.185L896.45 84.185L896.45 84.185L896.45 275.815L896.45 275.815L374.715 275.815L374.715 275.815L374.715 84.185L374.715 84.185Z" fill-rule="evenodd" id="Fill_39"/>
<path d="M374.715 84.185L896.45 84.185L896.45 84.185L896.45 275.815L896.45 275.815L374.715 275.815L374.715 275.815L374.715 84.185L374.715 84.185Z" fill-rule="evenodd" id="Fill_40"/>
<path d="M374.715 84.185L896.45 84.185L896.45 84.185L896.45 275.815L896.45 275.815L374.715 275.815L374.715 275.815L374.715 84.185L374.715 84.185Z" fill-rule="evenodd" id="Fill_41"/>
<path d="M374.715 84.185L896.45 84.185L896.45 84.185L896.45 275.815L896.45 275.815L374.715 275.815L374.715 275.815L374.715 84.185L374.715 84.185Z" fill-rule="evenodd" id="Fill_42"/>
<path d="M374.715 84.185L896.45 84.185L896.45 84.185L896.45 275.815L896.45 275.815L374.715 275.815L374.715 275.815L374.715 84.185L374.715 84.185Z" fill-rule="evenodd" id="Fill_43"/>
<path d="M374.715 84.185L896.45 84.185L896.45 84.185L896.45 275.815L896.45 275.815L374.715 275.815L374.715 275.815L374.715 84.185L374.715 84.185Z" fill-rule="evenodd" id="Fill_44"/>
<path d="M374.715 84.185L896.45 84.185L896.45 84.185L896.45 275.815L896.45 275.815L374.715 275.815L374.715 275.815L374.715 84.185L374.715 84.185Z" fill-rule="evenodd" id="Fill_45"/>
<path d="M374.715 84.185L896.45 84.185L896.45 84.185L896.45 275.815L896.45 275.815L374.715 275.815L374.715 275.815L374.715 84.185L374.715 84.185Z" fill-rule="evenodd" id="Fill_46"/>
</defs>
<g id="Layer-1" vectornator:layerName="Layer 1">
<g opacity="1">
<g opacity="1">
<g opacity="1">
<path d="M173.55 350C267.438 350 343.55 273.888 343.55 180C343.55 86.112 267.438 10 173.55 10C163.876 10 154.39 10.809 145.156 12.361C112.098 17.92 82.278 33.019 58.625 54.73C24.771 85.805 3.55 130.424 3.55 180C3.55 273.888 79.662 350 173.55 350Z" fill="none" fill-rule="evenodd" opacity="1" stroke="#000080" stroke-linecap="butt" stroke-linejoin="miter" stroke-width="1.44297"/>
<path d="M173.55 308.871C244.723 308.871 302.421 251.173 302.421 180C302.421 108.827 244.723 51.13 173.55 51.13C102.377 51.13 44.679 108.827 44.679 180C44.679 251.173 102.377 308.871 173.55 308.871Z" fill="none" fill-rule="evenodd" opacity="1" stroke="#000080" stroke-linecap="butt" stroke-linejoin="miter" stroke-width="1.44297"/>
</g>
<g opacity="1">
<path d="M14.492 161.615C16.039 161.655 17.461 161.363 18.69 160.936L18.684 161.166C18.181 161.548 17.502 162.32 17.463 163.832L16.608 196.362L20.193 196.456L20.843 171.755L28.341 171.952C30.151 171.999 32.621 171.933 33.45 171.691L33.513 171.791L31.795 174.544C30.914 174.258 29.964 174.101 28.911 174.073C24.865 173.967 21.764 176.749 21.656 180.86C21.569 184.183 23.842 186.645 26.637 186.718C28.512 186.767 30.315 185.795 30.957 183.936L28.764 180.916C28.413 181.762 27.844 182.142 27.153 182.124C26.364 182.103 25.786 181.528 25.81 180.608C25.843 179.325 26.985 178.467 28.762 178.513C31.36 178.581 33.129 180.141 33.055 182.97C32.941 187.312 28.363 189.956 22.243 191.112L24.108 195.276C31.526 193.561 36.993 189.69 37.167 183.045C37.236 180.447 36.503 178.289 35.16 176.772L39.938 169.063L37.022 166.058L36.025 167.644L20.961 167.249L21.016 165.144C21.071 163.071 21.724 162.002 24.947 162.087L39.584 162.472L39.706 157.867L21.22 157.381L21.306 154.092L17.721 153.998L17.635 157.287L14.28 157.198L14.163 161.606L14.492 161.615Z" fill="#000000" fill-rule="evenodd" opacity="1" stroke="none"/>
<path d="M21.118 131.104C18.63 133.298 16.946 136.304 16.355 139.071C15.779 141.774 16.833 143.613 19.214 144.122L21.016 144.506L21.702 141.288L25.21 142.037L24.524 145.255L42.608 149.114L41.654 153.587L23.569 149.727L22.882 152.946L19.375 152.197L20.061 148.979L18.002 148.539C13.819 147.647 11.183 143.922 12.377 138.322C13.353 133.754 15.863 130.185 18.461 127.947L21.118 131.104Z" fill="#000000" fill-rule="evenodd" opacity="1" stroke="none"/>
<path d="M31.998 120.682L28.597 119.545L21.671 140.266L25.073 141.402L25.604 139.811L26.291 140.04C28.02 138.502 30.913 137.735 33.566 138.309C33.481 140.223 34.468 141.732 36.122 142.286C37.994 142.911 39.462 141.841 39.994 140.25C40.391 139.064 40.142 137.524 38.936 136.253C41.123 134.382 44.235 133.48 47.169 133.627L48.494 129.665L30.956 123.802L31.998 120.682ZM39.825 131.207C38.233 131.716 36.515 132.807 35.286 134.304C31.666 133.303 28.648 134.132 27.482 134.714L27.326 134.662L29.558 127.984L33.864 129.424C37.984 130.8 39.804 131.062 39.804 131.062L39.825 131.207Z" fill="#000000" fill-rule="evenodd" opacity="1" stroke="none"/>
<path d="M51.362 126.262C49.863 125.507 49.455 123.976 50.135 122.624C50.815 121.272 52.273 120.716 53.772 121.47C55.271 122.225 55.724 123.741 55.044 125.093C54.364 126.445 52.862 127.015 51.362 126.262ZM37.925 108.896L32.425 119.831L29.221 118.219L38.224 100.318L41.428 101.929L39.95 104.868L53.413 111.64L54.989 110.628L56.349 114.59L43.144 123.196L39.881 121.556C39.15 119.567 37.985 114.487 39.012 109.442L37.925 108.896ZM42.863 111.38C42.562 114.248 43.099 117.134 43.509 118.149L49.33 114.338L49.389 114.22C48.536 114.086 46.42 113.168 44.626 112.266L42.863 111.38Z" fill="#000000" fill-rule="evenodd" opacity="1" stroke="none"/>
<path d="M38.05 95.342C39.352 96.176 40.721 96.662 41.995 96.93L41.871 97.124C41.242 97.191 40.262 97.501 39.447 98.776L38.719 99.912L41.739 101.845L41.81 101.735C42.928 99.989 44.039 99.412 46.756 101.15L59.088 109.043L61.571 105.163L45.997 95.195L47.77 92.423L44.75 90.489L42.976 93.261L40.149 91.451L37.772 95.165L38.05 95.342Z" fill="#000000" fill-rule="evenodd" opacity="1" stroke="none"/>
<path d="M55.468 82.376L47.832 91.942L45.029 89.704L57.53 74.044L60.333 76.282L58.281 78.853L70.058 88.256L71.809 87.591L72.322 91.747L57.627 97.446L54.772 95.167C54.467 93.07 54.374 87.86 56.42 83.136L55.468 82.376ZM59.789 85.825C58.902 88.57 58.833 91.504 59.025 92.583L65.506 90.053L65.588 89.951C64.782 89.643 62.9 88.309 61.331 87.057L59.789 85.825Z" fill="#000000" fill-rule="evenodd" opacity="1" stroke="none"/>
<path d="M58.378 69.144C59.481 70.228 60.721 70.985 61.912 71.51L61.751 71.674C61.122 71.61 60.099 71.712 59.039 72.791L58.092 73.753L60.651 76.267L60.743 76.174C62.196 74.695 63.403 74.359 65.702 76.619L76.146 86.881L79.375 83.596L66.186 70.635L68.492 68.288L65.934 65.775L63.628 68.121L61.234 65.768L58.144 68.913L58.378 69.144Z" fill="#000000" fill-rule="evenodd" opacity="1" stroke="none"/>
<path d="M93.549 71.279L90.374 67.415C88.473 65.102 86.388 62.046 85.484 59.338L81.494 59.977C79.985 62.494 79.048 65.863 79.007 68.195L74.641 62.883L84.529 54.757L82.253 51.986L66.39 65.02L68.667 67.791L71.082 65.807L78.789 75.188L83.148 73.651C82.708 70.732 83.039 66.884 83.711 64.799C84.056 66.049 84.935 68.051 86.836 70.365L89.99 74.204L93.549 71.279Z" fill="#000000" fill-rule="evenodd" opacity="1" stroke="none"/>
<path d="M118.998 29.13C115.743 28.494 112.333 28.99 109.779 30.207C107.284 31.397 106.467 33.353 107.515 35.552L108.308 37.215L111.278 35.799L112.821 39.036L109.851 40.452L117.809 57.144L113.68 59.112L105.723 42.42L102.753 43.836L101.209 40.598L104.18 39.183L103.273 37.282C101.433 33.42 102.78 29.06 107.948 26.596C112.165 24.586 116.526 24.403 119.883 25.099L118.998 29.13Z" fill="#000000" fill-rule="evenodd" opacity="1" stroke="none"/>
<path d="M120.139 41.216C122.159 45.861 125.953 48.89 129.913 47.667C132.051 47.007 132.665 45.646 132.296 44.452C132.111 43.855 131.835 43.63 131.651 43.48L128.945 43.972C126.009 44.5 124.489 43.591 123.886 41.643C123.071 39.002 124.318 36.24 125.696 34.231L113.686 37.94L112.628 34.513L141.897 25.474L142.955 28.9L132.203 32.221C133.315 33.703 135.674 34.765 139.353 33.63L140.391 33.309L142.909 36.112C142.387 38.546 142.719 41.405 143.525 44.015L144.807 48.164L140.468 49.504L139.089 45.04C138.371 42.714 137.983 40.01 138.603 37.89C134.276 38.709 131.211 37.039 129.659 35.245C128.381 37.017 127.996 38.445 128.277 39.357C128.404 39.766 128.698 40.053 129.775 39.858L133.328 39.209C134.727 39.948 136.054 41.122 136.637 43.008C137.569 46.026 136.095 50.063 131.191 51.577C125.091 53.461 119.378 49.681 116.593 43.895L120.139 41.216Z" fill="#000000" fill-rule="evenodd" opacity="1" stroke="none"/>
<path d="M148.526 44.486C148.8 46.208 150.422 47.381 152.176 47.101C154.028 46.805 155.202 45.184 154.926 43.462C154.624 41.577 153.004 40.404 151.152 40.7C149.398 40.981 148.224 42.601 148.526 44.486Z" fill="#000000" fill-rule="evenodd" opacity="1" stroke="none"/>
<path d="M166.872 42.493C163.985 41.59 162.264 39.66 161.951 36.086C161.633 32.448 162.574 29.228 163.559 26.896L165.919 26.689L165.608 23.116L159.871 23.619C157.819 28.488 157.119 32.942 157.425 36.449C157.921 42.119 161.079 45.377 165.089 46.282L166.872 42.493Z" fill="#000000" fill-rule="evenodd" opacity="1" stroke="none"/>
<path d="M183.407 38.71C184.805 38.302 185.899 37.256 185.952 35.843C186.011 34.298 184.777 32.966 182.415 32.746L182.069 41.886L183.768 43.102L180.51 45.646L168.139 36.716L168.288 32.771C170.959 30.929 174.246 29.342 178.117 28.862L178.2 26.659L166.725 26.225L166.861 22.641L192.408 23.608L192.272 27.192L182.638 26.827L182.565 28.767C187.814 29.295 190.284 32.747 190.155 36.166C190.054 38.83 188.524 40.978 186.112 42.039L183.407 38.71ZM172.514 35.071L177.869 38.863L178.001 38.867C177.866 37.216 177.89 34.846 177.956 33.104L177.964 32.907C175.84 33.32 174.066 34.109 172.514 35.071Z" fill="#000000" fill-rule="evenodd" opacity="1" stroke="none"/>
<path d="M192.451 43.475C192.172 45.196 193.342 46.82 195.095 47.104C196.947 47.405 198.57 46.235 198.85 44.513C199.155 42.63 197.985 41.007 196.134 40.706C194.38 40.421 192.757 41.591 192.451 43.475Z" fill="#000000" fill-rule="evenodd" opacity="1" stroke="none"/>
<path d="M231.866 23.909C231.728 24.136 231.577 24.392 231.469 24.632C230.28 27.272 230.85 30.813 236.009 33.138L240.78 35.286C242.73 36.164 243.503 37.091 242.774 38.711C242.733 38.801 242.692 38.89 242.652 38.98L226.212 31.575L224.739 34.845L233.109 38.615L231.311 42.605C230.069 45.365 230.683 47.844 233.534 49.128C235.304 49.925 237.39 49.782 238.687 49.464C238.705 49.905 238.606 50.366 238.417 50.786C237.511 52.796 234.887 53.815 231.887 52.464C228.557 50.964 226.062 46.808 228.941 40.418L224.605 39.548C221.814 45.905 223.581 53.196 230.211 56.183C235.641 58.63 240.596 56.603 242.515 52.343C243.623 49.883 243.229 47.072 242.056 45.352C239.644 45.818 236.663 46.027 235.854 45.661C235.433 45.472 235.184 45.144 235.549 44.333L237.279 40.494L247.719 45.197L249.192 41.927L246.642 40.778C246.753 40.611 246.834 40.432 246.915 40.252C248.51 36.712 246.428 33.644 243.157 32.171L237.758 29.739C235.178 28.576 235.145 27.046 235.686 25.846C235.808 25.576 235.959 25.319 236.141 25.077L231.866 23.909Z" fill="#000000" fill-rule="evenodd" opacity="1" stroke="none"/>
<path d="M267.855 63.863L267.116 62.805C265.326 60.221 265.249 59.031 266.076 57.883L266.152 57.776L275.823 64.729L277.917 61.817L251.709 42.975L249.616 45.887L251.86 47.5L245.503 56.343C243.696 58.854 244.043 61.698 247.17 63.944C250.188 66.115 254.086 65.878 256.64 63.905L254.892 66.336C253.087 68.847 253.327 71.613 256.346 73.784C260.513 76.78 266.088 75.114 268.45 71.828C270.467 69.023 269.759 66.569 267.855 63.863ZM262.713 62.841C262.865 63.476 263.169 64.181 263.942 65.304L264.497 66.109C265.358 67.336 265.634 68.304 264.904 69.32C263.444 71.35 260.247 71.684 258.857 70.686C258.109 70.148 258.05 69.498 258.453 68.937L260.258 66.425C261.833 64.234 262.607 62.764 262.607 62.764L262.713 62.841ZM252.363 54.184C252.514 54.819 252.818 55.524 253.591 56.647L253.991 57.219C254.756 58.296 255.121 59.085 254.487 59.966C253.412 61.462 250.909 61.73 249.546 60.75C248.638 60.098 248.66 59.505 249.121 58.863L249.908 57.768C251.483 55.578 252.257 54.107 252.257 54.107L252.363 54.184ZM257.349 54.972L256.766 54.148C255.193 51.882 254.779 50.936 255.253 49.939L262.786 55.355L258.907 60.752C259.456 58.918 258.818 57.042 257.349 54.972Z" fill="#000000" fill-rule="evenodd" opacity="1" stroke="none"/>
<path d="M308.407 93.531C308.318 90.216 307.091 86.997 305.346 84.769C303.641 82.594 301.553 82.224 299.637 83.725L298.187 84.861L300.216 87.452L297.393 89.663L295.363 87.073L280.808 98.478L277.987 94.878L292.543 83.473L290.513 80.883L293.337 78.671L295.366 81.262L297.023 79.962C300.39 77.325 304.94 77.689 308.471 82.196C311.353 85.874 312.481 90.089 312.534 93.517L308.407 93.531Z" fill="#000000" fill-rule="evenodd" opacity="1" stroke="none"/>
<path d="M304.334 100.259L297.835 89.886L300.873 87.982L311.514 104.962L308.474 106.867L306.727 104.078L293.957 112.08L294.005 113.953L289.912 113.061L289.399 97.307L292.494 95.368C294.573 95.774 299.521 97.411 303.302 100.905L304.334 100.259ZM299.65 103.193C297.352 101.448 294.606 100.412 293.525 100.236L293.767 107.19L293.837 107.302C294.394 106.642 296.276 105.308 297.976 104.242L299.65 103.193Z" fill="#000000" fill-rule="evenodd" opacity="1" stroke="none"/>
<path d="M298.983 130.735L303.548 128.693C306.281 127.471 309.78 126.267 312.629 126.109L313.067 122.092C311.037 119.973 308.036 118.179 305.797 117.523L312.074 114.715L317.3 126.398L320.574 124.934L312.19 106.192L308.916 107.656L310.193 110.51L299.11 115.468L299.442 120.077C302.372 120.425 305.997 121.759 307.83 122.957C306.534 122.96 304.37 123.279 301.637 124.502L297.102 126.531L298.983 130.735Z" fill="#000000" fill-rule="evenodd" opacity="1" stroke="none"/>
<path d="M318.194 129.919L317.139 126.699L320.546 125.581L323.837 135.617L320.429 136.734L320.133 135.828C319.63 134.296 317.959 133.424 315.708 134.162C312.643 135.167 311.268 137.73 307.954 138.817C305.265 139.698 302.053 138.985 299.733 136.872L301.262 132.978C303.396 134.736 305.121 135.036 306.591 134.555C309.624 133.56 310.854 130.871 314.106 129.805C315.919 129.21 317.239 129.539 318.069 129.959L318.194 129.919Z" fill="#000000" fill-rule="evenodd" opacity="1" stroke="none"/>
<path d="M327.648 138.301C326.148 138.679 324.857 139.343 323.789 140.087L323.732 139.864C324.114 139.361 324.559 138.434 324.19 136.966L323.86 135.658L320.383 136.534L320.415 136.662C320.921 138.672 320.581 139.878 317.454 140.666L303.255 144.241L304.38 148.708L322.312 144.192L323.115 147.383L326.593 146.507L325.79 143.316L329.044 142.496L327.967 138.221L327.648 138.301Z" fill="#000000" fill-rule="evenodd" opacity="1" stroke="none"/>
<path d="M309.326 162.506C309.009 161.781 308.775 160.914 308.65 159.835C308.077 154.933 310.843 151.662 314.928 151.186C319.176 150.69 321.982 153.444 322.36 156.679C322.672 159.359 321.373 161.001 320.243 161.53L320.258 161.661C321.734 161.82 323.177 163.109 323.39 164.939C323.543 166.246 323.126 167.222 322.895 167.515L322.915 167.679L326.019 167.316L323.789 148.197L327.351 147.781L330.489 174.679L326.927 175.094L326.546 171.826L308.178 173.97L307.653 169.459L318.568 168.186C319.154 167.819 319.586 166.974 319.472 165.993C319.315 164.653 318.228 163.852 316.561 164.047L315.516 164.169L315.027 159.985L316.074 159.864C317.969 159.642 318.52 158.684 318.39 157.573C318.26 156.461 317.285 155.483 315.552 155.684C313.428 155.932 312.333 157.617 312.569 159.643C312.645 160.297 312.857 160.968 313.183 161.493L309.326 162.506Z" fill="#000000" fill-rule="evenodd" opacity="1" stroke="none"/>
<path d="M307.015 178.671C305.47 178.598 304.399 179.668 304.334 181.082C304.269 182.462 305.237 183.594 306.782 183.667C308.36 183.74 309.363 182.7 309.428 181.319C309.494 179.906 308.593 178.744 307.015 178.671ZM326.401 183.232L326.114 189.378L319.771 189.082C317.963 188.997 314.997 189.023 313.343 189.177L313.349 189.045L317.27 182.674L319.953 186.587L323.043 186.732L326.269 183.226L326.401 183.232ZM306.968 191.679L309.826 194.678L310.785 193.175L325.904 193.881L325.75 197.167L329.333 197.334L330.306 176.497L326.723 176.33L326.616 178.63L325.334 178.57L321.83 182.36L319.023 178.276L315.375 178.105L306.968 191.679Z" fill="#000000" fill-rule="evenodd" opacity="1" stroke="none"/>
</g>
<path d="M273.669 117.684C273.623 117.684 273.623 117.684 273.669 117.684L273.669 117.684L259.919 117.684L259.919 113.008C260.011 111.156 258.808 109.489 257.002 108.979C247.511 106.48 237.696 105.23 227.881 105.276C211.723 105.276 189.731 108.933 173.435 125.462C157.276 108.748 135.099 105.276 118.988 105.276C109.172 105.23 99.357 106.48 89.866 108.979C88.107 109.489 86.903 111.156 86.95 113.008L86.95 117.638L73.385 117.638C71.162 117.638 69.356 119.443 69.356 121.665L69.356 250.651C69.356 252.873 71.162 254.679 73.385 254.679C74.079 254.679 74.774 254.494 75.375 254.169C75.791 253.984 116.164 231.9 172.555 246.114L173.156 246.114L173.527 246.114C173.851 246.16 174.175 246.16 174.499 246.114C231.029 231.762 271.401 253.846 271.679 254.169C272.929 254.911 274.457 254.911 275.706 254.169C276.956 253.476 277.698 252.133 277.744 250.698L277.744 121.758C277.698 119.489 275.892 117.684 273.669 117.684ZM77.412 244.262L77.412 125.786L87.042 125.786L87.042 227.085C86.996 229.307 88.802 231.16 91.024 231.16C91.256 231.16 91.44 231.16 91.672 231.114C100.006 229.817 108.479 229.169 116.904 229.076C128.618 228.891 140.285 230.65 151.397 234.308C126.349 231.252 100.839 234.679 77.412 244.262ZM116.951 221.02C109.59 221.02 102.275 221.53 94.959 222.455L94.959 116.203C102.83 114.443 110.839 113.563 118.895 113.517C133.989 113.517 154.822 116.989 169.313 133.287L169.452 233.891C161.073 228.428 144.684 221.02 116.951 221.02ZM177.555 133.333C192 117.174 212.834 113.563 227.973 113.563C236.029 113.609 244.038 114.49 251.909 116.249L251.909 222.502C244.641 221.576 237.372 221.067 230.057 221.067C202.509 221.067 186.074 228.475 177.555 233.938L177.555 133.333ZM269.595 244.262C246.122 234.679 220.565 231.206 195.426 234.308C206.584 230.65 218.297 228.891 230.057 229.076C238.576 229.123 247.048 229.771 255.474 231.068C257.697 231.392 259.733 229.864 260.057 227.688C260.104 227.455 260.104 227.271 260.104 227.039L260.104 125.786L269.734 125.786L269.595 244.262Z" fill="#000000" fill-rule="evenodd" opacity="1" stroke="none"/>
<g opacity="1">
<g opacity="1">
<g opacity="1" vectornator:mask="#Fill">
<clipPath id="ClipPath">
<use overflow="#visible" xlink:href="#Fill"/>
</clipPath>
<g clip-path="url(#ClipPath)">
<path d="M121.92 184.331C121.92 185.31 122.113 186.116 122.304 186.615L122.189 186.615C121.978 186.366 121.556 185.943 120.634 185.943L101.978 185.943L101.978 187.709L116.316 187.709L116.316 192.392C116.316 193.506 116.374 194.907 116.508 195.694L116.45 195.713L114.416 194.389C114.627 193.832 114.742 193.199 114.742 192.527C114.742 190.243 113.188 188.534 110.942 188.534C109.042 188.534 107.775 189.839 107.775 191.413C107.775 192.431 108.313 193.41 109.291 193.794L110.75 192.68C110.232 192.45 109.982 192.047 109.982 191.587C109.982 190.953 110.404 190.531 111.095 190.531C111.997 190.531 112.611 191.279 112.611 192.508C112.611 194.12 111.633 195.29 109.867 195.29C107.122 195.29 105.51 192.546 104.762 188.938L102.785 189.859C103.802 194.139 106.048 197.248 109.867 197.248C111.325 197.248 112.516 196.788 113.36 196.001L117.89 198.899L119.348 197.479L118.485 196.941L118.485 187.709L120.116 187.709C121.249 187.709 121.844 188.113 121.844 189.706L121.844 198.611L124.032 198.611L124.032 187.709L126.104 187.709L126.104 185.943L124.032 185.943L124.032 184.005L121.92 184.005L121.92 184.331Z" fill="#000000" fill-rule="evenodd" opacity="1" stroke="none"/>
</g>
</g>
<g opacity="1" vectornator:mask="#Fill_2">
<clipPath id="ClipPath_2">
<use overflow="#visible" xlink:href="#Fill_2"/>
</clipPath>
<g clip-path="url(#ClipPath_2)">
<path d="M137.794 187.709L137.794 185.943L125.337 185.943L125.337 187.709L126.354 187.709L126.354 188.055C127.448 188.688 128.6 190.281 128.696 192.143C127.64 192.392 127.007 193.18 127.007 194.101C127.007 195.08 127.736 195.617 128.6 195.617C129.272 195.617 130.02 195.195 130.443 194.216C132.074 195.022 133.302 196.826 133.706 198.611L135.74 198.611L135.74 187.709L137.794 187.709ZM133.706 194.581C133.092 193.64 132.036 192.68 130.769 192.278C130.711 189.993 129.617 188.362 129.041 187.805L129.041 187.709L133.609 187.709L133.609 191.011C133.609 193.141 133.763 194.216 133.763 194.561L133.706 194.581Z" fill="#000000" fill-rule="evenodd" opacity="1" stroke="none"/>
</g>
</g>
<g opacity="1" vectornator:mask="#Fill_3">
<clipPath id="ClipPath_3">
<use overflow="#visible" xlink:href="#Fill_3"/>
</clipPath>
<g clip-path="url(#ClipPath_3)">
<path d="M139.176 184.331C139.176 185.31 139.367 186.116 139.559 186.615L139.444 186.615C139.233 186.366 138.811 185.943 137.89 185.943L137.026 185.943L137.026 187.709L137.371 187.709C138.504 187.709 139.099 188.113 139.099 189.706L139.099 198.611L141.287 198.611L141.287 187.709L143.36 187.709L143.36 185.943L141.287 185.943L141.287 184.005L139.176 184.005L139.176 184.331Z" fill="#000000" fill-rule="evenodd" opacity="1" stroke="none"/>
</g>
</g>
<g opacity="1" vectornator:mask="#Fill_4">
<clipPath id="ClipPath_4">
<use overflow="#visible" xlink:href="#Fill_4"/>
</clipPath>
<g clip-path="url(#ClipPath_4)">
<path d="M158.158 194.926C158.964 194.638 159.617 193.909 159.617 193.006C159.617 191.932 158.753 191.087 157.16 191.011L157.16 196.883L158.101 197.536L156.546 198.822L149.406 193.678L149.406 191.778C150.96 190.55 152.86 189.532 155.029 189.206L155.029 187.709L148.235 187.709L148.235 185.943L162.822 185.943L162.822 187.709L157.16 187.709L157.16 189.091C160.135 189.225 161.651 191.106 161.651 193.064C161.651 194.6 160.826 195.847 159.54 196.5L158.158 194.926ZM151.497 192.795L155.106 195.464L155.183 195.464C155.068 194.35 155.029 193.006 155.029 191.913L155.029 191.183C153.667 191.452 152.457 192.104 151.497 192.795Z" fill="#000000" fill-rule="evenodd" opacity="1" stroke="none"/>
</g>
</g>
<g opacity="1" vectornator:mask="#Fill_5">
<clipPath id="ClipPath_5">
<use overflow="#visible" xlink:href="#Fill_5"/>
</clipPath>
<g clip-path="url(#ClipPath_5)">
<path d="M148.618 197.306C146.93 196.596 146.066 195.195 146.066 193.045C146.066 190.953 146.757 189.072 147.582 187.709L149.002 187.709L149.002 185.943L142.592 185.943L142.592 187.709L145.241 187.709C144.492 189.11 143.897 191.011 143.897 193.026C143.897 196.155 145.375 198.285 147.601 199.053L148.618 197.306Z" fill="#000000" fill-rule="evenodd" opacity="1" stroke="none"/>
</g>
</g>
</g>
<g opacity="1">
<g opacity="1" vectornator:mask="#Fill_6">
<clipPath id="ClipPath_6">
<use overflow="#visible" xlink:href="#Fill_6"/>
</clipPath>
<g clip-path="url(#ClipPath_6)">
<path d="M118.051 155.757C118.493 155.354 119.318 154.778 120.547 154.778C121.679 154.778 122.505 155.258 123.061 156.045L120.566 157.696C120.028 156.582 119.049 155.949 118.051 155.757ZM116.593 157.158C117.035 157.196 117.342 157.312 117.63 157.465C118.263 157.715 118.685 158.175 118.954 158.77L117.207 159.922L118.244 161.515L123.81 157.81C123.963 158.405 124.021 159.058 124.021 159.73L124.021 162.014C124.021 162.801 124.117 163.742 124.27 164.298L124.193 164.298C123.656 163.684 123.023 163.415 122.063 163.415C121.411 163.415 120.105 163.454 119.395 163.454C117.725 163.454 117.342 162.263 117.342 161.131L115.288 161.611C115.326 163.588 116.439 165.316 119.203 165.316C119.933 165.316 121.2 165.296 121.986 165.296C123.368 165.296 123.982 165.93 124.079 167.005L126.074 167.005L126.074 154.836L128.128 154.836L128.128 153.07L126.074 153.07L126.074 151.131L123.982 151.131L123.982 151.649C123.982 152.647 124.079 154.107 124.405 154.893L124.328 154.932C123.752 154.049 122.639 152.916 120.412 152.916C118.205 152.916 116.439 154.26 115.576 155.488L116.593 157.158Z" fill="#000000" fill-rule="evenodd" opacity="1" stroke="none"/>
</g>
</g>
<g opacity="1" vectornator:mask="#Fill_7">
<clipPath id="ClipPath_7">
<use overflow="#visible" xlink:href="#Fill_7"/>
</clipPath>
<g clip-path="url(#ClipPath_7)">
<path d="M128.224 157.407C129.261 161.189 131.545 165.142 136.17 165.142C139.817 165.142 141.64 162.993 141.64 160.363C141.64 158.521 140.642 157.005 139.913 156.372L138.263 156.372C137.61 158.233 136.958 158.982 136.151 158.982C135.537 158.982 135.23 158.636 135.23 158.079C135.23 157.715 135.364 157.312 135.556 157.024L133.502 156.736C133.33 157.024 133.119 157.523 133.119 158.214C133.119 159.672 134.155 160.863 135.998 160.863C137.629 160.863 138.57 159.826 139.011 158.693L139.088 158.693C139.318 159.039 139.53 159.558 139.53 160.287C139.53 161.822 138.416 163.089 136.209 163.089C132.542 163.089 130.854 159.404 130.125 156.448L128.224 157.407ZM142.792 154.836L142.792 153.07L127.36 153.07L127.36 154.836L142.792 154.836Z" fill="#000000" fill-rule="evenodd" opacity="1" stroke="none"/>
</g>
</g>
<g opacity="1" vectornator:mask="#Fill_8">
<clipPath id="ClipPath_8">
<use overflow="#visible" xlink:href="#Fill_8"/>
</clipPath>
<g clip-path="url(#ClipPath_8)">
<path d="M135.402 170.786C134.443 170.786 133.809 170.229 133.809 169.423C133.809 168.54 134.424 167.983 135.441 167.983C136.055 167.983 136.669 168.156 137.265 168.444C137.188 169.749 136.574 170.786 135.402 170.786ZM141.103 171.822L142.562 170.67C140.508 168.348 138.051 166.237 135.114 166.237C133.253 166.237 131.756 167.503 131.756 169.423C131.756 171.151 133.138 172.513 135.345 172.513C137.476 172.513 138.627 171.054 138.877 169.538C139.625 170.172 140.374 170.977 141.103 171.822Z" fill="#000000" fill-rule="evenodd" opacity="1" stroke="none"/>
</g>
</g>
</g>
<g opacity="1">
<g opacity="1" vectornator:mask="#Fill_9">
<clipPath id="ClipPath_9">
<use overflow="#visible" xlink:href="#Fill_9"/>
</clipPath>
<g clip-path="url(#ClipPath_9)">
<path d="M203.635 154.696L203.711 154.696C203.788 156.481 204.344 158.054 205.535 158.938L203.213 158.707C202.598 158.631 202.08 158.477 202.08 157.901C202.08 156.942 202.828 155.483 203.635 154.696ZM209.162 164.696C210.928 164.696 211.869 163.467 211.869 162.181C211.869 161.087 211.158 160.396 210.314 160.166L210.314 160.089C211.12 159.801 211.658 159.091 211.658 158.151C211.658 156.807 210.66 155.713 208.951 155.713C207.781 155.713 206.916 156.193 206.341 156.961C205.957 156.366 205.707 155.636 205.65 154.696L213.02 154.696L213.02 152.93L195.439 152.93L195.439 154.696L201.178 154.696C200.602 155.54 200.007 156.884 200.007 158.112C200.007 159.629 201.063 160.377 202.675 160.55L204.671 160.742C204.767 160.953 204.882 161.184 204.882 161.605C204.882 162.47 204.153 163.217 202.751 163.217C200.256 163.217 198.548 160.722 198.318 157.652L196.379 158.324C196.763 162.047 199.201 165.214 202.79 165.214C204.575 165.214 205.784 164.484 206.418 163.467C207.032 164.216 207.934 164.696 209.162 164.696ZM209.757 158.266C209.757 158.957 209.316 159.379 208.567 159.379L208.164 159.379L208.164 160.972L208.586 160.972C209.431 160.972 209.969 161.337 209.969 162.028C209.969 162.584 209.546 162.987 208.913 162.987C207.646 162.987 206.878 161.855 206.878 160.147C206.878 158.228 207.819 157.402 208.721 157.402C209.374 157.402 209.757 157.747 209.757 158.266Z" fill="#000000" fill-rule="evenodd" opacity="1" stroke="none"/>
</g>
</g>
<g opacity="1" vectornator:mask="#Fill_10">
<clipPath id="ClipPath_10">
<use overflow="#visible" xlink:href="#Fill_10"/>
</clipPath>
<g clip-path="url(#ClipPath_10)">
<path d="M214.402 151.318C214.402 152.296 214.594 153.103 214.786 153.602L214.671 153.602C214.46 153.352 214.037 152.93 213.116 152.93L212.253 152.93L212.253 154.696L212.598 154.696C213.73 154.696 214.325 155.099 214.325 156.692L214.325 165.598L216.513 165.598L216.513 154.696L218.586 154.696L218.586 152.93L216.513 152.93L216.513 150.991L214.402 150.991L214.402 151.318Z" fill="#000000" fill-rule="evenodd" opacity="1" stroke="none"/>
</g>
</g>
<g opacity="1" vectornator:mask="#Fill_11">
<clipPath id="ClipPath_11">
<use overflow="#visible" xlink:href="#Fill_11"/>
</clipPath>
<g clip-path="url(#ClipPath_11)">
<path d="M221.83 161.51C221.446 161.222 221.197 160.78 221.197 160.243C221.197 159.379 221.772 158.88 222.771 158.88C225.285 158.88 226.955 162.527 226.955 165.368L226.955 165.598L229.162 165.598L229.162 154.696L231.216 154.696L231.216 152.93L217.838 152.93L217.838 154.696L226.955 154.696L226.955 156.423C226.955 157.978 227.07 159.052 227.127 159.552L227.051 159.552C226.187 158.016 224.69 156.865 222.655 156.865C220.467 156.865 218.97 158.112 218.97 160.224C218.97 161.164 219.335 161.855 219.853 162.335L221.83 161.51Z" fill="#000000" fill-rule="evenodd" opacity="1" stroke="none"/>
</g>
</g>
</g>
<g opacity="1">
<g opacity="1" vectornator:mask="#Fill_12">
<clipPath id="ClipPath_12">
<use overflow="#visible" xlink:href="#Fill_12"/>
</clipPath>
<g clip-path="url(#ClipPath_12)">
<path d="M210.094 198.977L210.094 195.676C210.094 193.987 210.305 192.029 210.842 190.551L209.096 189.534C207.445 190.167 205.622 191.626 204.72 192.739L204.72 188.075L212.282 188.075L212.282 186.309L200.574 186.309L200.574 188.075L202.512 188.075L202.512 195.215L204.624 196.021C205.641 194.447 207.196 192.854 208.501 192.01C208.194 192.816 207.887 194.064 207.887 195.676L207.887 198.977L210.094 198.977Z" fill="#000000" fill-rule="evenodd" opacity="1" stroke="none"/>
</g>
</g>
<g opacity="1" vectornator:mask="#Fill_13">
<clipPath id="ClipPath_13">
<use overflow="#visible" xlink:href="#Fill_13"/>
</clipPath>
<g clip-path="url(#ClipPath_13)">
<path d="M213.664 184.697C213.664 185.676 213.856 186.482 214.048 186.981L213.933 186.981C213.721 186.732 213.3 186.309 212.378 186.309L211.514 186.309L211.514 188.075L211.86 188.075C212.993 188.075 213.588 188.478 213.588 190.071L213.588 198.977L215.775 198.977L215.775 188.075L217.848 188.075L217.848 186.309L215.775 186.309L215.775 184.371L213.664 184.371L213.664 184.697Z" fill="#000000" fill-rule="evenodd" opacity="1" stroke="none"/>
</g>
</g>
<g opacity="1" vectornator:mask="#Fill_14">
<clipPath id="ClipPath_14">
<use overflow="#visible" xlink:href="#Fill_14"/>
</clipPath>
<g clip-path="url(#ClipPath_14)">
<path d="M220.363 187.71L221.783 189.169C222.34 188.574 223.069 188.075 223.914 188.075C224.758 188.075 225.411 188.536 225.411 189.438C225.411 190.474 224.489 191.338 222.416 191.78L223.491 193.545C223.971 193.43 224.412 193.276 224.816 193.104C225.564 193.45 226.351 194.14 226.351 195.157C226.351 196.175 225.698 196.943 224.47 196.943C222.34 196.943 220.554 194.332 219.863 190.973L217.886 191.78C218.693 194.985 220.765 198.977 224.489 198.977C227.1 198.977 228.52 197.23 228.52 195.253C228.52 193.583 227.502 192.566 226.524 191.971C227.157 191.318 227.541 190.474 227.541 189.476C227.541 187.365 225.814 186.136 223.875 186.136C222.302 186.136 221.169 186.827 220.363 187.71Z" fill="#000000" fill-rule="evenodd" opacity="1" stroke="none"/>
</g>
</g>
</g>
<g opacity="1">
<g opacity="1" vectornator:mask="#Fill_15">
<clipPath id="ClipPath_15">
<use overflow="#visible" xlink:href="#Fill_15"/>
</clipPath>
<g clip-path="url(#ClipPath_15)">
<path d="M109.698 259.994L108.404 261.529C109.172 262.561 110.378 263.131 111.518 263.131C113.054 263.131 114.063 262.276 114.59 260.981C114.765 261.376 114.985 261.727 115.226 262.013C114.392 262.627 113.932 263.548 113.932 264.579C113.932 265.741 114.48 266.794 115.599 267.276L117.309 266.026C116.717 265.741 116.432 265.302 116.432 264.776C116.432 263.965 117.046 263.46 117.902 263.46C119.109 263.46 119.81 264.272 119.81 265.456C119.81 267.211 118.341 268.22 115.401 268.22L113.932 268.22L113.932 270.26C115.884 270.457 116.388 270.808 121.061 273.682L122.749 271.993L121.192 271.072C119.767 270.238 118.999 269.887 118.209 269.712L118.209 269.624C120.49 269.317 122.267 268.023 122.267 265.456C122.267 264.074 121.741 262.934 120.819 262.188C121.412 261.551 121.741 260.674 121.741 259.621C121.741 259.204 121.697 258.81 121.609 258.371L123.846 258.371L123.846 256.353L107.724 256.353L107.724 258.371L113.362 258.371C113.186 259.731 112.704 261.069 111.518 261.069C110.795 261.069 110.246 260.608 109.698 259.994ZM119.416 259.424C119.416 260.345 119.021 261.091 117.989 261.091C116.673 261.091 115.972 259.841 115.906 258.371L119.262 258.371C119.372 258.634 119.416 259.007 119.416 259.424Z" fill="#000000" fill-rule="evenodd" opacity="1" stroke="none"/>
</g>
</g>
<g opacity="1" vectornator:mask="#Fill_16">
<clipPath id="ClipPath_16">
<use overflow="#visible" xlink:href="#Fill_16"/>
</clipPath>
<g clip-path="url(#ClipPath_16)">
<path d="M125.426 254.51C125.426 255.629 125.645 256.551 125.865 257.121L125.733 257.121C125.492 256.836 125.009 256.353 123.956 256.353L122.969 256.353L122.969 258.371L123.364 258.371C124.658 258.371 125.338 258.832 125.338 260.652L125.338 270.83L127.839 270.83L127.839 258.371L130.208 258.371L130.208 256.353L127.839 256.353L127.839 254.137L125.426 254.137L125.426 254.51Z" fill="#000000" fill-rule="evenodd" opacity="1" stroke="none"/>
</g>
</g>
<g opacity="1" vectornator:mask="#Fill_17">
<clipPath id="ClipPath_17">
<use overflow="#visible" xlink:href="#Fill_17"/>
</clipPath>
<g clip-path="url(#ClipPath_17)">
<path d="M139.596 259.424C140.1 258.963 141.044 258.305 142.448 258.305C144.071 258.305 145.212 259.139 145.891 260.433L142.777 262.517C142.185 260.74 141.066 259.753 139.596 259.424ZM149.116 270.83L149.116 258.371L151.485 258.371L151.485 256.353L149.116 256.353L149.116 254.137L146.615 254.137L146.615 254.795C146.615 255.936 146.681 257.384 147.076 258.503L147.01 258.546C146.352 257.538 144.861 256.178 142.294 256.178C139.53 256.178 137.534 257.779 136.525 259.226L137.754 261.003C138.039 261.003 138.28 261.047 138.521 261.113C139.969 261.42 140.583 262.649 140.956 263.723L138.916 265.083L140.122 266.904L146.549 262.561C146.615 263 146.637 263.482 146.637 263.965L146.637 270.83L149.116 270.83Z" fill="#000000" fill-rule="evenodd" opacity="1" stroke="none"/>
</g>
</g>
<g opacity="1" vectornator:mask="#Fill_18">
<clipPath id="ClipPath_18">
<use overflow="#visible" xlink:href="#Fill_18"/>
</clipPath>
<g clip-path="url(#ClipPath_18)">
<path d="M143.501 254.313C141.834 252.975 139.552 252.076 137.359 252.076C135.296 252.076 134.2 253.26 134.2 254.971L134.2 256.353L136.547 256.353L136.547 258.371L134.2 258.371L134.2 270.83L131.7 270.83L131.7 258.371L129.33 258.371L129.33 256.353L131.7 256.353L131.7 254.795C131.7 252.076 133.673 249.838 137.315 249.838C140.517 249.838 143.26 251.176 144.926 252.536L143.501 254.313Z" fill="#000000" fill-rule="evenodd" opacity="1" stroke="none"/>
</g>
</g>
<g opacity="1" vectornator:mask="#Fill_19">
<clipPath id="ClipPath_19">
<use overflow="#visible" xlink:href="#Fill_19"/>
</clipPath>
<g clip-path="url(#ClipPath_19)">
<path d="M159.404 265.829C158.351 265.346 157.605 264.228 157.605 262.868C157.605 260.937 159.053 259.555 161.203 259.555C164.01 259.555 165.568 261.684 165.568 264.337C165.568 267.716 163.264 269.997 159.887 269.997C155.346 269.997 152.889 266.114 151.836 260.937L154.118 259.928C154.885 264.272 156.618 267.76 159.865 267.76C161.926 267.76 163.111 266.18 163.111 264.294C163.111 262.846 162.519 261.815 161.378 261.815C160.654 261.815 160.106 262.276 160.106 263.043C160.106 263.614 160.435 264.118 161.005 264.359L159.404 265.829ZM166.972 256.353L166.972 258.371L150.608 258.371L150.608 256.353L166.972 256.353Z" fill="#000000" fill-rule="evenodd" opacity="1" stroke="none"/>
</g>
</g>
<g opacity="1" vectornator:mask="#Fill_20">
<clipPath id="ClipPath_20">
<use overflow="#visible" xlink:href="#Fill_20"/>
</clipPath>
<g clip-path="url(#ClipPath_20)">
<path d="M173.816 260.608C173.816 261.617 174.627 262.429 175.658 262.429C176.711 262.429 177.523 261.617 177.523 260.608C177.523 259.533 176.711 258.722 175.658 258.722C174.627 258.722 173.816 259.533 173.816 260.608ZM173.816 269.076C173.816 270.085 174.627 270.896 175.658 270.896C176.711 270.896 177.523 270.085 177.523 269.076C177.523 268.001 176.711 267.189 175.658 267.189C174.627 267.189 173.816 268.001 173.816 269.076Z" fill="#000000" fill-rule="evenodd" opacity="1" stroke="none"/>
</g>
</g>
<g opacity="1" vectornator:mask="#Fill_21">
<clipPath id="ClipPath_21">
<use overflow="#visible" xlink:href="#Fill_21"/>
</clipPath>
<g clip-path="url(#ClipPath_21)">
<path d="M192.943 265.807C192.943 267.254 192.132 268.549 190.245 268.549C188.842 268.549 188.139 267.891 188.139 267.079C188.139 266.553 188.424 266.114 188.885 265.917L187.613 264.228C186.516 264.623 185.617 265.478 185.617 267.079C185.617 269.207 187.371 270.83 190.289 270.83C193.886 270.83 195.4 268.396 195.4 265.807C195.4 260.367 189.193 260.564 189.193 257.055C189.193 256.507 189.302 256.178 189.324 256.112L186.867 256.551C186.801 256.792 186.757 257.121 186.757 257.45C186.757 261.859 192.943 261.969 192.943 265.807Z" fill="#000000" fill-rule="evenodd" opacity="1" stroke="none"/>
</g>
</g>
<g opacity="1" vectornator:mask="#Fill_22">
<clipPath id="ClipPath_22">
<use overflow="#visible" xlink:href="#Fill_22"/>
</clipPath>
<g clip-path="url(#ClipPath_22)">
<path d="M207.421 265.566C207.421 267.013 206.609 268.089 205.402 268.681C205.6 268.045 205.644 267.474 205.644 266.925C205.644 264.447 203.867 262.802 201.279 262.802C198.646 262.802 197.045 264.579 197.045 267.101C197.045 269.295 198.317 270.764 200.247 270.94L201.016 268.856C199.918 268.812 199.37 268.133 199.37 267.035C199.37 265.763 200.16 264.93 201.367 264.93C202.595 264.93 203.538 265.675 203.538 267.298C203.538 268.001 203.341 268.9 202.902 269.602L204.174 270.94C207.399 270.808 209.833 268.856 209.833 265.544C209.833 259.248 200.533 259.841 200.533 256.792C200.533 256.353 200.643 256.024 200.643 255.958L198.186 256.397C198.12 256.638 198.098 256.967 198.098 257.296C198.098 261.793 207.421 261.156 207.421 265.566Z" fill="#000000" fill-rule="evenodd" opacity="1" stroke="none"/>
</g>
</g>
<g opacity="1" vectornator:mask="#Fill_23">
<clipPath id="ClipPath_23">
<use overflow="#visible" xlink:href="#Fill_23"/>
</clipPath>
<g clip-path="url(#ClipPath_23)">
<path d="M213.124 257.187L214.243 259.139C214.484 258.875 214.901 258.656 215.295 258.656C215.953 258.656 216.151 259.117 216.151 260.016L216.151 262.034C216.151 263.855 217.182 265.105 219.069 265.105C220.341 265.105 221.24 264.535 222.051 263.833C222.227 264.14 222.315 264.644 222.315 265.039C222.315 266.904 220.933 268.154 218.652 268.154C216.085 268.154 213.387 266.18 213.343 261.662L210.952 262.21C211.04 266.618 214.045 270.414 218.652 270.414C222.424 270.414 224.728 268.198 224.728 264.93C224.728 263.131 223.741 261.573 222.731 260.937C221.306 262.122 220.165 262.824 219.398 262.824C218.937 262.824 218.674 262.583 218.674 261.925L218.674 259.928C218.674 257.494 217.247 256.353 215.361 256.353C214.484 256.353 213.585 256.748 213.124 257.187Z" fill="#000000" fill-rule="evenodd" opacity="1" stroke="none"/>
</g>
</g>
<g opacity="1" vectornator:mask="#Fill_24">
<clipPath id="ClipPath_24">
<use overflow="#visible" xlink:href="#Fill_24"/>
</clipPath>
<g clip-path="url(#ClipPath_24)">
<path d="M230.629 263.504C229.4 263.504 228.457 262.978 228.457 261.727C228.457 260.06 229.993 258.656 231.55 258.656C232.493 258.656 232.953 259.161 232.953 260.016L232.953 262.846C232.405 263.175 231.616 263.504 230.629 263.504ZM232.953 267.233C232.953 269.668 234.313 270.83 236.266 270.83C237.143 270.83 238.065 270.435 238.503 269.997L237.385 268.045C237.165 268.308 236.727 268.527 236.332 268.527C235.674 268.527 235.388 268.067 235.388 267.167L235.388 259.862C235.388 257.845 234.204 256.353 231.659 256.353C228.303 256.353 226.044 259.007 226.044 261.859C226.044 264.425 227.908 265.763 230.387 265.763C231.506 265.763 232.361 265.5 232.953 265.171L232.953 267.233Z" fill="#000000" fill-rule="evenodd" opacity="1" stroke="none"/>
</g>
</g>
</g>
</g>
<g opacity="1">
<path d="M31.343 240.192L29.41 234.198L24.074 237.547L26.446 231.711L20.206 230.848L25.775 227.902L21.55 223.23L27.709 224.552L27.476 218.257L31.343 223.23L35.211 218.257L34.978 224.552L41.137 223.23L36.912 227.902L42.48 230.848L36.24 231.711L38.613 237.547L33.277 234.198L31.343 240.192Z" fill="#000000" fill-rule="evenodd" opacity="1" stroke="none"/>
<path d="M313.477 241.747L311.544 235.752L306.208 239.101L308.581 233.265L302.341 232.402L307.909 229.456L303.684 224.784L309.843 226.107L309.61 219.812L313.477 224.784L317.346 219.812L317.112 226.107L323.271 224.784L319.046 229.456L324.614 232.402L318.374 233.265L320.747 239.101L315.411 235.752L313.477 241.747Z" fill="#000000" fill-rule="evenodd" opacity="1" stroke="none"/>
</g>
<path d="M152.716 325.519C155.216 326.768 156.725 328.309 156.349 331.202C155.91 334.591 152.433 338.063 148.134 337.505C145.021 337.101 143.735 335.141 144.07 332.55L145.541 321.226L142.923 320.886L143.312 317.882L159.376 319.968L158.987 322.971L149.012 321.676L148.998 321.787C148.844 322.972 149.377 323.825 151.743 325.029L152.716 325.519ZM148.374 326.805C148.374 326.805 148.389 328.208 148.096 330.467L147.759 333.057C147.684 333.636 147.989 334.096 148.76 334.196C150.193 334.382 152.437 332.852 152.709 330.758C152.845 329.711 152.251 329.101 151.12 328.534L150.384 328.159C149.36 327.633 148.852 327.231 148.485 326.819L148.374 326.805Z" fill="#000000" fill-rule="evenodd" opacity="1" stroke="none"/>
<path d="M151.312 314.102C149.576 313.876 148.546 312.959 148.088 311.526L145.295 312.537C145.908 314.718 147.951 316.467 150.954 316.857C153.985 317.251 156.351 316.072 157.501 314.12L155.059 312.431C154.25 313.698 153.02 314.324 151.312 314.102ZM150.013 310.291C149.885 311.283 150.466 312.199 151.541 312.339C152.588 312.475 153.384 311.737 153.512 310.745C153.641 309.753 153.063 308.81 152.017 308.674C150.942 308.534 150.142 309.299 150.013 310.291Z" fill="#000000" fill-rule="evenodd" opacity="1" stroke="none"/>
<path d="M161.523 317.668C161.355 318.963 161.477 320.184 161.73 321.254L161.538 321.229C161.26 320.772 160.67 320.136 159.403 319.971L158.273 319.824L157.884 322.828L157.994 322.843C159.73 323.068 160.571 323.709 160.221 326.41L158.629 338.671L162.487 339.172L164.496 323.687L167.252 324.044L167.641 321.041L164.886 320.683L165.251 317.872L161.559 317.393L161.523 317.668Z" fill="#000000" fill-rule="evenodd" opacity="1" stroke="none"/>
<path d="M178.571 338.889L178.478 334.667C178.421 332.139 178.63 329.021 179.442 326.753L176.46 325.095C174.145 325.98 171.766 327.728 170.52 329.257L170.393 323.45L181.198 323.212L181.131 320.184L163.797 320.567L163.865 323.595L166.503 323.537L166.73 333.787L170.426 335.039C171.657 332.872 173.883 330.488 175.417 329.454C174.994 330.464 174.533 332.253 174.589 334.78L174.682 338.975L178.571 338.889Z" fill="#000000" fill-rule="evenodd" opacity="1" stroke="none"/>
<path d="M183.837 323.606C184.421 323.034 185.33 322.383 186.757 322.155C188.595 321.861 189.997 322.538 191.021 323.838L187.959 326.69C186.967 324.879 185.594 323.86 183.837 323.606ZM197.953 336.236L195.491 320.816L198.235 320.378L197.757 317.388L195.014 317.826L194.567 315.028L190.725 315.641L190.826 316.272C190.984 317.26 191.216 318.714 192.226 320.634L192.152 320.702C191.158 319.764 189.047 318.525 185.974 319.016C182.517 319.568 180.19 321.909 179.144 323.989L181.311 326.289C181.754 326.245 182.152 326.267 182.499 326.323C184.059 326.58 184.937 327.847 185.541 328.988L183.408 330.961L185.68 333.384L192.49 326.866C192.627 327.379 192.738 327.895 192.83 328.472L194.166 336.84L197.953 336.236Z" fill="#000000" fill-rule="evenodd" opacity="1" stroke="none"/>
<path d="M193.233 344.165C191.917 344.375 191.043 343.839 190.872 342.77C190.684 341.59 191.425 340.768 192.769 340.553C193.428 340.448 194.135 340.475 194.834 340.618L194.894 341.002C195.144 342.566 194.495 343.964 193.233 344.165L193.233 344.165ZM202.226 344.98L204.371 342.555C202.455 340.948 200.432 339.555 198.35 338.677L197.689 334.534L193.957 335.13L194.351 337.599C193.466 337.516 192.543 337.551 191.637 337.695C188.866 338.137 186.86 340.372 187.328 343.307C187.749 345.941 190.194 347.689 193.597 347.146C196.971 346.607 198.374 344.638 198.618 342.292C199.805 343.031 201.023 343.962 202.226 344.98Z" fill="#000000" fill-rule="evenodd" opacity="1" stroke="none"/>
<path d="M202.177 336.312C202.585 337.669 203.808 338.258 205.032 337.889C206.256 337.521 206.922 336.363 206.514 335.006C206.105 333.649 204.918 333.078 203.694 333.447C202.47 333.815 201.769 334.955 202.177 336.312ZM205.016 317.988L195.119 320.969L194.245 318.069L210.448 313.19L211.321 316.089L208.661 316.89L212.33 329.075L213.866 329.454L212.228 332.588L199.282 329.494L198.393 326.541C199.187 324.938 201.623 321.273 205.312 318.973L205.016 317.988ZM206.362 322.458C204.429 323.94 202.972 325.945 202.588 326.786L208.305 328.14L208.411 328.108C207.998 327.507 207.331 325.677 206.843 324.054L206.362 322.458Z" fill="#000000" fill-rule="evenodd" opacity="1" stroke="none"/>
</g>
<g opacity="1">
<g opacity="1" vectornator:mask="#Fill_25">
<clipPath id="ClipPath_25">
<use overflow="#visible" xlink:href="#Fill_25"/>
</clipPath>
<g clip-path="url(#ClipPath_25)">
<path d="M395.605 130.955C397.355 124.725 398.405 120.735 399.245 116.535L399.525 116.535C400.365 120.875 401.345 124.445 403.235 131.235L405.125 138.095L393.575 138.095L395.605 130.955ZM392.035 109.115L377.195 158.185L387.975 158.185L391.125 146.915L407.575 146.915L410.655 158.185L421.855 158.185L406.945 109.115L392.035 109.115Z" fill="#000000" fill-rule="evenodd" opacity="1" stroke="none"/>
</g>
</g>
<g opacity="1" vectornator:mask="#Fill_26">
<clipPath id="ClipPath_26">
<use overflow="#visible" xlink:href="#Fill_26"/>
</clipPath>
<g clip-path="url(#ClipPath_26)">
<path d="M458.885 123.045L458.605 123.045C457.205 120.245 454.755 117.725 448.735 117.725C444.815 117.725 440.755 119.195 438.305 122.345L438.025 122.345L436.275 118.635L427.595 118.635L427.595 158.185L438.165 158.185L438.165 131.305C439.145 128.715 441.665 126.615 444.255 126.615C447.895 126.615 449.855 128.925 449.855 133.545L449.855 158.185L460.425 158.185L460.425 131.165C461.615 128.365 464.345 126.615 467.005 126.615C469.735 126.615 472.115 128.155 472.115 132.775L472.115 158.185L482.685 158.185L482.685 130.885C482.685 121.855 478.275 117.725 470.505 117.725C464.905 117.725 460.915 120.315 458.885 123.045Z" fill="#000000" fill-rule="evenodd" opacity="1" stroke="none"/>
</g>
</g>
<g opacity="1" vectornator:mask="#Fill_27">
<clipPath id="ClipPath_27">
<use overflow="#visible" xlink:href="#Fill_27"/>
</clipPath>
<g clip-path="url(#ClipPath_27)">
<path d="M492.345 158.185L502.915 158.185L502.915 118.635L492.345 118.635L492.345 158.185ZM491.435 108.345C491.435 111.635 494.095 114.295 497.455 114.295C501.025 114.295 503.685 111.635 503.685 108.345C503.685 104.705 501.025 102.045 497.455 102.045C494.095 102.045 491.435 104.705 491.435 108.345Z" fill="#000000" fill-rule="evenodd" opacity="1" stroke="none"/>
</g>
</g>
<g opacity="1" vectornator:mask="#Fill_28">
<clipPath id="ClipPath_28">
<use overflow="#visible" xlink:href="#Fill_28"/>
</clipPath>
<g clip-path="url(#ClipPath_28)">
<path d="M537.005 118.145C536.095 117.935 534.765 117.795 533.645 117.795C528.465 117.795 525.035 120.595 523.425 124.445L523.145 124.445L520.975 118.635L512.715 118.635L512.715 158.185L523.215 158.185L523.215 131.375C525.525 129.485 529.165 128.225 532.455 128.225C533.855 128.225 535.605 128.295 537.005 128.575L537.005 118.145Z" fill="#000000" fill-rule="evenodd" opacity="1" stroke="none"/>
</g>
</g>
<g opacity="1" vectornator:mask="#Fill_29">
<clipPath id="ClipPath_29">
<use overflow="#visible" xlink:href="#Fill_29"/>
</clipPath>
<g clip-path="url(#ClipPath_29)">
<path d="M560.525 147.965C559.335 149.575 557.025 150.765 554.435 150.765C551.705 150.765 550.165 149.155 550.165 146.915C550.165 143.485 553.595 141.875 560.525 142.365L560.525 147.965ZM554.785 117.935C546.035 117.935 542.115 123.185 540.575 125.355L548.065 130.885C549.045 128.575 551.075 126.405 554.855 126.405C558.075 126.405 560.525 127.735 560.525 132.145L560.525 135.225C548.065 134.595 539.875 138.795 539.875 147.895C539.875 153.565 543.865 158.815 551.565 158.815C557.235 158.815 560.175 156.365 561.645 154.405L561.925 154.405C563.115 156.855 565.285 158.675 569.065 158.675C570.815 158.675 572.635 158.395 574.315 157.345L574.315 150.065L573.195 150.065C571.305 150.065 570.465 149.085 570.465 146.845L570.465 131.025C570.465 121.435 564.865 117.935 554.785 117.935Z" fill="#000000" fill-rule="evenodd" opacity="1" stroke="none"/>
</g>
</g>
<g opacity="1" vectornator:mask="#Fill_30">
<clipPath id="ClipPath_30">
<use overflow="#visible" xlink:href="#Fill_30"/>
</clipPath>
<g clip-path="url(#ClipPath_30)">
<path d="M580.335 156.365C583.695 157.905 587.615 158.885 594.125 158.885C607.285 158.885 614.355 149.715 614.355 137.675C614.355 123.115 607.705 118.215 598.745 118.215C595.455 118.215 592.585 119.335 591.045 120.385L590.765 120.385L590.765 105.125L580.335 105.125L580.335 156.365ZM594.895 150.485C593.425 150.485 592.095 150.345 590.905 149.925L590.905 128.995C591.885 127.875 593.775 126.895 596.225 126.895C600.775 126.895 603.855 129.695 603.855 138.515C603.855 146.915 600.495 150.485 594.895 150.485Z" fill="#000000" fill-rule="evenodd" opacity="1" stroke="none"/>
</g>
</g>
<g opacity="1" vectornator:mask="#Fill_31">
<clipPath id="ClipPath_31">
<use overflow="#visible" xlink:href="#Fill_31"/>
</clipPath>
<g clip-path="url(#ClipPath_31)">
<path d="M640.255 147.965C639.065 149.575 636.755 150.765 634.165 150.765C631.435 150.765 629.895 149.155 629.895 146.915C629.895 143.485 633.325 141.875 640.255 142.365L640.255 147.965ZM634.515 117.935C625.765 117.935 621.845 123.185 620.305 125.355L627.795 130.885C628.775 128.575 630.805 126.405 634.585 126.405C637.805 126.405 640.255 127.735 640.255 132.145L640.255 135.225C627.795 134.595 619.605 138.795 619.605 147.895C619.605 153.565 623.595 158.815 631.295 158.815C636.965 158.815 639.905 156.365 641.375 154.405L641.655 154.405C642.845 156.855 645.015 158.675 648.795 158.675C650.545 158.675 652.365 158.395 654.045 157.345L654.045 150.065L652.925 150.065C651.035 150.065 650.195 149.085 650.195 146.845L650.195 131.025C650.195 121.435 644.595 117.935 634.515 117.935Z" fill="#000000" fill-rule="evenodd" opacity="1" stroke="none"/>
</g>
</g>
<g opacity="1" vectornator:mask="#Fill_32">
<clipPath id="ClipPath_32">
<use overflow="#visible" xlink:href="#Fill_32"/>
</clipPath>
<g clip-path="url(#ClipPath_32)">
<path d="M681.765 119.265C680.505 118.915 678.965 118.425 675.255 118.425C666.925 118.425 657.965 123.815 657.965 140.475C657.965 153.355 664.055 158.815 672.385 158.815C677.705 158.815 680.925 156.085 682.045 154.965L682.325 154.965L684.005 158.185L692.265 158.185L692.265 105.125L681.765 105.125L681.765 119.265ZM675.535 150.485C671.475 150.485 668.675 147.265 668.675 139.565C668.675 128.855 672.455 126.965 676.795 126.965C678.755 126.965 681.065 127.595 682.045 128.365L682.045 147.125C680.575 149.155 678.475 150.485 675.535 150.485Z" fill="#000000" fill-rule="evenodd" opacity="1" stroke="none"/>
</g>
</g>
<g opacity="1" vectornator:mask="#Fill_33">
<clipPath id="ClipPath_33">
<use overflow="#visible" xlink:href="#Fill_33"/>
</clipPath>
<g clip-path="url(#ClipPath_33)">
<path d="M743.155 108.415C730.135 108.415 719.845 116.395 719.845 134.105C719.845 150.485 726.775 158.885 740.705 158.885C749.805 158.885 754.705 156.995 758.275 154.545L758.275 132.915L747.565 132.915L747.565 149.505C746.585 149.925 744.415 150.205 742.945 150.205C734.755 150.205 730.835 144.955 730.835 132.845C730.835 121.225 736.295 117.655 742.735 117.655C747.285 117.655 749.875 119.615 751.695 121.575L758.555 114.085C757.225 112.545 752.815 108.415 743.155 108.415Z" fill="#000000" fill-rule="evenodd" opacity="1" stroke="none"/>
</g>
</g>
<g opacity="1" vectornator:mask="#Fill_34">
<clipPath id="ClipPath_34">
<use overflow="#visible" xlink:href="#Fill_34"/>
</clipPath>
<g clip-path="url(#ClipPath_34)">
<path d="M766.115 152.095C766.115 155.805 769.125 158.815 772.905 158.815C776.895 158.815 779.905 155.805 779.905 152.095C779.905 148.035 776.895 145.025 772.905 145.025C769.125 145.025 766.115 148.035 766.115 152.095Z" fill="#000000" fill-rule="evenodd" opacity="1" stroke="none"/>
</g>
</g>
<g opacity="1" vectornator:mask="#Fill_35">
<clipPath id="ClipPath_35">
<use overflow="#visible" xlink:href="#Fill_35"/>
</clipPath>
<g clip-path="url(#ClipPath_35)">
<path d="M799.715 109.115L789.005 109.115L789.005 158.185L799.715 158.185L799.715 109.115ZM799.995 133.195L799.995 133.475L815.045 158.185L828.415 158.185L811.615 132.985L826.875 109.115L814.555 109.115L799.995 133.195Z" fill="#000000" fill-rule="evenodd" opacity="1" stroke="none"/>
</g>
</g>
<g opacity="1" vectornator:mask="#Fill_36">
<clipPath id="ClipPath_36">
<use overflow="#visible" xlink:href="#Fill_36"/>
</clipPath>
<g clip-path="url(#ClipPath_36)">
<path d="M832.125 152.095C832.125 155.805 835.135 158.815 838.915 158.815C842.905 158.815 845.915 155.805 845.915 152.095C845.915 148.035 842.905 145.025 838.915 145.025C835.135 145.025 832.125 148.035 832.125 152.095Z" fill="#000000" fill-rule="evenodd" opacity="1" stroke="none"/>
</g>
</g>
<g opacity="1" vectornator:mask="#Fill_37">
<clipPath id="ClipPath_37">
<use overflow="#visible" xlink:href="#Fill_37"/>
</clipPath>
<g clip-path="url(#ClipPath_37)">
<path d="M410.445 215.115L410.445 235.275L392.595 235.275L392.595 215.115L381.885 215.115L381.885 264.185L392.595 264.185L392.595 244.095L410.445 244.095L410.445 264.185L421.155 264.185L421.155 215.115L410.445 215.115Z" fill="#000000" fill-rule="evenodd" opacity="1" stroke="none"/>
</g>
</g>
<g opacity="1" vectornator:mask="#Fill_38">
<clipPath id="ClipPath_38">
<use overflow="#visible" xlink:href="#Fill_38"/>
</clipPath>
<g clip-path="url(#ClipPath_38)">
<path d="M438.865 264.185L449.435 264.185L449.435 224.635L438.865 224.635L438.865 264.185ZM437.955 214.345C437.955 217.635 440.615 220.295 443.975 220.295C447.545 220.295 450.205 217.635 450.205 214.345C450.205 210.705 447.545 208.045 443.975 208.045C440.615 208.045 437.955 210.705 437.955 214.345Z" fill="#000000" fill-rule="evenodd" opacity="1" stroke="none"/>
</g>
</g>
<g opacity="1" vectornator:mask="#Fill_39">
<clipPath id="ClipPath_39">
<use overflow="#visible" xlink:href="#Fill_39"/>
</clipPath>
<g clip-path="url(#ClipPath_39)">
<path d="M498.085 226.525C494.585 224.985 490.315 224.145 483.385 224.145C470.435 224.145 464.135 233.175 464.135 244.305C464.135 258.515 471.485 262.575 479.675 262.575C483.245 262.575 485.975 261.665 487.445 260.335L487.725 260.335L487.725 262.365C487.725 267.965 485.415 269.995 479.955 269.995C475.825 269.995 471.975 268.105 470.015 265.375L464.065 273.145C466.305 275.805 470.225 278.535 479.955 278.535C490.525 278.535 498.085 273.215 498.085 262.435L498.085 226.525ZM487.655 233.175L487.655 252.005C486.325 253.335 484.435 254.035 482.125 254.035C477.435 254.035 474.635 252.005 474.635 243.885C474.635 236.325 477.785 232.475 483.315 232.475C484.995 232.475 486.185 232.685 487.655 233.175Z" fill="#000000" fill-rule="evenodd" opacity="1" stroke="none"/>
</g>
</g>
<g opacity="1" vectornator:mask="#Fill_40">
<clipPath id="ClipPath_40">
<use overflow="#visible" xlink:href="#Fill_40"/>
</clipPath>
<g clip-path="url(#ClipPath_40)">
<path d="M535.885 224.355C531.335 224.355 527.695 226.315 525.455 228.625L525.175 228.625L525.175 211.125L514.605 211.125L514.605 264.185L525.175 264.185L525.175 237.655C526.505 235.205 529.445 233.315 531.965 233.315C535.535 233.315 537.425 235.415 537.425 239.615L537.425 264.185L547.995 264.185L547.995 237.515C547.995 228.625 543.585 224.355 535.885 224.355Z" fill="#000000" fill-rule="evenodd" opacity="1" stroke="none"/>
</g>
</g>
<g opacity="1" vectornator:mask="#Fill_41">
<clipPath id="ClipPath_41">
<use overflow="#visible" xlink:href="#Fill_41"/>
</clipPath>
<g clip-path="url(#ClipPath_41)">
<path d="M606.445 255.855C600.495 255.855 596.225 252.075 594.125 249.975L588.035 258.795C589.715 260.685 595.595 264.885 605.045 264.885C617.505 264.885 623.595 257.745 623.595 250.395C623.595 234.785 601.055 235.975 601.055 228.065C601.055 225.615 603.015 223.655 606.515 223.655C611.695 223.655 614.495 226.735 615.685 228.205L622.335 220.295C620.725 218.195 615.615 214.415 607.425 214.415C597.275 214.415 590.135 220.785 590.135 228.905C590.135 244.375 612.745 243.325 612.745 251.095C612.745 253.685 610.715 255.855 606.445 255.855Z" fill="#000000" fill-rule="evenodd" opacity="1" stroke="none"/>
</g>
</g>
<g opacity="1" vectornator:mask="#Fill_42">
<clipPath id="ClipPath_42">
<use overflow="#visible" xlink:href="#Fill_42"/>
</clipPath>
<g clip-path="url(#ClipPath_42)">
<path d="M635.985 244.795C635.985 259.075 642.495 264.955 653.205 264.955C661.605 264.955 665.385 261.665 667.625 258.655L660.905 252.425C659.925 254.175 657.685 256.275 654.185 256.275C649.215 256.275 646.765 252.355 646.765 243.955C646.765 235.345 649.705 232.545 654.255 232.545C658.245 232.545 660.275 235.345 660.835 236.325L667.905 229.605C665.245 226.035 660.625 223.865 654.255 223.865C643.545 223.865 635.985 230.865 635.985 244.795Z" fill="#000000" fill-rule="evenodd" opacity="1" stroke="none"/>
</g>
</g>
<g opacity="1" vectornator:mask="#Fill_43">
<clipPath id="ClipPath_43">
<use overflow="#visible" xlink:href="#Fill_43"/>
</clipPath>
<g clip-path="url(#ClipPath_43)">
<path d="M701.645 224.355C697.095 224.355 693.455 226.315 691.215 228.625L690.935 228.625L690.935 211.125L680.365 211.125L680.365 264.185L690.935 264.185L690.935 237.655C692.265 235.205 695.205 233.315 697.725 233.315C701.295 233.315 703.185 235.415 703.185 239.615L703.185 264.185L713.755 264.185L713.755 237.515C713.755 228.625 709.345 224.355 701.645 224.355Z" fill="#000000" fill-rule="evenodd" opacity="1" stroke="none"/>
</g>
</g>
<g opacity="1" vectornator:mask="#Fill_44">
<clipPath id="ClipPath_44">
<use overflow="#visible" xlink:href="#Fill_44"/>
</clipPath>
<g clip-path="url(#ClipPath_44)">
<path d="M738.885 244.165C738.885 236.115 740.985 232.195 745.815 232.195C751.275 232.195 753.305 236.535 753.305 244.725C753.305 252.775 751.625 256.695 746.235 256.695C740.915 256.695 738.885 252.355 738.885 244.165ZM745.885 264.955C758.975 264.955 764.155 256.485 764.155 244.305C764.155 232.055 759.885 223.935 746.235 223.935C733.145 223.935 728.035 232.405 728.035 244.585C728.035 256.835 732.305 264.955 745.885 264.955Z" fill="#000000" fill-rule="evenodd" opacity="1" stroke="none"/>
</g>
</g>
<g opacity="1" vectornator:mask="#Fill_45">
<clipPath id="ClipPath_45">
<use overflow="#visible" xlink:href="#Fill_45"/>
</clipPath>
<g clip-path="url(#ClipPath_45)">
<path d="M787.325 244.165C787.325 236.115 789.425 232.195 794.255 232.195C799.715 232.195 801.745 236.535 801.745 244.725C801.745 252.775 800.065 256.695 794.675 256.695C789.355 256.695 787.325 252.355 787.325 244.165ZM794.325 264.955C807.415 264.955 812.595 256.485 812.595 244.305C812.595 232.055 808.325 223.935 794.675 223.935C781.585 223.935 776.475 232.405 776.475 244.585C776.475 256.835 780.745 264.955 794.325 264.955Z" fill="#000000" fill-rule="evenodd" opacity="1" stroke="none"/>
</g>
</g>
<g opacity="1" vectornator:mask="#Fill_46">
<clipPath id="ClipPath_46">
<use overflow="#visible" xlink:href="#Fill_46"/>
</clipPath>
<g clip-path="url(#ClipPath_46)">
<path d="M827.015 211.125L827.015 254.455C827.015 261.035 830.865 264.815 837.305 264.815C839.615 264.815 841.085 264.325 842.345 263.835L842.345 255.505C841.995 255.575 841.645 255.645 840.875 255.645C838.915 255.645 837.585 254.665 837.585 251.725L837.585 211.125L827.015 211.125Z" fill="#000000" fill-rule="evenodd" opacity="1" stroke="none"/>
</g>
</g>
</g>
</g>
</g>
</svg>
